<?xml version="1.0" encoding="UTF-8"?>
<svg xmlns="http://www.w3.org/2000/svg" xmlns:xlink="http://www.w3.org/1999/xlink" width="1024px" height="1024px" viewBox="0 0 1024 1024" version="1.1">
<g id="surface1">
<path style=" stroke:none;fill-rule:nonzero;fill:rgb(79.215688%,44.313726%,44.705883%);fill-opacity:1;" d="M 818.203125 689.734375 C 815.570312 686.472656 811.617188 684.839844 805.03125 683.210938 C 754.988281 671.796875 712.84375 626.140625 695.722656 567.441406 C 690.453125 549.503906 687.820312 531.566406 685.1875 513.628906 C 682.550781 497.324219 679.917969 481.019531 675.964844 464.714844 C 661.480469 412.535156 628.554688 366.878906 582.460938 337.527344 C 544.265625 313.070312 498.171875 301.65625 444.175781 300.027344 C 444.175781 300.027344 442.859375 300.027344 441.539062 300.027344 C 437.589844 300.027344 433.636719 300.027344 428.371094 300.027344 C 421.785156 301.65625 416.515625 306.546875 411.25 309.808594 L 341.449219 360.355469 C 325.644531 371.769531 315.109375 384.816406 303.253906 401.121094 C 303.253906 401.121094 301.9375 402.75 300.621094 404.382812 C 294.035156 412.535156 271.648438 438.625 278.230469 448.40625 C 278.230469 448.40625 279.550781 448.40625 280.867188 448.40625 C 286.132812 448.40625 295.351562 428.839844 299.304688 419.058594 C 301.9375 414.164062 303.253906 410.90625 304.574219 409.273438 C 316.425781 391.335938 330.914062 375.03125 349.351562 361.988281 C 374.375 342.421875 402.03125 331.007812 429.6875 317.960938 C 437.589844 314.699219 446.808594 309.808594 456.027344 308.179688 C 458.660156 308.179688 461.296875 308.179688 463.929688 308.179688 C 474.464844 308.179688 486.320312 311.441406 496.855469 314.699219 C 506.074219 317.960938 515.292969 319.59375 524.511719 322.851562 C 581.144531 340.789062 624.605469 378.292969 649.625 430.472656 C 664.113281 461.453125 669.382812 494.0625 674.648438 529.9375 C 674.648438 538.089844 677.285156 546.242188 678.601562 552.765625 C 686.503906 596.789062 706.257812 637.554688 732.597656 660.382812 C 740.5 666.90625 751.035156 673.425781 760.253906 678.320312 L 797.128906 699.515625 C 799.765625 701.148438 820.835938 706.039062 830.054688 707.667969 L 830.054688 694.625 C 823.472656 691.363281 818.203125 689.734375 816.886719 688.101562 Z M 818.203125 689.734375 "/>
<path style=" stroke:none;fill-rule:nonzero;fill:rgb(79.215688%,44.313726%,44.705883%);fill-opacity:1;" d="M 785.277344 717.453125 C 785.277344 717.453125 782.644531 717.453125 781.328125 717.453125 C 752.351562 712.558594 723.378906 689.734375 700.988281 658.75 C 682.550781 631.03125 669.382812 595.160156 661.480469 552.765625 C 658.84375 541.351562 657.527344 529.9375 656.210938 520.152344 C 652.261719 495.695312 648.308594 471.234375 640.40625 448.40625 C 619.335938 391.335938 570.605469 347.3125 510.023438 332.636719 C 496.855469 329.375 486.320312 327.746094 475.78125 327.746094 C 465.246094 327.746094 459.976562 327.746094 452.078125 331.007812 C 436.273438 334.265625 420.46875 344.050781 408.617188 350.574219 C 383.59375 363.617188 359.886719 378.292969 340.132812 396.230469 C 324.328125 410.90625 303.253906 436.992188 295.351562 471.234375 C 295.351562 476.128906 296.671875 495.695312 299.304688 503.847656 C 308.523438 469.605469 313.792969 456.558594 316.425781 448.40625 C 334.863281 401.121094 386.226562 350.574219 461.296875 347.3125 C 461.296875 347.3125 463.929688 347.3125 465.246094 347.3125 C 482.367188 347.3125 500.804688 352.203125 517.925781 357.09375 C 520.558594 357.09375 523.195312 357.09375 524.511719 358.726562 C 535.046875 361.988281 545.582031 365.25 556.121094 370.140625 C 595.628906 389.707031 625.921875 438.625 645.675781 510.371094 C 648.308594 518.523438 650.945312 528.304688 650.945312 539.71875 C 650.945312 547.871094 650.945312 556.027344 650.945312 564.179688 C 650.945312 572.332031 650.945312 578.851562 650.945312 587.007812 C 650.945312 603.3125 657.527344 619.617188 668.066406 639.183594 C 678.601562 657.121094 690.453125 671.796875 703.625 684.839844 C 735.230469 714.191406 774.742188 730.496094 808.984375 743.542969 C 814.25 743.542969 819.519531 743.542969 832.691406 743.542969 L 832.691406 728.867188 C 810.300781 723.972656 789.230469 719.082031 786.59375 719.082031 Z M 785.277344 717.453125 "/>
<path style=" stroke:none;fill-rule:nonzero;fill:rgb(79.215688%,44.313726%,44.705883%);fill-opacity:1;" d="M 595.628906 443.515625 C 592.996094 441.886719 589.042969 440.253906 586.410156 436.992188 C 581.144531 433.734375 574.558594 430.472656 570.605469 425.578125 C 567.972656 422.320312 566.65625 417.425781 564.023438 412.535156 C 564.023438 410.90625 561.386719 407.644531 561.386719 406.011719 C 550.851562 384.816406 524.511719 368.507812 502.121094 368.507812 C 479.734375 368.507812 494.21875 368.507812 490.269531 370.140625 C 486.320312 370.140625 483.683594 371.769531 481.050781 373.402344 C 475.78125 375.03125 471.832031 378.292969 466.5625 378.292969 C 461.296875 378.292969 465.246094 378.292969 463.929688 378.292969 C 457.34375 378.292969 448.125 375.03125 440.222656 373.402344 C 437.589844 373.402344 433.636719 373.402344 431.003906 373.402344 C 405.980469 373.402344 384.910156 396.230469 365.15625 441.886719 C 361.203125 450.039062 354.617188 450.039062 350.667969 450.039062 C 346.714844 450.039062 349.351562 450.039062 348.035156 450.039062 C 348.035156 450.039062 346.714844 450.039062 345.398438 450.039062 C 340.132812 450.039062 336.179688 450.039062 333.546875 456.558594 C 330.914062 459.820312 329.59375 463.082031 328.277344 466.34375 C 323.011719 472.867188 321.691406 477.757812 317.742188 489.171875 C 315.109375 498.957031 312.472656 521.785156 313.792969 528.304688 C 313.792969 529.9375 313.792969 531.566406 313.792969 534.828125 C 313.792969 544.613281 316.425781 557.65625 328.277344 559.285156 L 330.914062 559.285156 C 330.914062 559.285156 330.914062 562.546875 330.914062 562.546875 C 320.375 604.941406 324.328125 634.292969 340.132812 645.707031 C 342.765625 647.335938 345.398438 648.96875 348.035156 650.597656 C 350.667969 652.230469 354.617188 653.859375 357.253906 657.121094 C 359.886719 658.75 363.835938 665.273438 366.472656 671.796875 C 367.789062 675.058594 370.421875 678.320312 371.738281 679.949219 L 374.375 684.839844 C 388.859375 702.777344 394.128906 709.300781 415.199219 715.820312 C 419.152344 715.820312 424.417969 717.453125 428.371094 717.453125 C 437.589844 717.453125 444.175781 714.191406 450.757812 710.929688 C 456.027344 707.667969 459.976562 706.039062 465.246094 706.039062 C 470.515625 706.039062 469.199219 706.039062 471.832031 706.039062 C 478.417969 712.558594 491.585938 717.453125 508.707031 717.453125 C 536.363281 717.453125 569.289062 706.039062 575.875 686.472656 C 575.875 683.210938 577.191406 681.578125 578.507812 678.320312 C 579.824219 671.796875 582.460938 663.644531 587.726562 660.382812 C 590.363281 657.121094 594.3125 657.121094 596.945312 655.492188 C 598.261719 655.492188 600.898438 655.492188 602.214844 653.859375 C 610.117188 648.96875 615.382812 639.183594 618.019531 632.664062 C 624.605469 614.726562 625.921875 595.160156 621.96875 575.59375 C 621.96875 573.960938 621.96875 570.699219 620.652344 567.441406 C 619.335938 560.917969 618.019531 556.027344 616.703125 549.503906 C 616.703125 538.089844 618.019531 528.304688 620.652344 520.152344 C 628.554688 485.910156 620.652344 459.820312 598.261719 441.886719 Z M 485 388.078125 C 488.953125 384.816406 494.21875 381.554688 500.804688 381.554688 C 512.660156 381.554688 527.144531 388.078125 533.730469 396.230469 C 542.949219 406.011719 550.851562 419.058594 552.167969 433.734375 C 552.167969 436.992188 552.167969 443.515625 552.167969 448.40625 C 550.851562 453.300781 546.902344 456.558594 544.265625 459.820312 L 521.878906 481.019531 C 521.878906 481.019531 519.242188 482.648438 517.925781 482.648438 C 516.609375 482.648438 517.925781 482.648438 517.925781 482.648438 C 516.609375 482.648438 515.292969 479.386719 515.292969 479.386719 C 511.339844 469.605469 499.488281 466.34375 492.902344 466.34375 C 491.585938 466.34375 488.953125 466.34375 486.320312 464.714844 C 482.367188 461.453125 482.367188 456.558594 482.367188 453.300781 L 479.734375 422.320312 C 479.734375 409.273438 478.417969 394.597656 486.320312 386.445312 Z M 521.878906 503.847656 C 521.878906 503.847656 524.511719 503.847656 525.828125 503.847656 C 529.78125 505.476562 531.097656 508.738281 533.730469 512 C 535.046875 515.261719 537.679688 518.523438 537.679688 523.414062 C 537.679688 526.675781 537.679688 528.304688 536.363281 529.9375 L 533.730469 536.457031 C 533.730469 536.457031 533.730469 539.71875 531.097656 541.351562 C 528.460938 542.980469 525.828125 542.980469 524.511719 542.980469 L 503.441406 542.980469 C 500.804688 542.980469 496.855469 542.980469 492.902344 541.351562 C 490.269531 539.71875 487.636719 536.457031 487.636719 533.199219 C 487.636719 525.042969 496.855469 518.523438 508.707031 510.371094 C 510.023438 510.371094 511.339844 508.738281 512.660156 507.109375 C 516.609375 503.847656 520.558594 502.214844 524.511719 502.214844 Z M 470.515625 513.628906 C 470.515625 513.628906 470.515625 512 470.515625 510.371094 C 470.515625 502.214844 470.515625 494.0625 471.832031 487.542969 C 471.832031 484.28125 471.832031 479.386719 475.78125 477.757812 C 477.097656 477.757812 479.734375 476.128906 481.050781 476.128906 C 482.367188 476.128906 481.050781 476.128906 482.367188 476.128906 C 487.636719 476.128906 494.21875 476.128906 499.488281 481.019531 C 502.121094 482.648438 503.441406 485.910156 504.757812 489.171875 C 506.074219 490.800781 508.707031 494.0625 508.707031 498.957031 C 508.707031 505.476562 504.757812 508.738281 502.121094 512 C 496.855469 518.523438 490.269531 523.414062 485 529.9375 C 485 529.9375 482.367188 529.9375 481.050781 529.9375 C 478.417969 529.9375 473.148438 528.304688 470.515625 525.042969 C 467.878906 521.785156 467.878906 516.890625 469.199219 513.628906 Z M 384.910156 425.578125 C 384.910156 423.949219 387.542969 422.320312 388.859375 420.6875 C 391.496094 415.796875 395.445312 410.90625 399.394531 406.011719 C 412.566406 391.335938 431.003906 389.707031 450.757812 389.707031 C 450.757812 389.707031 450.757812 389.707031 452.078125 389.707031 C 454.710938 389.707031 457.34375 389.707031 458.660156 391.335938 C 462.613281 394.597656 463.929688 399.492188 463.929688 406.011719 C 463.929688 423.949219 465.246094 432.101562 465.246094 450.039062 C 465.246094 450.039062 465.246094 453.300781 465.246094 454.929688 C 465.246094 459.820312 461.296875 464.714844 457.34375 464.714844 C 457.34375 464.714844 456.027344 464.714844 454.710938 464.714844 C 450.757812 464.714844 449.441406 464.714844 446.808594 463.082031 C 445.492188 463.082031 442.859375 463.082031 440.222656 463.082031 C 437.589844 463.082031 440.222656 463.082031 440.222656 463.082031 C 432.320312 463.082031 427.054688 469.605469 420.46875 476.128906 C 417.835938 479.386719 416.515625 481.019531 413.882812 482.648438 C 413.882812 482.648438 411.25 482.648438 411.25 482.648438 C 407.296875 482.648438 403.347656 481.019531 400.714844 477.757812 C 391.496094 471.234375 384.910156 463.082031 379.640625 453.300781 C 373.054688 441.886719 379.640625 433.734375 384.910156 425.578125 Z M 444.175781 546.242188 L 434.957031 546.242188 C 431.003906 546.242188 427.054688 546.242188 424.417969 546.242188 C 421.785156 546.242188 417.835938 546.242188 415.199219 546.242188 C 412.566406 546.242188 409.933594 546.242188 408.617188 542.980469 C 404.664062 539.71875 404.664062 533.199219 404.664062 528.304688 C 404.664062 520.152344 405.980469 513.628906 409.933594 510.371094 C 412.566406 505.476562 417.835938 502.214844 423.101562 502.214844 C 428.371094 502.214844 424.417969 502.214844 425.738281 502.214844 C 431.003906 502.214844 433.636719 507.109375 437.589844 512 C 438.90625 513.628906 441.539062 516.890625 442.859375 518.523438 C 442.859375 518.523438 454.710938 526.675781 456.027344 536.457031 C 456.027344 539.71875 456.027344 542.980469 453.394531 544.613281 C 450.757812 547.871094 448.125 547.871094 445.492188 547.871094 Z M 449.441406 559.285156 C 449.441406 564.179688 446.808594 567.441406 444.175781 569.070312 C 442.859375 569.070312 441.539062 572.332031 438.90625 575.59375 C 438.90625 575.59375 437.589844 578.851562 436.273438 580.484375 C 434.957031 582.113281 433.636719 583.746094 432.320312 585.375 L 427.054688 591.898438 C 425.738281 593.527344 423.101562 596.789062 420.46875 596.789062 C 420.46875 596.789062 419.152344 596.789062 417.835938 596.789062 C 415.199219 596.789062 412.566406 596.789062 409.933594 593.527344 C 407.296875 590.265625 404.664062 587.007812 403.347656 583.746094 C 402.03125 580.484375 400.714844 577.222656 399.394531 572.332031 C 399.394531 567.441406 399.394531 562.546875 402.03125 559.285156 C 404.664062 554.394531 409.933594 554.394531 413.882812 552.765625 C 415.199219 552.765625 420.46875 552.765625 425.738281 552.765625 C 446.808594 552.765625 448.125 557.65625 449.441406 560.917969 Z M 437.589844 502.214844 C 432.320312 495.695312 432.320312 494.0625 434.957031 485.910156 C 436.273438 481.019531 440.222656 476.128906 444.175781 472.867188 C 446.808594 472.867188 449.441406 471.234375 452.078125 471.234375 C 454.710938 471.234375 457.34375 471.234375 459.976562 471.234375 C 459.976562 471.234375 462.613281 471.234375 463.929688 472.867188 C 465.246094 474.496094 465.246094 477.757812 465.246094 479.386719 L 465.246094 520.152344 C 465.246094 525.042969 465.246094 526.675781 461.296875 528.304688 C 458.660156 528.304688 457.34375 526.675781 457.34375 525.042969 L 438.90625 500.585938 Z M 324.328125 513.628906 C 324.328125 498.957031 324.328125 485.910156 330.914062 474.496094 C 333.546875 469.605469 336.179688 466.34375 340.132812 463.082031 C 344.082031 461.453125 346.714844 459.820312 350.667969 459.820312 C 361.203125 459.820312 370.421875 467.972656 378.324219 476.128906 L 394.128906 490.800781 C 398.078125 494.0625 398.078125 500.585938 396.761719 505.476562 C 394.128906 510.371094 391.496094 518.523438 391.496094 518.523438 C 390.175781 525.042969 391.496094 531.566406 391.496094 538.089844 C 391.496094 538.089844 391.496094 541.351562 391.496094 542.980469 C 391.496094 547.871094 391.496094 551.132812 390.175781 554.394531 C 388.859375 556.027344 386.226562 557.65625 383.59375 557.65625 C 380.957031 557.65625 380.957031 557.65625 379.640625 557.65625 C 373.054688 557.65625 367.789062 557.65625 361.203125 556.027344 C 358.570312 556.027344 355.933594 556.027344 351.984375 556.027344 C 346.714844 556.027344 338.8125 556.027344 333.546875 549.503906 C 325.644531 541.351562 324.328125 528.304688 324.328125 515.261719 Z M 363.835938 644.078125 C 361.203125 644.078125 359.886719 647.335938 357.253906 647.335938 C 354.617188 647.335938 351.984375 647.335938 350.667969 644.078125 C 337.496094 632.664062 329.59375 614.726562 330.914062 593.527344 C 330.914062 577.222656 336.179688 565.808594 344.082031 560.917969 C 348.035156 559.285156 351.984375 559.285156 355.933594 559.285156 C 359.886719 559.285156 355.933594 559.285156 357.253906 559.285156 L 386.226562 559.285156 C 387.542969 559.285156 391.496094 559.285156 392.8125 562.546875 C 392.8125 562.546875 392.8125 565.808594 392.8125 567.441406 C 392.8125 569.070312 392.8125 572.332031 392.8125 573.960938 C 392.8125 578.851562 392.8125 583.746094 392.8125 587.007812 C 392.8125 591.898438 394.128906 595.160156 396.761719 598.421875 C 399.394531 603.3125 399.394531 609.835938 396.761719 613.09375 C 386.226562 624.507812 374.375 634.292969 362.519531 642.445312 Z M 458.660156 689.734375 C 457.34375 694.625 453.394531 696.253906 449.441406 699.515625 C 445.492188 701.148438 440.222656 704.40625 434.957031 704.40625 C 434.957031 704.40625 434.957031 704.40625 433.636719 704.40625 C 431.003906 704.40625 428.371094 704.40625 425.738281 704.40625 C 423.101562 704.40625 419.152344 704.40625 416.515625 704.40625 C 405.980469 704.40625 394.128906 701.148438 386.226562 691.363281 C 380.957031 684.839844 378.324219 678.320312 374.375 671.796875 C 374.375 670.164062 371.738281 666.90625 371.738281 665.273438 C 371.738281 660.382812 374.375 657.121094 378.324219 653.859375 L 402.03125 632.664062 C 405.980469 627.769531 412.566406 624.507812 417.835938 624.507812 C 423.101562 624.507812 420.46875 624.507812 421.785156 624.507812 C 424.417969 624.507812 427.054688 627.769531 428.371094 629.402344 C 428.371094 629.402344 428.371094 629.402344 431.003906 631.03125 C 436.273438 635.921875 444.175781 637.554688 449.441406 639.183594 C 454.710938 639.183594 458.660156 645.707031 457.34375 650.597656 C 457.34375 660.382812 457.34375 671.796875 458.660156 681.578125 C 458.660156 684.839844 458.660156 689.734375 458.660156 692.992188 Z M 462.613281 616.355469 C 462.613281 617.988281 462.613281 621.25 459.976562 622.878906 C 459.976562 622.878906 457.34375 622.878906 456.027344 622.878906 C 454.710938 622.878906 454.710938 622.878906 453.394531 622.878906 C 448.125 622.878906 442.859375 619.617188 438.90625 617.988281 C 436.273438 617.988281 429.6875 614.726562 428.371094 606.574219 C 428.371094 600.050781 432.320312 593.527344 433.636719 591.898438 C 437.589844 587.007812 440.222656 582.113281 442.859375 578.851562 C 445.492188 573.960938 448.125 569.070312 452.078125 564.179688 C 452.078125 564.179688 453.394531 562.546875 454.710938 560.917969 C 454.710938 560.917969 454.710938 560.917969 456.027344 560.917969 C 456.027344 560.917969 458.660156 560.917969 458.660156 560.917969 C 463.929688 564.179688 466.5625 572.332031 466.5625 582.113281 C 466.5625 593.527344 463.929688 604.941406 461.296875 614.726562 Z M 458.660156 549.503906 C 458.660156 542.980469 459.976562 538.089844 463.929688 534.828125 C 463.929688 534.828125 466.5625 531.566406 467.878906 531.566406 C 467.878906 531.566406 469.199219 531.566406 470.515625 531.566406 C 475.78125 531.566406 481.050781 534.828125 482.367188 541.351562 C 482.367188 544.613281 482.367188 547.871094 482.367188 552.765625 C 482.367188 551.132812 485 549.503906 486.320312 547.871094 C 486.320312 547.871094 488.953125 547.871094 491.585938 547.871094 C 494.21875 547.871094 496.855469 547.871094 499.488281 547.871094 C 502.121094 547.871094 504.757812 547.871094 508.707031 547.871094 C 516.609375 547.871094 525.828125 549.503906 531.097656 557.65625 C 531.097656 557.65625 532.414062 560.917969 532.414062 564.179688 C 532.414062 570.699219 528.460938 583.746094 525.828125 587.007812 C 524.511719 588.636719 521.878906 590.265625 520.558594 590.265625 C 519.242188 590.265625 516.609375 590.265625 513.976562 588.636719 C 508.707031 585.375 504.757812 582.113281 500.804688 578.851562 C 498.171875 575.59375 494.21875 573.960938 490.269531 572.332031 C 490.269531 572.332031 490.269531 572.332031 488.953125 572.332031 C 486.320312 572.332031 483.683594 569.070312 482.367188 564.179688 C 482.367188 560.917969 482.367188 557.65625 482.367188 556.027344 C 481.050781 559.285156 478.417969 560.917969 477.097656 562.546875 C 475.78125 562.546875 474.464844 562.546875 473.148438 562.546875 C 471.832031 562.546875 471.832031 562.546875 470.515625 562.546875 C 466.5625 562.546875 461.296875 559.285156 459.976562 552.765625 Z M 471.832031 570.699219 C 473.148438 569.070312 474.464844 567.441406 477.097656 567.441406 C 483.683594 567.441406 492.902344 575.59375 499.488281 580.484375 C 500.804688 580.484375 502.121094 582.113281 503.441406 583.746094 C 507.390625 587.007812 512.660156 590.265625 512.660156 596.789062 C 512.660156 601.679688 511.339844 604.941406 510.023438 608.203125 C 503.441406 619.617188 492.902344 626.140625 481.050781 626.140625 C 479.734375 626.140625 477.097656 626.140625 474.464844 624.507812 C 471.832031 622.878906 471.832031 617.988281 471.832031 616.355469 L 469.199219 582.113281 C 469.199219 577.222656 469.199219 573.960938 470.515625 572.332031 Z M 549.535156 697.886719 C 540.316406 704.40625 531.097656 706.039062 520.558594 707.667969 C 515.292969 707.667969 508.707031 707.667969 503.441406 707.667969 C 498.171875 707.667969 487.636719 707.667969 482.367188 702.777344 C 479.734375 702.777344 477.097656 699.515625 475.78125 696.253906 C 474.464844 692.992188 474.464844 689.734375 475.78125 686.472656 C 475.78125 681.578125 475.78125 676.6875 475.78125 671.796875 C 475.78125 662.011719 475.78125 652.230469 475.78125 642.445312 C 475.78125 637.554688 479.734375 632.664062 483.683594 632.664062 C 487.636719 632.664062 485 632.664062 486.320312 632.664062 C 490.269531 632.664062 495.539062 635.921875 499.488281 635.921875 C 507.390625 635.921875 512.660156 632.664062 517.925781 624.507812 C 517.925781 624.507812 519.242188 621.25 521.878906 621.25 C 521.878906 621.25 523.195312 621.25 524.511719 621.25 C 527.144531 621.25 529.78125 622.878906 531.097656 624.507812 C 539 634.292969 549.535156 640.816406 560.070312 647.335938 C 561.386719 647.335938 564.023438 648.96875 565.339844 652.230469 C 567.972656 655.492188 569.289062 660.382812 569.289062 665.273438 C 569.289062 679.949219 560.070312 691.363281 552.167969 696.253906 Z M 598.261719 637.554688 C 598.261719 637.554688 598.261719 639.183594 596.945312 640.816406 C 596.945312 640.816406 595.628906 644.078125 592.996094 645.707031 C 590.363281 647.335938 587.726562 648.96875 583.777344 648.96875 C 579.824219 648.96875 574.558594 647.335938 567.972656 644.078125 C 560.070312 639.183594 552.167969 632.664062 544.265625 626.140625 C 540.316406 622.878906 537.679688 619.617188 535.046875 616.355469 C 532.414062 611.464844 532.414062 604.941406 535.046875 600.050781 C 535.046875 598.421875 537.679688 596.789062 539 595.160156 C 539 595.160156 539 595.160156 540.316406 593.527344 C 545.582031 587.007812 544.265625 577.222656 544.265625 570.699219 C 544.265625 569.070312 544.265625 565.808594 544.265625 562.546875 C 545.582031 557.65625 549.535156 557.65625 553.484375 556.027344 C 556.121094 556.027344 560.070312 556.027344 562.703125 554.394531 C 569.289062 554.394531 574.558594 551.132812 581.144531 551.132812 C 587.726562 551.132812 586.410156 551.132812 589.042969 551.132812 C 596.945312 552.765625 602.214844 557.65625 606.164062 564.179688 C 607.484375 567.441406 608.800781 572.332031 610.117188 575.59375 C 615.382812 604.941406 611.433594 621.25 598.261719 635.921875 Z M 602.214844 538.089844 C 602.214844 539.71875 599.582031 542.980469 596.945312 544.613281 C 595.628906 544.613281 592.996094 544.613281 591.679688 544.613281 L 549.535156 544.613281 C 546.902344 546.242188 544.265625 544.613281 542.949219 542.980469 C 541.632812 541.351562 541.632812 538.089844 542.949219 534.828125 C 544.265625 528.304688 544.265625 520.152344 542.949219 513.628906 C 542.949219 508.738281 540.316406 507.109375 539 503.847656 C 537.679688 502.214844 535.046875 500.585938 531.097656 498.957031 C 529.78125 498.957031 528.460938 498.957031 527.144531 497.324219 C 524.511719 497.324219 523.195312 492.433594 523.195312 489.171875 C 523.195312 485.910156 523.195312 482.648438 525.828125 481.019531 L 553.484375 453.300781 C 556.121094 450.039062 560.070312 446.777344 564.023438 446.777344 C 564.023438 446.777344 565.339844 446.777344 566.65625 446.777344 C 569.289062 446.777344 571.921875 446.777344 574.558594 446.777344 C 590.363281 446.777344 594.3125 453.300781 602.214844 464.714844 L 602.214844 467.972656 C 606.164062 471.234375 610.117188 482.648438 611.433594 484.28125 C 611.433594 484.28125 611.433594 485.910156 611.433594 487.542969 C 611.433594 490.800781 612.75 492.433594 612.75 495.695312 C 611.433594 508.738281 608.800781 525.042969 600.898438 538.089844 Z M 602.214844 538.089844 "/>
<path style=" stroke:none;fill-rule:nonzero;fill:rgb(79.215688%,44.313726%,44.705883%);fill-opacity:1;" d="M 805.03125 652.230469 C 803.714844 652.230469 790.546875 644.078125 785.277344 642.445312 C 777.375 639.183594 768.15625 634.292969 760.253906 629.402344 C 743.132812 616.355469 729.964844 593.527344 720.746094 559.285156 C 716.792969 544.613281 714.160156 528.304688 711.527344 513.628906 C 708.890625 500.585938 707.574219 487.542969 703.625 476.128906 C 691.769531 425.578125 666.746094 378.292969 635.140625 344.050781 C 623.285156 331.007812 611.433594 322.851562 600.898438 316.332031 C 596.945312 313.070312 591.679688 311.441406 587.726562 308.179688 C 579.824219 303.285156 571.921875 296.765625 564.023438 295.132812 C 550.851562 290.242188 536.363281 288.613281 523.195312 285.351562 C 512.660156 283.71875 500.804688 282.089844 488.953125 278.828125 C 483.683594 278.828125 477.097656 275.566406 470.515625 275.566406 C 463.929688 275.566406 470.515625 275.566406 469.199219 275.566406 C 463.929688 275.566406 458.660156 277.199219 453.394531 278.828125 C 450.757812 278.828125 449.441406 278.828125 446.808594 280.457031 C 440.222656 280.457031 434.957031 282.089844 428.371094 283.71875 C 424.417969 283.71875 419.152344 283.71875 415.199219 285.351562 C 387.542969 290.242188 361.203125 306.546875 333.546875 334.265625 C 307.207031 360.355469 287.453125 384.816406 274.28125 407.644531 C 270.332031 414.164062 267.695312 422.320312 269.011719 425.578125 C 269.011719 425.578125 271.648438 427.210938 272.964844 427.210938 C 272.964844 427.210938 272.964844 427.210938 274.28125 427.210938 C 279.550781 427.210938 283.5 417.425781 286.132812 409.273438 C 287.453125 404.382812 288.769531 401.121094 290.085938 397.859375 C 307.207031 368.507812 325.644531 350.574219 350.667969 334.265625 C 354.617188 331.007812 365.15625 319.59375 370.421875 314.699219 C 370.421875 314.699219 371.738281 313.070312 373.054688 313.070312 C 375.691406 309.808594 382.273438 308.179688 386.226562 306.546875 C 386.226562 306.546875 388.859375 306.546875 390.175781 306.546875 C 415.199219 296.765625 434.957031 288.613281 458.660156 288.613281 C 482.367188 288.613281 469.199219 288.613281 474.464844 288.613281 C 492.902344 290.242188 512.660156 293.503906 529.78125 298.394531 C 557.4375 308.179688 586.410156 324.484375 620.652344 353.835938 C 649.625 378.292969 672.015625 415.796875 685.1875 456.558594 C 690.453125 472.867188 693.085938 490.800781 695.722656 507.109375 C 695.722656 512 697.039062 516.890625 698.355469 521.785156 C 704.941406 556.027344 715.476562 595.160156 736.546875 622.878906 C 743.132812 631.03125 751.035156 639.183594 758.9375 645.707031 C 772.109375 658.75 793.179688 666.90625 806.351562 671.796875 C 811.617188 673.425781 822.152344 675.058594 830.054688 676.6875 L 830.054688 663.644531 C 816.886719 662.011719 811.617188 657.121094 802.398438 653.859375 Z M 805.03125 652.230469 "/>
<path style=" stroke:none;fill-rule:nonzero;fill:rgb(79.215688%,44.313726%,44.705883%);fill-opacity:1;" d="M 141.265625 345.679688 C 143.898438 345.679688 146.53125 347.3125 147.847656 348.941406 C 192.628906 370.140625 224.234375 397.859375 242.671875 433.734375 C 255.84375 458.191406 271.648438 495.695312 276.914062 534.828125 C 278.230469 546.242188 279.550781 557.65625 279.550781 569.070312 C 280.867188 593.527344 283.5 616.355469 292.71875 637.554688 C 299.304688 653.859375 312.472656 678.320312 329.59375 697.886719 C 344.082031 714.191406 358.570312 725.605469 371.738281 732.128906 C 386.226562 738.648438 400.714844 741.910156 415.199219 745.171875 C 432.320312 748.433594 446.808594 750.0625 463.929688 750.0625 C 487.636719 750.0625 512.660156 746.800781 539 741.910156 C 570.605469 737.019531 595.628906 699.515625 616.703125 668.535156 C 619.335938 665.273438 620.652344 662.011719 623.285156 658.75 C 628.554688 650.597656 633.824219 640.816406 632.503906 632.664062 C 627.238281 632.664062 623.285156 642.445312 619.335938 650.597656 C 614.066406 665.273438 604.847656 675.058594 596.945312 684.839844 C 586.410156 697.886719 577.191406 709.300781 564.023438 719.082031 C 545.582031 732.128906 523.195312 735.386719 503.441406 737.019531 C 487.636719 737.019531 474.464844 738.648438 461.296875 738.648438 C 427.054688 738.648438 399.394531 732.128906 375.691406 719.082031 C 350.667969 704.40625 326.960938 679.949219 301.9375 640.816406 C 297.988281 634.292969 292.71875 626.140625 291.402344 617.988281 C 288.769531 609.835938 288.769531 600.050781 288.769531 590.265625 C 288.769531 529.9375 278.230469 481.019531 257.160156 443.515625 C 250.574219 432.101562 242.671875 420.6875 234.769531 410.90625 C 220.285156 392.96875 203.164062 371.769531 183.40625 353.835938 C 171.554688 344.050781 149.167969 324.484375 134.679688 324.484375 C 120.191406 324.484375 132.046875 324.484375 132.046875 324.484375 C 129.410156 324.484375 125.460938 327.746094 124.144531 331.007812 C 124.144531 331.007812 124.144531 332.636719 124.144531 334.265625 C 124.144531 335.898438 137.3125 340.789062 142.582031 342.421875 Z M 141.265625 345.679688 "/>
<path style=" stroke:none;fill-rule:nonzero;fill:rgb(79.215688%,44.313726%,44.705883%);fill-opacity:1;" d="M 142.582031 376.664062 C 204.480469 401.121094 251.890625 477.757812 259.792969 560.917969 C 259.792969 567.441406 259.792969 573.960938 259.792969 580.484375 C 259.792969 598.421875 262.429688 617.988281 267.695312 635.921875 C 269.011719 640.816406 271.648438 644.078125 272.964844 648.96875 C 275.597656 653.859375 278.230469 658.75 279.550781 665.273438 C 279.550781 666.90625 279.550781 670.164062 280.867188 671.796875 C 280.867188 676.6875 283.5 681.578125 286.132812 684.839844 C 288.769531 689.734375 294.035156 694.625 297.988281 697.886719 C 330.914062 728.867188 367.789062 763.109375 409.933594 774.523438 C 420.46875 777.785156 433.636719 779.414062 446.808594 779.414062 C 461.296875 779.414062 475.78125 779.414062 492.902344 776.152344 C 511.339844 774.523438 531.097656 771.261719 550.851562 764.738281 L 623.285156 710.929688 C 636.457031 696.253906 649.625 681.578125 650.945312 660.382812 C 650.945312 660.382812 648.308594 660.382812 646.992188 660.382812 C 641.726562 660.382812 635.140625 666.90625 627.238281 679.949219 C 604.847656 719.082031 569.289062 748.433594 532.414062 759.847656 C 516.609375 764.738281 499.488281 766.371094 475.78125 766.371094 C 452.078125 766.371094 458.660156 766.371094 449.441406 766.371094 C 433.636719 766.371094 416.515625 766.371094 400.714844 759.847656 C 387.542969 754.957031 374.375 748.433594 362.519531 741.910156 C 341.449219 730.496094 316.425781 715.820312 300.621094 691.363281 C 286.132812 670.164062 280.867188 642.445312 276.914062 621.25 C 274.28125 604.941406 271.648438 588.636719 270.332031 572.332031 C 265.0625 528.304688 258.476562 484.28125 238.722656 448.40625 C 216.332031 407.644531 178.140625 383.183594 142.582031 361.988281 C 138.628906 358.726562 132.046875 355.464844 128.09375 355.464844 C 124.144531 355.464844 125.460938 355.464844 125.460938 355.464844 C 125.460938 355.464844 125.460938 358.726562 125.460938 360.355469 C 125.460938 368.507812 139.945312 373.402344 145.214844 376.664062 Z M 142.582031 376.664062 "/>
<path style=" stroke:none;fill-rule:nonzero;fill:rgb(79.215688%,44.313726%,44.705883%);fill-opacity:1;" d="M 666.746094 683.210938 C 666.746094 683.210938 665.429688 683.210938 664.113281 684.839844 C 657.527344 692.992188 650.945312 702.777344 645.675781 710.929688 C 639.089844 722.34375 632.503906 735.386719 621.96875 743.542969 C 612.75 751.695312 602.214844 754.957031 592.996094 759.847656 C 587.726562 761.476562 583.777344 763.109375 578.507812 766.371094 C 573.242188 769.628906 567.972656 772.890625 562.703125 776.152344 C 556.121094 781.042969 548.21875 784.304688 540.316406 787.566406 C 527.144531 792.457031 513.976562 794.089844 500.804688 795.71875 C 485 795.71875 467.878906 798.980469 450.757812 798.980469 C 433.636719 798.980469 416.515625 797.351562 402.03125 792.457031 C 374.375 784.304688 349.351562 766.371094 326.960938 748.433594 C 315.109375 740.28125 304.574219 732.128906 295.351562 720.714844 C 275.597656 697.886719 261.109375 660.382812 253.210938 616.355469 C 250.574219 603.3125 249.257812 590.265625 247.941406 577.222656 C 245.308594 552.765625 242.671875 529.9375 236.089844 508.738281 C 225.550781 472.867188 205.796875 441.886719 180.773438 417.425781 C 167.605469 406.011719 154.433594 396.230469 139.945312 389.707031 C 139.945312 389.707031 138.628906 389.707031 137.3125 389.707031 C 133.363281 388.078125 128.09375 384.816406 125.460938 384.816406 C 122.824219 384.816406 122.824219 384.816406 122.824219 384.816406 C 122.824219 384.816406 122.824219 384.816406 122.824219 386.445312 C 124.144531 389.707031 130.726562 394.597656 135.996094 397.859375 C 188.675781 422.320312 229.503906 484.28125 237.40625 554.394531 C 237.40625 562.546875 238.722656 570.699219 238.722656 578.851562 C 238.722656 588.636719 238.722656 598.421875 241.355469 608.203125 C 245.308594 632.664062 251.890625 653.859375 261.109375 678.320312 C 267.695312 696.253906 276.914062 720.714844 290.085938 737.019531 C 301.9375 751.695312 319.058594 761.476562 334.863281 769.628906 C 348.035156 777.785156 361.203125 784.304688 374.375 790.828125 C 384.910156 795.71875 396.761719 798.980469 409.933594 802.242188 C 427.054688 805.503906 444.175781 808.765625 461.296875 808.765625 C 531.097656 808.765625 600.898438 776.152344 653.578125 720.714844 C 661.480469 712.558594 670.699219 701.148438 669.382812 688.101562 C 669.382812 684.839844 668.066406 681.578125 666.746094 681.578125 Z M 666.746094 683.210938 "/>
</g>
</svg>
