<?xml version="1.0" encoding="UTF-8" standalone="no"?>
<svg
   version="1.1"
   viewBox="122.82 275.57 709.87 533.2"
   height="769"
   width="1024"
   id="svg7"
   xmlns="http://www.w3.org/2000/svg"
   xmlns:svg="http://www.w3.org/2000/svg">
  <defs
     id="defs7" />
  <g
     id="surface1">
    <path
       style="fill:#ca7070;fill-opacity:1;fill-rule:nonzero;stroke:none"
       d="m 818.20312,689.73437 c -2.63281,-3.26171 -6.58593,-4.89453 -13.17187,-6.52343 -50.04297,-11.41407 -92.1875,-57.07032 -109.30859,-115.76953 -5.26954,-17.9375 -7.90235,-35.875 -10.53516,-53.8125 -2.63672,-16.30469 -5.26953,-32.60938 -9.22266,-48.91407 -14.48437,-52.17968 -47.41015,-97.83593 -93.5039,-127.1875 -38.19532,-24.45703 -84.28907,-35.87109 -138.28516,-37.5 h -15.80469 c -6.58593,1.62891 -11.85547,6.51953 -17.12109,9.78125 l -69.80078,50.54688 c -15.80469,11.41406 -26.33985,24.46094 -38.19531,40.76562 l -2.63282,3.26172 c -6.58593,8.15235 -28.97265,34.24219 -22.39062,44.02344 h 2.63672 c 5.26562,0 14.48437,-19.56641 18.4375,-29.34766 2.63281,-4.89453 3.94922,-8.15234 5.26953,-9.78515 11.85156,-17.9375 26.33984,-34.24219 44.77734,-47.28516 25.02344,-19.56641 52.67969,-30.98047 80.33594,-44.02734 7.90234,-3.26172 17.12109,-8.15235 26.33984,-9.78125 h 7.90235 c 10.53515,0 22.39062,3.26172 32.92578,6.51953 9.21875,3.26172 18.4375,4.89453 27.65625,8.15234 56.63281,17.9375 100.09375,55.44141 125.11328,107.6211 14.48828,30.98046 19.75781,63.58984 25.02344,99.46484 0,8.15234 2.63672,16.30469 3.95312,22.82812 7.90235,44.02344 27.65625,84.78907 53.9961,107.61719 7.90234,6.52344 18.4375,13.04297 27.65625,17.9375 l 36.875,21.19531 c 2.63671,1.63282 23.70703,6.52344 32.92578,8.15235 V 694.625 c -6.58203,-3.26172 -11.85157,-4.89063 -13.16797,-6.52344 z m 0,0"
       id="path1" />
    <path
       style="fill:#ca7070;fill-opacity:1;fill-rule:nonzero;stroke:none"
       d="m 785.27734,717.45312 h -3.94922 c -28.97656,-4.89453 -57.94921,-27.71875 -80.33984,-58.70312 -18.4375,-27.71875 -31.60547,-63.58984 -39.50781,-105.98438 -2.63672,-11.41406 -3.95313,-22.82812 -5.26953,-32.61328 -3.94922,-24.45703 -7.90235,-48.91797 -15.80469,-71.74609 -21.07031,-57.07031 -69.80078,-101.09375 -130.38281,-115.76953 -13.16797,-3.26172 -23.70313,-4.89063 -34.24219,-4.89063 -10.53516,0 -15.80469,0 -23.70313,3.26172 -15.80468,3.25781 -31.60937,13.04297 -43.46093,19.56641 -25.02344,13.04297 -48.73047,27.71875 -68.48438,45.65625 -15.80469,14.67578 -36.8789,40.76172 -44.78125,75.0039 0,4.89454 1.32031,24.46094 3.95313,32.61329 9.21875,-34.24219 14.48828,-47.28907 17.12109,-55.44141 18.4375,-47.28516 69.80078,-97.83203 144.87109,-101.09375 h 3.94922 c 17.1211,0 35.5586,4.89062 52.67969,9.78125 2.63281,0 5.26953,0 6.58594,1.63281 10.53515,3.26172 21.07031,6.52344 31.60937,11.41406 39.50782,19.56641 69.80078,68.48438 89.55469,140.23047 2.63281,8.15235 5.26953,17.9336 5.26953,29.34766 v 47.28906 c 0,16.30469 6.58203,32.60938 17.1211,52.17578 10.53515,17.9375 22.38671,32.61328 35.55859,45.65625 31.60547,29.35157 71.11719,45.65625 105.35937,58.70313 h 23.70704 v -14.67578 c -22.39063,-4.89453 -43.46094,-9.78516 -46.09766,-9.78516 z m 0,0"
       id="path2" />
    <path
       style="fill:#ca7070;fill-opacity:1;fill-rule:nonzero;stroke:none"
       d="m 595.62891,443.51562 c -2.63282,-1.6289 -6.58594,-3.26171 -9.21875,-6.52343 -5.26563,-3.25782 -11.85157,-6.51953 -15.80469,-11.41407 -2.63281,-3.25781 -3.94922,-8.15234 -6.58203,-13.04296 0,-1.62891 -2.63672,-4.89063 -2.63672,-6.52344 -10.53516,-21.19531 -36.875,-37.50391 -59.26563,-37.50391 -22.38672,0 -7.90234,0 -11.85156,1.63281 -3.94922,0 -6.58594,1.62891 -9.21875,3.26172 -5.26953,1.62891 -9.21875,4.89063 -14.48828,4.89063 h -2.63281 c -6.58594,0 -15.80469,-3.26172 -23.70703,-4.89063 h -9.21875 c -25.02344,0 -46.09375,22.82813 -65.84766,68.48438 -3.95313,8.15234 -10.53906,8.15234 -14.48828,8.15234 h -5.26953 c -5.26563,0 -9.21875,0 -11.85157,6.51953 -2.63281,3.26172 -3.95312,6.52344 -5.26953,9.78516 -5.26562,6.52344 -6.58593,11.41406 -10.53515,22.82812 -2.63282,9.78516 -5.26953,32.61329 -3.94922,39.13282 v 6.52343 c 0,9.78516 2.63281,22.82813 14.48437,24.45704 h 2.63672 v 3.26171 c -10.53906,42.39454 -6.58594,71.7461 9.21875,83.16016 l 7.90235,4.89063 c 2.63281,1.63281 6.58203,3.26171 9.21875,6.52343 2.63281,1.62891 6.58203,8.15235 9.21875,14.67578 1.3164,3.26172 3.94921,6.52344 5.26562,8.15235 l 2.63672,4.89062 c 14.48437,17.9375 19.75391,24.46094 40.82422,30.98047 3.95312,0 9.21875,1.63281 13.17187,1.63281 9.21875,0 15.80469,-3.26171 22.38672,-6.52343 5.26953,-3.26172 9.21875,-4.89063 14.48828,-4.89063 h 6.58594 c 6.58594,6.51953 19.75391,11.41406 36.875,11.41406 27.65625,0 60.58203,-11.41406 67.16797,-30.98046 0,-3.26172 1.31641,-4.89454 2.63281,-8.15235 1.31641,-6.52344 3.95313,-14.67578 9.21875,-17.9375 2.63672,-3.26172 6.58594,-3.26172 9.21875,-4.89062 1.31641,0 3.95313,0 5.26953,-1.63282 7.90235,-4.89062 13.16797,-14.67578 15.80469,-21.19531 6.58594,-17.9375 7.90234,-37.5039 3.94922,-57.07031 0,-1.63281 0,-4.89453 -1.31641,-8.15234 -1.3164,-6.52344 -2.63281,-11.41407 -3.94922,-17.9375 0,-11.41407 1.31641,-21.19922 3.94922,-29.35157 7.90235,-34.24218 0,-60.33203 -22.39062,-78.26562 z M 485,388.07812 c 3.95312,-3.26171 9.21875,-6.52343 15.80469,-6.52343 11.85547,0 26.33984,6.52343 32.92578,14.67578 9.21875,9.78125 17.12109,22.82812 18.4375,37.5039 v 14.67188 c -1.31641,4.89453 -5.26563,8.15234 -7.90235,11.41406 l -22.38671,21.19922 c 0,0 -2.63672,1.62891 -3.95313,1.62891 -1.31641,0 -2.63281,-3.26172 -2.63281,-3.26172 -3.95313,-9.78125 -15.80469,-13.04297 -22.39063,-13.04297 -1.3164,0 -3.94922,0 -6.58203,-1.62891 -3.95312,-3.26172 -3.95312,-8.15625 -3.95312,-11.41406 l -2.63282,-30.98047 c 0,-13.04687 -1.3164,-27.72265 6.58594,-35.875 z m 36.87891,115.76954 h 3.94921 c 3.95313,1.6289 5.26954,4.89062 7.90235,8.15234 1.3164,3.26172 3.94922,6.52344 3.94922,11.41406 0,3.26172 0,4.89063 -1.31641,6.52344 l -2.63281,6.51953 c 0,0 0,3.26172 -2.63281,4.89453 -2.63672,1.62891 -5.26954,1.62891 -6.58594,1.62891 h -21.07031 c -2.63672,0 -6.58594,0 -10.53907,-1.62891 -2.63281,-1.63281 -5.26562,-4.89453 -5.26562,-8.15234 0,-8.15625 9.21875,-14.67578 21.07031,-22.82813 1.31641,0 2.63281,-1.63281 3.95313,-3.26172 3.94921,-3.26171 7.89843,-4.89453 11.85156,-4.89453 z m -51.36329,9.78125 v -3.25782 c 0,-8.15625 0,-16.30859 1.31641,-22.82812 0,-3.26172 0,-8.15625 3.94922,-9.78516 1.31641,0 3.95312,-1.6289 5.26953,-1.6289 h 1.31641 c 5.26953,0 11.85156,0 17.12109,4.89062 2.63281,1.62891 3.95313,4.89063 5.26953,8.15234 1.31641,1.62891 3.94922,4.89063 3.94922,9.78516 0,6.51953 -3.94922,9.78125 -6.58594,13.04297 -5.26562,6.52344 -11.85156,11.41406 -17.12109,17.9375 h -3.94922 c -2.63281,0 -7.90234,-1.63281 -10.53516,-4.89453 -2.63671,-3.25781 -2.63671,-8.15235 -1.3164,-11.41406 z m -85.60546,-88.05079 c 0,-1.6289 2.63281,-3.25781 3.94921,-4.89062 2.63672,-4.89063 6.58594,-9.78125 10.53516,-14.67578 13.17188,-14.67578 31.60938,-16.30469 51.36328,-16.30469 h 1.32031 c 2.63282,0 5.26563,0 6.58204,1.62891 3.95312,3.26172 5.26953,8.15625 5.26953,14.67578 0,17.9375 1.3164,26.08984 1.3164,44.02734 v 4.89063 c 0,4.89062 -3.94922,9.78515 -7.90234,9.78515 h -2.63281 c -3.95313,0 -5.26953,0 -7.90235,-1.63281 h -6.58593 c -2.63282,0 0,0 0,0 -7.90235,0 -13.16797,6.52344 -19.75391,13.04688 -2.63281,3.25781 -3.95313,4.89062 -6.58594,6.51953 H 411.25 c -3.95313,0 -7.90234,-1.62891 -10.53516,-4.89063 -9.21875,-6.52344 -15.80468,-14.67578 -21.07422,-24.45703 -6.58593,-11.41406 0,-19.56641 5.26954,-27.72266 z m 59.26562,120.66407 h -28.97656 c -2.63281,0 -5.26563,0 -6.58203,-3.26172 -3.95313,-3.26172 -3.95313,-9.78125 -3.95313,-14.67578 0,-8.15235 1.31641,-14.67578 5.26953,-17.9336 2.63282,-4.89453 7.90235,-8.15625 13.16797,-8.15625 h 2.63672 c 5.26563,0 7.89844,4.89453 11.85156,9.78516 l 5.26953,6.52344 c 0,0 11.85157,8.15234 13.16797,17.93359 0,3.26172 0,6.52344 -2.63281,8.15625 -2.63672,3.25781 -5.26953,3.25781 -7.90234,3.25781 z m 5.26563,13.04297 c 0,4.89453 -2.63282,8.15625 -5.26563,9.78515 -1.31641,0 -2.63672,3.26172 -5.26953,6.52344 0,0 -1.31641,3.25781 -2.63281,4.89062 l -3.95313,4.89063 -5.26562,6.52344 c -1.31641,1.6289 -3.95313,4.89062 -6.58594,4.89062 h -2.63281 c -2.63672,0 -5.26953,0 -7.90235,-3.26172 -2.63672,-3.26172 -5.26953,-6.51953 -6.58593,-9.78125 -1.31641,-3.26172 -2.63282,-6.52343 -3.95313,-11.41406 0,-4.89062 0,-9.78516 2.63672,-13.04687 2.63281,-4.89063 7.90234,-4.89063 11.85156,-6.51954 h 11.85547 c 21.07031,0 22.38672,4.89063 23.70313,8.15235 z m -11.85157,-57.07032 c -5.26953,-6.51953 -5.26953,-8.15234 -2.63281,-16.30468 1.31641,-4.89063 5.26563,-9.78125 9.21875,-13.04297 2.63281,0 5.26563,-1.63282 7.90234,-1.63282 h 7.89844 c 0,0 2.63672,0 3.95313,1.63282 1.3164,1.6289 1.3164,4.89062 1.3164,6.51953 v 40.76562 c 0,4.89063 0,6.52344 -3.94922,8.15235 -2.63671,0 -3.95312,-1.62891 -3.95312,-3.26172 l -18.4375,-24.45703 z m -113.26172,11.41407 c 0,-14.67188 0,-27.71875 6.58594,-39.13282 2.63281,-4.89062 5.26563,-8.15234 9.21875,-11.41406 3.94922,-1.62891 6.58203,-3.26172 10.53516,-3.26172 10.53515,0 19.7539,8.15235 27.65625,16.3086 l 15.80469,14.67187 c 3.94921,3.26172 3.94921,9.78516 2.63281,14.67578 -2.63281,4.89453 -5.26563,13.04688 -5.26563,13.04688 -1.32031,6.51953 0,13.04297 0,19.5664 v 4.89063 c 0,4.89062 0,8.15234 -1.32031,11.41406 -1.31641,1.63281 -3.94922,3.26172 -6.58203,3.26172 h -3.95313 c -6.58593,0 -11.85156,0 -18.4375,-1.62891 h -9.21875 c -5.26953,0 -13.17187,0 -18.4375,-6.52343 -7.90234,-8.15235 -9.21875,-21.19922 -9.21875,-34.24219 z m 39.50782,130.44921 c -2.63282,0 -3.94922,3.25782 -6.58203,3.25782 -2.63672,0 -5.26954,0 -6.58594,-3.25782 -13.17188,-11.41406 -21.07422,-29.35156 -19.75391,-50.55078 0,-16.30468 5.26563,-27.71875 13.16797,-32.60937 3.95313,-1.63281 7.90234,-1.63281 11.85156,-1.63281 h 30.29297 c 1.31641,0 5.26953,0 6.58594,3.26171 v 24.46094 c 0,4.89063 1.31641,8.15235 3.94922,11.41406 2.63281,4.89063 2.63281,11.41407 0,14.67188 -10.53516,11.41406 -22.38672,21.19922 -34.24219,29.35156 z m 94.82422,45.65625 c -1.31641,4.89063 -5.26563,6.51954 -9.21875,9.78125 -3.94922,1.63282 -9.21875,4.89063 -14.48438,4.89063 h -18.44141 c -10.53515,0 -22.38671,-3.25781 -30.28906,-13.04297 -5.26953,-6.52344 -7.90234,-13.04297 -11.85156,-19.56641 0,-1.63281 -2.63672,-4.89062 -2.63672,-6.52343 0,-4.89063 2.63672,-8.15235 6.58594,-11.41407 l 23.70703,-21.19531 c 3.94922,-4.89453 10.53516,-8.15625 15.80469,-8.15625 h 3.94922 c 2.63281,0 5.26953,3.26172 6.58593,4.89453 l 2.63282,1.62891 c 5.26953,4.89062 13.17187,6.52344 18.4375,8.15234 5.26953,0 9.21875,6.52344 7.90234,11.41407 0,9.78515 0,21.19921 1.31641,30.98046 v 11.41407 z m 3.95312,-73.3789 c 0,1.63281 0,4.89453 -2.63672,6.52344 h -6.58203 c -5.26953,0 -10.53516,-3.26172 -14.48828,-4.89063 -2.63281,0 -9.21875,-3.26172 -10.53516,-11.41406 0,-6.52344 3.94922,-13.04688 5.26563,-14.67578 3.95312,-4.89063 6.58594,-9.78516 9.22265,-13.04688 2.63282,-4.89062 5.26563,-9.78125 9.21875,-14.67187 l 2.63282,-3.26172 h 3.94922 c 5.26953,3.26172 7.90234,11.41406 7.90234,21.19531 0,11.41406 -2.63281,22.82813 -5.26563,32.61328 z m -3.95312,-66.85156 c 0,-6.52344 1.3164,-11.41407 5.26953,-14.67579 0,0 2.63281,-3.26171 3.94922,-3.26171 h 2.63671 c 5.26563,0 10.53516,3.26171 11.85157,9.78515 v 11.41406 c 0,-1.63281 2.63281,-3.26171 3.95312,-4.89453 h 22.38672 c 7.90234,0 17.12109,1.63282 22.39063,9.78516 0,0 1.3164,3.26172 1.3164,6.52344 0,6.51953 -3.95312,19.5664 -6.58594,22.82812 -1.3164,1.62891 -3.94921,3.25781 -5.26953,3.25781 -1.3164,0 -3.94922,0 -6.58203,-1.6289 -5.26953,-3.26172 -9.21875,-6.52344 -13.17187,-9.78516 -2.63282,-3.25781 -6.58594,-4.89062 -10.53516,-6.51953 h -1.31641 c -2.63281,0 -5.26953,-3.26172 -6.58593,-8.15234 v -8.15235 c -1.31641,3.25782 -3.94922,4.89063 -5.26953,6.51953 h -6.58204 c -3.95312,0 -9.21875,-3.26171 -10.53906,-9.78125 z m 13.17187,21.19531 c 1.31641,-1.62891 2.63281,-3.25781 5.26563,-3.25781 6.58593,0 15.80468,8.15234 22.39062,13.04296 1.31641,0 2.63281,1.62891 3.95313,3.26172 3.94921,3.26172 9.21875,6.51953 9.21875,13.04297 0,4.89063 -1.32032,8.15235 -2.63672,11.41406 -6.58203,11.41407 -17.1211,17.9375 -28.97266,17.9375 -1.31641,0 -3.95312,0 -6.58594,-1.63281 -2.63281,-1.6289 -2.63281,-6.51953 -2.63281,-8.15234 l -2.63281,-34.24219 c 0,-4.89062 0,-8.15234 1.3164,-9.78125 z m 77.70313,127.1875 c -9.21875,6.51953 -18.4375,8.15234 -28.97657,9.78125 h -17.11718 c -5.26954,0 -15.80469,0 -21.07422,-4.89063 -2.63282,0 -5.26953,-3.26172 -6.58594,-6.52343 -1.31641,-3.26172 -1.31641,-6.51954 0,-9.78125 v -44.02735 c 0,-4.89062 3.95312,-9.78125 7.90234,-9.78125 h 2.63672 c 3.94922,0 9.21875,3.25781 13.16797,3.25781 7.90234,0 13.17188,-3.25781 18.4375,-11.41406 0,0 1.31641,-3.25781 3.95313,-3.25781 h 2.63281 c 2.63281,0 5.26953,1.62891 6.58594,3.25781 7.90234,9.78516 18.4375,16.3086 28.97265,22.82813 1.31641,0 3.95313,1.63281 5.26953,4.89453 2.63282,3.26172 3.94922,8.15234 3.94922,13.04297 0,14.67578 -9.21875,26.08984 -17.12109,30.98047 z m 48.72656,-60.33203 c 0,0 0,1.6289 -1.31641,3.26172 0,0 -1.3164,3.26171 -3.94922,4.89062 -2.63281,1.62891 -5.26953,3.26172 -9.21875,3.26172 -3.95312,0 -9.21875,-1.63281 -15.80468,-4.89063 -7.90235,-4.89453 -15.80469,-11.41406 -23.70704,-17.9375 -3.94921,-3.26171 -6.58593,-6.52343 -9.21875,-9.78515 -2.63281,-4.89063 -2.63281,-11.41406 0,-16.30469 0,-1.62891 2.63282,-3.26172 3.95313,-4.89062 l 1.31641,-1.63282 c 5.26562,-6.51953 3.94921,-16.30468 3.94921,-22.82812 v -8.15235 c 1.31641,-4.89062 5.26954,-4.89062 9.21875,-6.51953 2.63672,0 6.58594,0 9.21875,-1.63281 6.58594,0 11.85547,-3.26172 18.44141,-3.26172 h 7.89844 c 7.90234,1.63281 13.17187,6.52344 17.12109,13.04688 1.32031,3.26172 2.63672,8.15234 3.95313,11.41406 5.26562,29.34766 1.3164,45.65625 -11.85547,60.32812 z m 3.95312,-99.46485 c 0,1.62891 -2.63281,4.89063 -5.26953,6.52344 h -47.41015 c -2.63282,1.62891 -5.26954,0 -6.58594,-1.63281 -1.31641,-1.62891 -1.31641,-4.89063 0,-8.15235 1.3164,-6.52343 1.3164,-14.67578 0,-21.19921 0,-4.89063 -2.63281,-6.51954 -3.94922,-9.78125 -1.32031,-1.63282 -3.95313,-3.26172 -7.90234,-4.89063 -1.31641,0 -2.63672,0 -3.95313,-1.63281 -2.63281,0 -3.94922,-4.89063 -3.94922,-8.15235 0,-3.26171 0,-6.52343 2.63281,-8.15234 l 27.65625,-27.71875 c 2.63672,-3.26172 6.58594,-6.52344 10.53907,-6.52344 h 10.53515 c 15.80469,0 19.75391,6.52344 27.65625,17.9375 v 3.25782 c 3.94922,3.26171 7.90235,14.67578 9.21875,16.30859 v 3.26172 c 0,3.25781 1.31641,4.89062 1.31641,8.15234 -1.31641,13.04297 -3.94922,29.34766 -11.85156,42.39453 z m 0,0"
       id="path3" />
    <path
       style="fill:#ca7070;fill-opacity:1;fill-rule:nonzero;stroke:none"
       d="m 805.03125,652.23047 c -1.31641,0 -14.48438,-8.15235 -19.75391,-9.78516 -7.90234,-3.26172 -17.12109,-8.15234 -25.02343,-13.04297 -17.1211,-13.04687 -30.28907,-35.875 -39.50782,-70.11718 -3.95312,-14.67188 -6.58593,-30.98047 -9.21875,-45.65625 -2.63672,-13.04297 -3.95312,-26.08594 -7.90234,-37.5 -11.85547,-50.55079 -36.87891,-97.83594 -68.48438,-132.07813 -11.85546,-13.04297 -23.70703,-21.19922 -34.24218,-27.71875 -3.95313,-3.26172 -9.21875,-4.89062 -13.17188,-8.15234 -7.90234,-4.89453 -15.80469,-11.41407 -23.70312,-13.04688 -13.17188,-4.89062 -27.66016,-6.51953 -40.82813,-9.78125 -10.53515,-1.63281 -22.39062,-3.26172 -34.24219,-6.52344 -5.26953,0 -11.85546,-3.26171 -18.4375,-3.26171 h -1.3164 c -5.26953,0 -10.53906,1.63281 -15.80469,3.26171 -2.63672,0 -3.95312,0 -6.58594,1.62891 -6.58593,0 -11.85156,1.63281 -18.4375,3.26172 -3.95312,0 -9.21875,0 -13.17187,1.63281 -27.65625,4.89063 -53.9961,21.19531 -81.65235,48.91406 -26.33984,26.08985 -46.09375,50.55079 -59.26562,73.37891 -3.94922,6.51953 -6.58594,14.67578 -5.26953,17.93359 0,0 2.63672,1.63282 3.95312,1.63282 h 1.31641 c 5.26953,0 9.21875,-9.78516 11.85156,-17.9375 1.32031,-4.89063 2.63672,-8.15235 3.95313,-11.41407 17.12109,-29.35156 35.55859,-47.28515 60.58203,-63.59375 3.94922,-3.25781 14.48828,-14.67187 19.7539,-19.5664 0,0 1.31641,-1.62891 2.63282,-1.62891 2.63672,-3.26172 9.21875,-4.89062 13.17187,-6.52344 h 3.94922 c 25.02344,-9.78125 44.78125,-17.93359 68.48438,-17.93359 h 15.80468 c 18.4375,1.62891 38.19532,4.89063 55.31641,9.78125 27.65625,9.78516 56.62891,26.08984 90.87109,55.44141 28.97266,24.45703 51.36328,61.96093 64.53516,102.72265 5.26562,16.3086 7.89844,34.24219 10.53516,50.55078 0,4.89063 1.3164,9.78125 2.63281,14.67579 6.58594,34.24218 17.12109,73.375 38.1914,101.09375 6.58594,8.15234 14.48829,16.30468 22.39063,22.82812 13.17187,13.04297 34.24219,21.19922 47.41406,26.08984 5.26563,1.62891 15.80078,3.26172 23.70313,4.89063 v -13.04297 c -13.16797,-1.63281 -18.4375,-6.52344 -27.65625,-9.78516 z m 0,0"
       id="path4" />
    <path
       style="fill:#ca7070;fill-opacity:1;fill-rule:nonzero;stroke:none"
       d="m 141.26562,345.67969 c 2.63282,0 5.26563,1.63281 6.58204,3.26172 44.78125,21.19921 76.38671,48.91796 94.82421,84.79296 13.17188,24.45704 28.97657,61.96094 34.24219,101.09375 1.31641,11.41407 2.63672,22.82813 2.63672,34.24219 1.31641,24.45703 3.94922,47.28516 13.16797,68.48438 6.58594,16.30468 19.75391,40.76562 36.875,60.33203 14.48828,16.30469 28.97656,27.71875 42.14453,34.24219 14.48828,6.51953 28.97656,9.78125 43.46094,13.04296 17.12109,3.26172 31.60937,4.89063 48.73047,4.89063 23.70703,0 48.73047,-3.26172 75.07031,-8.15234 31.60547,-4.89063 56.62891,-42.39454 77.70312,-73.375 2.63282,-3.26172 3.94922,-6.52344 6.58204,-9.78516 5.26953,-8.15234 10.53906,-17.93359 9.21875,-26.08594 -5.26563,0 -9.21875,9.78125 -13.16797,17.9336 -5.26953,14.67578 -14.48828,24.46093 -22.39063,34.24218 -10.53515,13.04688 -19.7539,24.46094 -32.92187,34.24219 -18.44141,13.04688 -40.82813,16.30469 -60.58203,17.9375 -15.80469,0 -28.97657,1.62891 -42.14454,1.62891 -34.24218,0 -61.90234,-6.51953 -85.60546,-19.56641 -25.02344,-14.67578 -48.73047,-39.13281 -73.75391,-78.26562 -3.94922,-6.52344 -9.21875,-14.67579 -10.53516,-22.82813 -2.63281,-8.15234 -2.63281,-17.9375 -2.63281,-27.72266 0,-60.32812 -10.53906,-109.24609 -31.60937,-146.75 -6.58594,-11.41406 -14.48829,-22.82812 -22.39063,-32.60937 -14.48437,-17.9375 -31.60547,-39.13672 -51.36328,-57.07031 -11.85156,-9.78516 -34.23828,-29.35157 -48.72656,-29.35157 h -2.63282 c -2.63671,0 -6.58593,3.26172 -7.90234,6.52344 v 3.25781 c 0,1.63282 13.16797,6.52344 18.4375,8.15625 z m 0,0"
       id="path5" />
    <path
       style="fill:#ca7070;fill-opacity:1;fill-rule:nonzero;stroke:none"
       d="m 142.58203,376.66406 c 61.89844,24.45703 109.30859,101.09375 117.21094,184.25391 v 19.5664 c 0,17.9375 2.63672,37.50391 7.90234,55.4375 1.31641,4.89454 3.95313,8.15625 5.26953,13.04688 2.63282,4.89062 5.26563,9.78125 6.58594,16.30469 0,1.63281 0,4.89062 1.31641,6.52343 0,4.89063 2.63281,9.78125 5.26562,13.04297 2.63672,4.89453 7.90235,9.78516 11.85547,13.04688 32.92578,30.98047 69.80078,65.22265 111.94531,76.63672 10.53516,3.26172 23.70313,4.89062 36.875,4.89062 14.48828,0 28.97266,0 46.09375,-3.26172 18.4375,-1.6289 38.19532,-4.89062 57.94922,-11.41406 l 72.4336,-53.80859 c 13.17187,-14.67578 26.33984,-29.35157 27.66015,-50.54688 h -3.95312 c -5.26563,0 -11.85157,6.52344 -19.75391,19.56641 -22.39062,39.13281 -57.94922,68.48437 -94.82422,79.89844 -15.80469,4.89062 -32.92578,6.52343 -56.63281,6.52343 h -26.33984 c -15.80469,0 -32.92579,0 -48.72657,-6.52343 -13.17187,-4.89063 -26.33984,-11.41407 -38.19531,-17.9375 -21.07031,-11.41407 -46.09375,-26.08985 -61.89844,-50.54688 -14.48828,-21.19922 -19.7539,-48.91797 -23.70703,-70.11328 -2.63281,-16.30859 -5.26562,-32.61328 -6.58203,-48.91797 -5.26953,-44.02734 -11.85547,-88.05078 -31.60937,-123.92578 -22.39063,-40.76172 -60.58204,-65.22266 -96.14063,-86.41797 -3.95312,-3.26172 -10.53516,-6.52344 -14.48828,-6.52344 h -2.63281 v 4.89063 c 0,8.15234 14.48437,13.04687 19.7539,16.30859 z m 0,0"
       id="path6" />
    <path
       style="fill:#ca7070;fill-opacity:1;fill-rule:nonzero;stroke:none"
       d="m 666.74609,683.21094 c 0,0 -1.3164,0 -2.63281,1.6289 -6.58594,8.15235 -13.16797,17.9375 -18.4375,26.08985 -6.58594,11.41406 -13.17187,24.45703 -23.70703,32.61328 -9.21875,8.15234 -19.75391,11.41406 -28.97266,16.30469 -5.26953,1.6289 -9.21875,3.26171 -14.48828,6.52343 l -15.80469,9.78125 c -6.58203,4.89063 -14.48437,8.15235 -22.38671,11.41407 -13.17188,4.89062 -26.33985,6.52343 -39.51172,8.15234 -15.80469,0 -32.92578,3.26172 -50.04688,3.26172 -17.12109,0 -34.24219,-1.62891 -48.72656,-6.52344 -27.65625,-8.15234 -52.67969,-26.08594 -75.07031,-44.02344 -11.85157,-8.15234 -22.38672,-16.30468 -31.60938,-27.71875 -19.7539,-22.82812 -34.24219,-60.33203 -42.14062,-104.35937 -2.63672,-13.04297 -3.95313,-26.08985 -5.26953,-39.13281 -2.63282,-24.45704 -5.26954,-47.28516 -11.85157,-68.48438 -10.53906,-35.87109 -30.29297,-66.85156 -55.3164,-91.3125 -13.16797,-11.41406 -26.33985,-21.19531 -40.82813,-27.71875 h -2.63281 c -3.94922,-1.62891 -9.21875,-4.89062 -11.85156,-4.89062 h -2.63672 v 1.6289 c 1.32031,3.26172 7.90234,8.15235 13.17187,11.41406 52.67969,24.46094 93.50782,86.42188 101.41016,156.53516 0,8.15234 1.31641,16.30469 1.31641,24.45703 0,9.78516 0,19.57031 2.63281,29.35156 3.95312,24.46094 10.53515,45.65625 19.7539,70.11719 6.58594,17.9336 15.80469,42.39453 28.97657,58.69922 11.85156,14.67578 28.97265,24.45703 44.77734,32.60938 13.17188,8.15625 26.33984,14.67578 39.51172,21.19921 10.53516,4.89063 22.38672,8.15235 35.55859,11.41407 17.1211,3.26172 34.24219,6.52343 51.36328,6.52343 69.80079,0 139.60157,-32.61328 192.28125,-88.05078 7.90235,-8.15625 17.1211,-19.5664 15.80469,-32.61328 0,-3.26172 -1.3164,-6.52344 -2.63672,-6.52344 z m 0,0"
       id="path7" />
  </g>
</svg>
