<?xml version="1.0" encoding="UTF-8"?>
<svg id="Layer_1" xmlns="http://www.w3.org/2000/svg" version="1.1" viewBox="0 0 90.7 62.8">
  <!-- Generator: Adobe Illustrator 29.5.0, SVG Export Plug-In . SVG Version: 2.1.0 Build 137)  -->
  <defs>
    <style>
      .st0 {
        fill: #ca7172;
      }
    </style>
  </defs>
  <g id="Layer_11" data-name="Layer_1">
    <g>
      <path class="st0" d="M75.5,14.4c-.6,0-4.2,1-4.4,1.1h0c-2.8,1.5-4.3,3.8-4.3,7s0,.9,0,1.3c0,.5.3,1,.4,1.5.2.6.4,1.2.8,1.8.5.6,1.2,1.1,1.8,1.5.8.5,1.5,1,2.3,1.3.2,0,.7.3,1.2.4h0c.3,0,.5.2.6.2,1,.4,3.4,2.7,3.7,3.3h0c.5.6.5,1.9.5,2.2,0,.8-.5,1.2-.6,1.4-.2.3-.3.7-.4,1.1,0,.5-.2,1.1-.7,1.3-.2,0-.8.5-1.5,1.1-1.5,1.1-3.7,2.2-4.5,2.6-3.7,1.8-7.1,0-7.6,0-.2-.2-.5-.3-1-.4-3.8-.7-7-3.5-8.3-7.1-.4-1.1-.6-2.2-.8-3.3-.2-1-.4-2-.7-3-1.1-3.2-3.6-6-7.1-7.8-2.9-1.5-6.4-2.2-10.5-2.3h-1.2c-.5.1-.9.4-1.3.6l-5.3,3.1c-1.2.7-2,1.5-2.9,2.5,0,0,0,.1-.2.2-.5.5-2.2,2.1-1.7,2.7h.2c.4,0,1.1-1.2,1.4-1.8.2-.3.3-.5.4-.6.9-1.1,2-2.1,3.4-2.9,1.9-1.2,4-1.9,6.1-2.7.6-.2,1.3-.5,2-.6h.6c.8,0,1.7.2,2.5.4.7.2,1.4.3,2.1.5,4.3,1.1,7.6,3.4,9.5,6.6,1.1,1.9,1.5,3.9,1.9,6.1,0,.5.2,1,.3,1.4.6,2.7,2.1,5.2,4.1,6.6.6.4,1.4.8,2.1,1.1l2.8,1.3c.3,0,2.8.5,2.9.6.4.3,1.9.6,2.6.6,1.7,0,2.5-.7,3.4-.8.5,0,2.1-.8,2.2-1h0s3.1-1.7,3.3-1.9c.5-.4,1.1-.6,1.7-1.2,0,0,0-.3.2-.5,0-.4.7-1.6.7-1.7,0-.2,0-.3.2-.5,0,0,.5-1.4.6-1.6.3-1,.2-2-.5-2.9s-1.5-2-2.7-2.7c-.7-.4-1.5-.7-2.3-1-.4-.2-.9-.3-1.3-.5-1.4-.6-2.5-1.4-3.1-2.2-.3-.4-.5-.8-.7-1.2-.4-.9-.8-1.8-.9-2.7,0-1.1.3-2.1.7-3.1.2-.4,2.3-3.1,2.6-3.3.2-.1,2.2-1.2,2.9-1.2h1.1c.6,0,1.4-.3,1.6-.4,0,0,.5-.3.9-.3s1.5-.4,1.5-.4h0c.2-.3,0-.6-.4-.6-.5.1-1,.3-1.5.4-.6.2-1.2.4-1.5.4h0Z"/>
      <path class="st0" d="M80.9,32.3c-.7-.9-1.5-2-2.7-2.7-.5-.3-2.1-.9-2.9-1.3h0c-.3-.1-.5-.2-.6-.3-1.4-.6-3.5-2.9-3.7-3.4h0c-.4-1-.8-1.9-.8-2.7s0-1.1.3-1.3c.7-.7,1.4-2,1.6-2.2,0,0,.4-.2,1-.4.4-.1.9-.3,1.1-.4.3-.1,1.2-.7,2.4-.7h.3l.6-.2c1.6,0,1.7-.2,1.8-.4v-.3c-.5-.5-3.9,0-5.4.7-.2,0-1.5.5-2,.8-.8.5-1.6,1.7-2.8,4.2,0,.3,0,.6,0,.9v.2c0,.5.3,1.1.4,1.6.2.6.4,1.3.8,1.8.5.6,1.2,1.1,1.8,1.5.8.5,1.5,1,2.3,1.3.3.1.7.2,1,.3.3,0,2.7,1.2,3.5,2,.5.5,1.5,3.1,1.5,3.5,0,1.2-.4,2.1-.5,2.4,0,.6-.2,1.2-.6,1.6-.2.2-.4.6-.7,1-.4.7-.8,1.3-1.2,1.6-.2,0-.5.4-.8.7-.5.5-.9.9-1.3,1.1,0,0-3.8,1.8-4,1.8-1.1.3-2.5.8-3,1,0,0-1.1,0-1.4,0-1.2-.2-6.4-1.2-6.9-1.2h-.3c-2.2-.3-4.4-1.7-6.1-3.6-1.4-1.7-2.4-3.9-3-6.5-.2-.7-.3-1.4-.4-2-.3-1.5-.6-3-1.2-4.4-1.6-3.5-5.3-6.2-9.9-7.1-1-.2-1.8-.3-2.6-.3s-1.2,0-1.8.2c-1.2.2-2.4.8-3.3,1.2-1.9.8-3.7,1.7-5.2,2.8-1.2.9-2.8,2.5-3.4,4.6,0,.3,0,1.5.3,2,.7-2.1,1.1-2.9,1.3-3.4,1.4-2.9,5.3-6,11-6.2h.3c1.3,0,2.7.3,4,.6h0c.2,0,.4,0,.5.1.8.2,1.6.4,2.4.7,3,1.2,5.3,4.2,6.8,8.6.2.5.4,1.1.4,1.8v1.5c0,.5,0,.9,0,1.4,0,1,.5,2,1.3,3.2.8,1.1,1.7,2,2.7,2.8,2.4,1.8,5.4,2.8,8,3.6h1.9c.6,0,4.3.3,5.2.3h0c.4,0,3-1.3,3-1.3,0,0,2.7-1.2,3.1-1.5,1-.9,2.4-1.7,2.9-2.4,0,0,.7-1,1.1-1.6.5-.7,1-1.5,1.2-1.7,0,0,.7-1.4.8-1.5v-1.7c.3-1,.2-2-.5-2.9l.4.2Z"/>
      <path class="st0" d="M45.9,28.3c-.2-.1-.5-.2-.7-.4-.4-.2-.9-.4-1.2-.7s-.3-.5-.5-.8c0-.1-.2-.3-.2-.4-.8-1.3-2.8-2.3-4.5-2.3s-.6,0-.9.1c-.3,0-.5.1-.7.2-.4.1-.7.3-1.1.3s0,0-.2,0c-.5,0-1.2-.2-1.8-.3h-.7c-1.9,0-3.5,1.4-5,4.2-.3.5-.8.5-1.1.5s0,0-.2,0h-.2c-.4,0-.7,0-.9.4-.2.2-.3.4-.4.6-.4.4-.5.7-.8,1.4-.2.6-.4,2-.3,2.4v.4c0,.6.2,1.4,1.1,1.5h.2v.2c-.8,2.6-.5,4.4.7,5.1l.6.3c.2,0,.5.2.7.4.2,0,.5.5.7.9s.3.4.4.5l.2.3c1.1,1.1,1.5,1.5,3.1,1.9.3,0,.7,0,1,0,.7,0,1.2-.2,1.7-.4.4-.2.7-.3,1.1-.3h.5c.5.4,1.5.7,2.8.7h0c2.1,0,4.6-.7,5.1-1.9,0-.2,0-.3.2-.5,0-.4.3-.9.7-1.1.2-.2.5-.2.7-.3,0,0,.3,0,.4,0,.6-.3,1-.9,1.2-1.3.5-1.1.6-2.3.3-3.5,0,0,0-.3,0-.5,0-.4-.2-.7-.3-1.1,0-.7,0-1.3.3-1.8.6-2.1,0-3.7-1.7-4.8h-.2ZM37.4,25c.3-.2.7-.4,1.2-.4.9,0,2,.4,2.5.9.7.6,1.3,1.4,1.4,2.3v.9c0,.3-.4.5-.6.7l-1.7,1.3s-.2.1-.3.1,0,0,0,0c0,0-.2-.2-.2-.2-.3-.6-1.2-.8-1.7-.8s-.3,0-.5-.1c-.3-.2-.3-.5-.3-.7l-.2-1.9c0-.8,0-1.7.5-2.2h-.1ZM40.2,32.1h.3c.3,0,.4.3.6.5,0,.2.3.4.3.7s0,.3,0,.4l-.2.4s0,.2-.2.3-.4,0-.5,0h-1.6c-.2,0-.5,0-.8,0-.2,0-.4-.3-.4-.5,0-.5.7-.9,1.6-1.4,0,0,.2,0,.3-.2.3-.2.6-.3.9-.3h-.2ZM36.3,32.7v-.2c0-.5,0-1,0-1.4,0-.2,0-.5.3-.6,0,0,.3-.1.4-.1h0c.4,0,.9,0,1.3.3.2.1.3.3.4.5,0,.1.3.3.3.6s-.3.6-.5.8c-.4.4-.9.7-1.3,1.1h-.3c-.2,0-.6,0-.8-.3-.2-.2-.2-.5,0-.7h0ZM29.9,27.3c0-.1.2-.2.3-.3.2-.3.5-.6.8-.9,1-.9,2.4-1,3.9-1h0c.2,0,.4,0,.5.1.3.2.4.5.4.9,0,1.1,0,1.6,0,2.7v.3c0,.3-.3.6-.6.6h-.2c-.3,0-.4,0-.6-.1h-.5c-.2,0,0,0,0,0-.6,0-1,.4-1.5.8h0c-.2.2-.3.3-.5.4h-.2c-.3,0-.6-.1-.8-.3-.7-.4-1.2-.9-1.6-1.5-.5-.7,0-1.2.4-1.7h0ZM34.4,34.6h-2.2c-.2,0-.4,0-.5-.2-.3-.2-.3-.6-.3-.9,0-.5,0-.9.4-1.1.2-.3.6-.5,1-.5s0,0,.2,0c.4,0,.6.3.9.6,0,0,.3.3.4.4,0,0,.9.5,1,1.1,0,.2,0,.4-.2.5-.2.2-.4.2-.6.2h-.1ZM34.4,36.1c0,0-.2.2-.4.4,0,0,0,.2-.2.3s-.2.2-.3.3l-.4.4c0,0-.3.3-.5.3h-.2c-.2,0-.4,0-.6-.2s-.4-.4-.5-.6c0-.2-.2-.4-.3-.7,0-.3,0-.6.2-.8.2-.3.6-.3.9-.4h.9c1.6,0,1.7.3,1.8.5,0,.3-.2.5-.4.6h0ZM33.8,32c-.4-.4-.4-.5-.2-1,0-.3.4-.6.7-.8.2,0,.4-.1.6-.1h.6s.2,0,.3.1c0,.1,0,.3,0,.4v2.5c0,.3,0,.4-.3.5h0c-.2,0-.3,0-.3-.2l-1.4-1.5h0ZM25.3,32.7c0-.9,0-1.7.5-2.4.2-.3.4-.5.7-.7.3-.1.5-.2.8-.2.8,0,1.5.5,2.1,1l1.2.9c.3.2.3.6.2.9-.2.3-.4.8-.4.8,0,.4,0,.8,0,1.2v.3c0,.3,0,.5,0,.7,0,0-.3.2-.5.2h-.3c-.5,0-.9,0-1.4,0h-.7c-.4,0-1,0-1.4-.4-.6-.5-.7-1.3-.7-2.1h0ZM28.2,40.7c-.2,0-.3.2-.5.2s-.4,0-.5-.2c-1-.7-1.6-1.8-1.5-3.1,0-1,.4-1.7,1-2,.3,0,.6,0,.9,0s0,0,0,0h2.2c0,0,.4,0,.5.2v1.5c0,.3,0,.5.3.7.2.3.2.7,0,.9-.8.7-1.7,1.3-2.6,1.8h0ZM35.5,43.5c0,.3-.4.4-.7.6-.3,0-.7.3-1.1.3h-1.4c-.8,0-1.7-.2-2.3-.8-.4-.4-.6-.8-.9-1.2,0,0-.2-.3-.2-.4,0-.3.2-.5.5-.7l1.8-1.3c.3-.3.8-.5,1.2-.5s.2,0,.3,0c.2,0,.4.2.5.3h.2c.4.4,1,.5,1.4.6.4,0,.7.4.6.7,0,.6,0,1.3,0,1.9h0v.7-.2ZM36.2,37c0,.7-.2,1.4-.4,2,0,0,0,.3-.2.4h-.5c-.4,0-.8-.2-1.1-.3-.2,0-.7-.2-.8-.7,0-.4.3-.8.4-.9.3-.3.5-.6.7-.8.2-.3.4-.6.7-.9,0,0,0,0,.2-.2h.3c.4.2.6.7.6,1.3h.1ZM35.5,34.9c0-.4,0-.7.4-.9,0,0,.2-.2.3-.2h.2c.4,0,.8.2.9.6v.7c0,0,.2-.2.3-.3h1.7c.6,0,1.3,0,1.7.6,0,0,0,.2,0,.4,0,.4-.3,1.2-.5,1.4,0,0-.3.2-.4.2s-.3,0-.5,0h0c-.4-.2-.7-.4-1-.6-.2-.2-.5-.3-.8-.4h0c-.2,0-.4-.2-.5-.5v-.5c0,.2-.3.3-.4.4h-.5c-.3,0-.7-.2-.8-.6v-.2ZM36.5,36.2c0,0,.2-.2.4-.2.5,0,1.2.5,1.7.8,0,0,.2,0,.3.2.3.2.7.4.7.8s0,.5-.2.7c-.5.7-1.3,1.1-2.2,1.1h0c0,0-.3,0-.5,0s-.2-.4-.2-.5l-.2-2.1c0-.3,0-.5,0-.6h0ZM42.3,43.9c-.7.4-1.4.5-2.2.6h-1.3c-.4,0-1.2,0-1.6-.3-.2,0-.4-.2-.5-.4s0-.4,0-.6v-2.7c0-.3.3-.6.6-.6s0,0,.2,0c.3,0,.7.2,1,.2.6,0,1-.2,1.4-.7h0s0-.2.3-.2h.2c.2,0,.4,0,.5.2.6.6,1.4,1,2.2,1.4h0c0,0,.3,0,.4.3.2.2.3.5.3.8,0,.9-.7,1.6-1.3,1.9h-.2ZM46,40.3s0,0,0,.2c0,0,0,.2-.3.3-.2,0-.4.2-.7.2s-.7,0-1.2-.3c-.6-.3-1.2-.7-1.8-1.1-.3-.2-.5-.4-.7-.6-.2-.3-.2-.7,0-1,0,0,.2-.2.3-.3h0c.4-.5.3-1.1.3-1.5v-.5c0-.3.4-.3.7-.4.2,0,.5,0,.7,0,.5,0,.9-.2,1.4-.2h.6c.6,0,1,.4,1.3.8,0,.2.2.5.3.7.4,1.8,0,2.8-.9,3.7h0ZM47.2,31.6c0,.8-.3,1.8-.9,2.6,0,0-.2.3-.4.4h-3.6c-.2,0-.4,0-.5,0s0-.3,0-.5c0-.4,0-.9,0-1.3,0-.3-.2-.4-.3-.6,0,0-.3-.2-.6-.3,0,0-.2,0-.3-.1-.2,0-.3-.3-.3-.5s0-.4.2-.5l2.1-1.7c.2-.2.5-.4.8-.4h.8c1.2,0,1.5.4,2.1,1.1v.2c.3.2.6.9.7,1v.2c0,.2,0,.3,0,.5h.1Z"/>
      <path class="st0" d="M21.4,27.3h0c.4,0,.7-.6.9-1.1,0-.3.2-.5.3-.7,1.3-1.8,2.7-2.9,4.6-3.9.3-.2,1.1-.9,1.5-1.2,0,0,0-.1.2-.1.2-.2.7-.3,1-.4h.3c1.9-.6,3.4-1.1,5.2-1.1s.8,0,1.2,0c1.4.1,2.9.3,4.2.6,2.1.6,4.3,1.6,6.9,3.4,2.2,1.5,3.9,3.8,4.9,6.3.4,1,.6,2.1.8,3.1,0,.3,0,.6.2.9.5,2.1,1.3,4.5,2.9,6.2.5.5,1.1,1,1.7,1.4,1,.8,2.6,1.3,3.6,1.6s1.9.3,2.5.3,1.3.2,2.2.4,2.1,0,2.8,0c1.2-.2,3.2-1.3,3.4-1.6.5-.7,1.2-1.1,1.9-1.4.4-.2.7-.3.9-.5.2-.2.7-.9.7-1,.2-.3.3-.6.3-.9v-.5c.3-1,.2-2-.5-2.9s-1.5-2-2.7-2.7c-.7-.4-1.5-.7-2.3-1-.4-.2-.9-.3-1.3-.5-1.4-.6-2.5-1.4-3.1-2.2-.3-.4-.5-.8-.7-1.2-.4-.9-.8-1.8-.9-2.7,0-1.1-.2-1.7.3-2.7s.4-1.9.6-2.1c0,0,.3-.5.6-.9.5-.8.9-1.3,1-1.4.2-.2,2.2-2,2.4-2.1,0,0,2.3-1.3,3-1.3s1.1,0,1.8-.2c.6,0,1.1-.1,1.3-.1s.7-.2.9-.4c0-.2.2-.4,0-.6h-.2c-.5,0-1.4.3-1.5.3h-2.1c-1.2,0-3.2,1.5-3.5,1.9-.6.6-1.5,1.1-2.2,1.5-.3.2-.5.2-.7.5-.2.2-.3.5-.5.8h0c-1.1,2.2-2,3.9-2,6.7s0,.9,0,1.3c0,.5.3,1,.4,1.5.2.6.4,1.2.8,1.8.5.6,3.4,2.5,4.1,2.8.3.1.7.2,1,.3.3,0,2.7,1.2,3.5,2,.5.5.8,1,1,1.6h0c.4.6.7,1.3.6,2s-1,1.5-1.1,1.6-3.3,2.5-3.6,2.8c-.5.4-1.4.8-2.2.9s-2.2,0-2.8,0c-.3,0-2.1-.4-2.4-.4-1,0-1.4-.4-2.1-.6,0,0-1.1-.5-1.5-.6-.6-.2-1.3-.5-1.9-.8-1.3-.8-2.3-2.2-3-4.3-.3-.9-.5-1.9-.7-2.8-.2-.8-.3-1.6-.6-2.3-.9-3.1-2.8-6-5.2-8.1-.9-.8-1.8-1.3-2.6-1.7-.3-.2-.7-.3-1-.5-.6-.3-1.2-.7-1.8-.8-1-.3-2.1-.4-3.1-.6-.8-.1-1.7-.2-2.6-.4-.4,0-.9-.2-1.4-.2s0,0,0,0c-.4,0-.8.1-1.2.2-.2,0-.3,0-.5.1-.5,0-.9.1-1.4.2-.3,0-.7,0-1,.1-2.1.3-4.1,1.3-6.2,3-2,1.6-3.5,3.1-4.5,4.5-.3.4-.5.9-.4,1.1,0,0,.2.1.3.1h0Z"/>
      <path class="st0" d="M11.4,22.3c.2,0,.4.1.5.2,3.4,1.3,5.8,3,7.2,5.2,1,1.5,2.2,3.8,2.6,6.2,0,.7.2,1.4.2,2.1,0,1.5.3,2.9,1,4.2.5,1,1.5,2.5,2.8,3.7,1.1,1,2.2,1.7,3.2,2.1,1.1.4,2.2.6,3.3.8,1.3.2,2.4.3,3.7.3s3.7-.2,5.7-.5c2.4-.3,4.3-2.6,5.9-4.5h0c.2-.2.3-.4.5-.6.4-.5.8-1.1.7-1.6-.4,0-.7.6-1,1.1h0c-.4.9-1.1,1.5-1.7,2.1-.8.8-1.5,1.5-2.5,2.1-1.4.8-3.1,1-4.6,1.1-1.2,0-2.2,0-3.2,0-2.6,0-4.7-.4-6.5-1.2-1.9-.9-3.7-2.4-5.6-4.8-.3-.4-.7-.9-.8-1.4-.2-.5-.2-1.1-.2-1.7h0c0-3.7-.8-6.7-2.4-9-.5-.7-1.1-1.4-1.7-2-1.1-1.1-2.4-2.4-3.9-3.5h0c-.9-.6-2.6-1.8-3.7-1.8s-.2,0-.2,0c-.2,0-.5.2-.6.4v.2c0,.1,1,.4,1.4.5v.2Z"/>
      <path class="st0" d="M11.4,24.3c4.7,1.5,8.3,6.2,8.9,11.3v1.2c0,1.1.2,2.3.6,3.4,0,.3.3.5.4.8.2.3.4.6.5,1,0,0,0,.3,0,.4,0,.3.2.6.4.8.2.3.6.6.9.8,2.5,1.9,5.3,4,8.5,4.7.8.2,1.8.3,2.8.3h0c1.1,0,2.2,0,3.5-.2,1.4,0,2.9-.3,4.4-.7l5.5-3.3c1-.9,2-1.8,2.1-3.1h-.3c-.4,0-.9.4-1.5,1.2-1.7,2.4-4.4,4.2-7.2,4.9-1.2.3-2.5.4-4.3.4h-2c-1.2,0-2.5,0-3.7-.4-1-.3-2-.7-2.9-1.1-1.6-.7-3.5-1.6-4.7-3.1-1.1-1.3-1.5-3-1.8-4.3-.2-1-.4-2-.5-3-.4-2.7-.9-5.4-2.4-7.6-1.7-2.5-4.6-4-7.3-5.3h0c-.3-.2-.8-.4-1.1-.4s-.2,0-.2,0v.3c0,.5,1.1.8,1.5,1h-.2Z"/>
      <path class="st0" d="M51.2,43.1h0s0,0-.2,0c-.5.5-1,1.1-1.4,1.6-.5.7-1,1.5-1.8,2-.7.5-1.5.7-2.2,1-.4,0-.7.2-1.1.4l-1.2.6c-.5.3-1.1.5-1.7.7-1,.3-2,.4-3,.5-1.2,0-2.5.2-3.8.2s-2.6,0-3.7-.4c-2.1-.5-4-1.6-5.7-2.7-.9-.5-1.7-1-2.4-1.7-1.5-1.4-2.6-3.7-3.2-6.4-.2-.8-.3-1.6-.4-2.4-.2-1.5-.4-2.9-.9-4.2-.8-2.2-2.3-4.1-4.2-5.6-1-.7-2-1.3-3.1-1.7h-.2c-.3-.1-.7-.3-.9-.3h-.2c0,.3.6.6,1,.8,4,1.5,7.1,5.3,7.7,9.6,0,.5,0,1,0,1.5s0,1.2.2,1.8c.3,1.5.8,2.8,1.5,4.3.5,1.1,1.2,2.6,2.2,3.6s2.2,1.5,3.4,2c1,.5,2,.9,3,1.3.8.3,1.7.5,2.7.7,1.3.2,2.6.4,3.9.4h0c5.3,0,10.6-2,14.6-5.4.6-.5,1.3-1.2,1.2-2,0-.2,0-.4-.2-.4h0Z"/>
    </g>
  </g>
</svg>