<?xml version="1.0" encoding="UTF-8"?>
<svg id="Layer_1" xmlns="http://www.w3.org/2000/svg" version="1.1" viewBox="0 0 595.3 841.9">
  <!-- Generator: Adobe Illustrator 29.5.0, SVG Export Plug-In . SVG Version: 2.1.0 Build 137)  -->
  <defs>
    <style>
      .st0 {
        fill: #ca7172;
      }
    </style>
  </defs>
  <g>
    <path class="st0" d="M297.3,435v-.7h-.1c-.3.4-.9.8-1.7.8s-1.7-.8-1.7-1.6c0-1.3,1.2-2.1,3.3-2.1h0c0-.6-.1-1.4-1.3-1.4-.5,0-1,.2-1.4.4l-.2-.7c.5-.3,1.1-.5,1.8-.5,1.7,0,2.1,1.2,2.1,2.3v2.1c0,.5,0,.9,0,1.3h-.9ZM297.1,432.2c-1.1,0-2.3.2-2.3,1.2s.4,1,.9,1c.7,0,1.2-.5,1.3-.9,0-.1,0-.2,0-.3v-1Z"/>
    <path class="st0" d="M299.7,431c0-.6,0-1,0-1.5h.9v.9h0c.3-.5.9-1,1.8-1s1.9.5,1.9,2.3v3.3h-1v-3.2c0-.9-.3-1.6-1.3-1.6s-1.2.5-1.4,1c0,.1,0,.3,0,.5v3.3h-1v-4Z"/>
    <path class="st0" d="M307.2,427.9v1.6h1.4v.8h-1.4v3c0,.7.2,1.1.8,1.1s.4,0,.6,0v.8c-.1,0-.5.1-.8.1s-.8-.2-1.1-.4c-.3-.3-.4-.8-.4-1.4v-3h-.9v-.8h.9v-1.3l1-.3Z"/>
    <path class="st0" d="M312.8,435v-.7h-.1c-.3.4-.9.8-1.7.8s-1.7-.8-1.7-1.6c0-1.3,1.2-2.1,3.3-2.1h0c0-.6-.1-1.4-1.3-1.4-.5,0-1,.2-1.4.4l-.2-.7c.5-.3,1.1-.5,1.8-.5,1.7,0,2.1,1.2,2.1,2.3v2.1c0,.5,0,.9,0,1.3h-.9ZM312.6,432.2c-1.1,0-2.3.2-2.3,1.2s.4,1,.9,1c.7,0,1.2-.5,1.3-.9,0-.1,0-.2,0-.3v-1Z"/>
    <path class="st0" d="M324.2,431.6c0-1.1-.1-2.4-.1-3.3h0c-.3.9-.6,1.9-1,2.9l-1.4,3.7h-.7l-1.3-3.7c-.4-1.1-.7-2.1-.9-3h0c0,1,0,2.2-.2,3.4l-.2,3.3h-.9l.5-7.7h1.3l1.3,3.7c.3.9.6,1.8.8,2.6h0c.2-.8.5-1.6.8-2.6l1.4-3.7h1.3l.5,7.7h-1l-.2-3.4Z"/>
    <path class="st0" d="M329.9,435v-.7h-.1c-.3.4-.9.8-1.7.8s-1.7-.8-1.7-1.6c0-1.3,1.2-2.1,3.3-2.1h0c0-.6-.1-1.4-1.3-1.4-.5,0-1,.2-1.4.4l-.2-.7c.5-.3,1.1-.5,1.8-.5,1.7,0,2.1,1.2,2.1,2.3v2.1c0,.5,0,.9,0,1.3h-.9ZM329.8,432.2c-1.1,0-2.3.2-2.3,1.2s.4,1,.9,1c.7,0,1.2-.5,1.3-.9,0-.1,0-.2,0-.3v-1Z"/>
    <path class="st0" d="M332.4,431.2c0-.7,0-1.2,0-1.7h.9v1.1h0c.3-.7.9-1.2,1.5-1.2s.2,0,.3,0v.9c-.1,0-.2,0-.3,0-.7,0-1.2.5-1.3,1.3,0,.1,0,.3,0,.5v2.9h-1v-3.8Z"/>
    <path class="st0" d="M337.3,427.9c0,.3-.2.6-.6.6s-.6-.3-.6-.6c0-.3.3-.6.6-.6s.6.3.6.6ZM336.1,435v-5.5h1v5.5h-1Z"/>
    <path class="st0" d="M341.9,435v-.7h-.1c-.3.4-.9.8-1.7.8s-1.7-.8-1.7-1.6c0-1.3,1.2-2.1,3.3-2.1h0c0-.6-.1-1.4-1.3-1.4-.5,0-1,.2-1.4.4l-.2-.7c.5-.3,1.1-.5,1.8-.5,1.7,0,2.1,1.2,2.1,2.3v2.1c0,.5,0,.9,0,1.3h-.9ZM341.7,432.2c-1.1,0-2.3.2-2.3,1.2s.4,1,.9,1c.7,0,1.2-.5,1.3-.9,0-.1,0-.2,0-.3v-1Z"/>
    <path class="st0" d="M351.5,426.9v6.7c0,.5,0,1,0,1.4h-.9v-1h0c-.3.6-1,1.1-1.9,1.1-1.3,0-2.4-1.1-2.4-2.8,0-1.8,1.1-3,2.5-3s1.4.4,1.7.8h0v-3.3h1ZM350.5,431.7c0-.1,0-.3,0-.4-.2-.6-.7-1.2-1.5-1.2s-1.7.9-1.7,2.1.6,2,1.6,2,1.3-.5,1.5-1.2c0-.1,0-.3,0-.4v-1Z"/>
    <path class="st0" d="M353.7,432.4c0,1.4.9,1.9,1.9,1.9s1.2-.1,1.5-.3l.2.7c-.4.2-1,.4-1.8.4-1.7,0-2.7-1.1-2.7-2.8s1-3,2.6-3,2.3,1.6,2.3,2.6,0,.4,0,.5h-3.9ZM356.6,431.7c0-.6-.3-1.6-1.4-1.6s-1.5.9-1.5,1.6h2.9Z"/>
    <path class="st0" d="M358.9,426.9h1v8.1h-1v-8.1Z"/>
    <path class="st0" d="M361.5,426.9h1v8.1h-1v-8.1Z"/>
    <path class="st0" d="M367.3,435v-.7h-.1c-.3.4-.9.8-1.7.8s-1.7-.8-1.7-1.6c0-1.3,1.2-2.1,3.3-2.1h0c0-.6-.1-1.4-1.3-1.4-.5,0-1,.2-1.4.4l-.2-.7c.5-.3,1.1-.5,1.8-.5,1.7,0,2.1,1.2,2.1,2.3v2.1c0,.5,0,.9,0,1.3h-.9ZM367.1,432.2c-1.1,0-2.3.2-2.3,1.2s.4,1,.9,1c.7,0,1.2-.5,1.3-.9,0-.1,0-.2,0-.3v-1Z"/>
    <path class="st0" d="M372,433.8c.4.3,1.1.5,1.8.5,1,0,1.6-.5,1.6-1.3s-.4-1.1-1.5-1.5c-1.3-.4-2-1.1-2-2.2s1-2.1,2.5-2.1,1.4.2,1.7.4l-.3.8c-.2-.1-.8-.4-1.5-.4-1.1,0-1.5.6-1.5,1.1s.5,1.1,1.5,1.5c1.3.5,2,1.1,2,2.3s-.9,2.2-2.7,2.2-1.6-.2-2-.5l.3-.8Z"/>
    <path class="st0" d="M378.9,427.9v1.6h1.4v.8h-1.4v3c0,.7.2,1.1.8,1.1s.4,0,.6,0v.8c-.1,0-.5.1-.8.1s-.8-.2-1.1-.4c-.3-.3-.4-.8-.4-1.4v-3h-.9v-.8h.9v-1.3l1-.3Z"/>
    <path class="st0" d="M381.5,431.2c0-.7,0-1.2,0-1.7h.9v1.1h0c.3-.7.9-1.2,1.5-1.2s.2,0,.3,0v.9c-.1,0-.2,0-.3,0-.7,0-1.2.5-1.3,1.3,0,.1,0,.3,0,.5v2.9h-1v-3.8Z"/>
    <path class="st0" d="M388.2,435v-.7h-.1c-.3.4-.9.8-1.7.8s-1.7-.8-1.7-1.6c0-1.3,1.2-2.1,3.3-2.1h0c0-.6-.1-1.4-1.3-1.4-.5,0-1,.2-1.4.4l-.2-.7c.5-.3,1.1-.5,1.8-.5,1.7,0,2.1,1.2,2.1,2.3v2.1c0,.5,0,.9,0,1.3h-.9ZM388.1,432.2c-1.1,0-2.3.2-2.3,1.2s.4,1,.9,1c.7,0,1.2-.5,1.3-.9,0-.1,0-.2,0-.3v-1Z"/>
    <path class="st0" d="M395.4,426.9v6.7c0,.5,0,1,0,1.4h-.9v-1h0c-.3.6-1,1.1-1.9,1.1-1.3,0-2.4-1.1-2.4-2.8,0-1.8,1.1-3,2.5-3s1.4.4,1.7.8h0v-3.3h1ZM394.4,431.7c0-.1,0-.3,0-.4-.2-.6-.7-1.2-1.5-1.2s-1.7.9-1.7,2.1.6,2,1.6,2,1.3-.5,1.5-1.2c0-.1,0-.3,0-.4v-1Z"/>
    <path class="st0" d="M400.1,435v-.7h-.1c-.3.4-.9.8-1.7.8s-1.7-.8-1.7-1.6c0-1.3,1.2-2.1,3.3-2.1h0c0-.6-.1-1.4-1.3-1.4-.5,0-1,.2-1.4.4l-.2-.7c.5-.3,1.1-.5,1.8-.5,1.7,0,2.1,1.2,2.1,2.3v2.1c0,.5,0,.9,0,1.3h-.9ZM400,432.2c-1.1,0-2.3.2-2.3,1.2s.4,1,.9,1c.7,0,1.2-.5,1.3-.9,0-.1,0-.2,0-.3v-1Z"/>
  </g>
  <g>
    <path class="st0" d="M190.2,411.2c0-1.1-.1-2.4-.1-3.3h0c-.3.9-.6,1.9-1,2.9l-1.4,3.7h-.7l-1.3-3.7c-.4-1.1-.7-2.1-.9-3h0c0,1,0,2.2-.2,3.4l-.2,3.3h-.9l.5-7.7h1.3l1.3,3.7c.3.9.6,1.8.8,2.6h0c.2-.8.5-1.6.8-2.6l1.4-3.7h1.3l.5,7.7h-1l-.2-3.4Z"/>
    <path class="st0" d="M196,414.6v-.7h-.1c-.3.4-.9.8-1.7.8s-1.7-.8-1.7-1.6c0-1.3,1.2-2.1,3.3-2.1h0c0-.6-.1-1.4-1.3-1.4-.5,0-1,.2-1.4.4l-.2-.7c.5-.3,1.1-.5,1.8-.5,1.7,0,2.1,1.2,2.1,2.3v2.1c0,.5,0,.9,0,1.3h-.9ZM195.8,411.8c-1.1,0-2.3.2-2.3,1.2s.4,1,.9,1c.7,0,1.2-.5,1.3-.9,0-.1,0-.2,0-.3v-1Z"/>
    <path class="st0" d="M199.6,407.5v1.6h1.4v.8h-1.4v3c0,.7.2,1.1.8,1.1s.4,0,.6,0v.8c-.1,0-.5.1-.8.1s-.8-.2-1.1-.4c-.3-.3-.4-.8-.4-1.4v-3h-.9v-.8h.9v-1.3l1-.3Z"/>
    <path class="st0" d="M202.1,410.8c0-.7,0-1.2,0-1.7h.9v1.1h0c.3-.7.9-1.2,1.5-1.2s.2,0,.3,0v.9c-.1,0-.2,0-.3,0-.7,0-1.2.5-1.3,1.3,0,.1,0,.3,0,.5v2.9h-1v-3.8Z"/>
    <path class="st0" d="M207,407.5c0,.3-.2.6-.6.6s-.6-.3-.6-.6c0-.3.3-.6.6-.6s.6.3.6.6ZM205.9,414.6v-5.5h1v5.5h-1Z"/>
    <path class="st0" d="M212.5,414.4c-.3.1-.8.3-1.6.3-1.7,0-2.8-1.1-2.8-2.8s1.2-2.9,3-2.9,1.1.1,1.4.3l-.2.8c-.2-.1-.6-.3-1.2-.3-1.3,0-1.9.9-1.9,2.1,0,1.3.8,2.1,1.9,2.1s.9-.1,1.2-.3l.2.8Z"/>
    <path class="st0" d="M214.2,412c0,1.4.9,1.9,1.9,1.9s1.2-.1,1.5-.3l.2.7c-.4.2-1,.4-1.8.4-1.7,0-2.7-1.1-2.7-2.8s1-3,2.6-3,2.3,1.6,2.3,2.6,0,.4,0,.5h-3.9ZM217.1,411.3c0-.6-.3-1.6-1.4-1.6s-1.5.9-1.5,1.6h2.9Z"/>
  </g>
  <g>
    <path class="st0" d="M287.1,403.8c-.6,0-4.2,1-4.4,1.1,0,0,0,0,0,0-2.8,1.5-4.3,3.8-4.3,7,0,.4,0,.9.1,1.3,0,.5.3,1,.4,1.5.2.6.4,1.2.8,1.8.5.6,1.2,1.1,1.8,1.5.8.5,1.5,1,2.3,1.3.2,0,.7.3,1.2.4h0c.3,0,.5.2.6.2,1,.4,3.4,2.7,3.7,3.3,0,0,0,0,0,0,.5.6.5,1.9.5,2.2-.1.8-.5,1.2-.6,1.4-.2.3-.3.7-.4,1.1-.1.5-.2,1.1-.7,1.3-.2.1-.8.5-1.5,1.1-1.5,1.1-3.7,2.2-4.5,2.6-3.7,1.8-7.1,0-7.6-.1-.2-.2-.5-.3-1-.4-3.8-.7-7-3.5-8.3-7.1-.4-1.1-.6-2.2-.8-3.3-.2-1-.4-2-.7-3-1.1-3.2-3.6-6-7.1-7.8-2.9-1.5-6.4-2.2-10.5-2.3,0,0-.1,0-.2,0-.3,0-.6,0-1,0-.5.1-.9.4-1.3.6l-5.3,3.1c-1.2.7-2,1.5-2.9,2.5,0,0-.1.1-.2.2-.5.5-2.2,2.1-1.7,2.7,0,0,.1,0,.2,0,.4,0,1.1-1.2,1.4-1.8.2-.3.3-.5.4-.6.9-1.1,2-2.1,3.4-2.9,1.9-1.2,4-1.9,6.1-2.7.6-.2,1.3-.5,2-.6.2,0,.4,0,.6,0,.8,0,1.7.2,2.5.4.7.2,1.4.3,2.1.5,4.3,1.1,7.6,3.4,9.5,6.6,1.1,1.9,1.5,3.9,1.9,6.1,0,.5.2,1,.3,1.4.6,2.7,2.1,5.2,4.1,6.6.6.4,1.4.8,2.1,1.1l2.8,1.3c.3.1,2.8.5,2.9.6.4.3,1.9.6,2.6.6,1.7,0,2.5-.7,3.4-.8.5,0,2.1-.8,2.2-1h0s0,0,0,0c0,0,3.1-1.7,3.3-1.9.5-.4,1.1-.6,1.7-1.2,0,0,.1-.3.2-.5.1-.4.7-1.6.7-1.7,0-.2,0-.3.2-.5,0,0,.5-1.4.6-1.6.3-1,.2-2-.5-2.9-.7-.9-1.5-2-2.7-2.7-.7-.4-1.5-.7-2.3-1-.4-.2-.9-.3-1.3-.5-1.4-.6-2.5-1.4-3.1-2.2-.3-.4-.5-.8-.7-1.2-.4-.9-.8-1.8-.9-2.7,0-1.1.3-2.1.7-3.1.2-.4,2.3-3.1,2.6-3.3.2-.1,2.2-1.2,2.9-1.2s.9,0,1.1,0c.6,0,1.4-.3,1.6-.4,0,0,.5-.3.9-.3s1.5-.4,1.5-.4c0,0,0,0,0,0,.2-.3,0-.6-.4-.6-.5.1-1,.3-1.5.4-.6.2-1.2.4-1.5.4Z"/>
    <path class="st0" d="M292.6,421.7c-.7-.9-1.5-2-2.7-2.7-.5-.3-2.1-.9-2.9-1.3h0c-.3-.1-.5-.2-.6-.3-1.4-.6-3.5-2.9-3.7-3.4h0c-.4-1-.8-1.9-.8-2.7,0-.6,0-1.1.3-1.3.7-.7,1.4-2,1.6-2.2.1,0,.4-.2,1-.4.4-.1.9-.3,1.1-.4.3-.1,1.2-.7,2.4-.7.1,0,.2,0,.3,0l.6-.2c1.6,0,1.7-.2,1.8-.4,0,0,0-.2,0-.3-.5-.5-3.9,0-5.4.7-.2,0-1.5.5-2,.8-.8.5-1.6,1.7-2.8,4.2-.1.3,0,.6,0,.9,0,0,0,.1,0,.2.1.5.3,1.1.4,1.6.2.6.4,1.3.8,1.8.5.6,1.2,1.1,1.8,1.5.8.5,1.5,1,2.3,1.3.3.1.7.2,1,.3.3,0,2.7,1.2,3.5,2,.5.5,1.5,3.1,1.5,3.5,0,1.2-.4,2.1-.5,2.4-.1.6-.2,1.2-.6,1.6-.2.2-.4.6-.7,1-.4.7-.8,1.3-1.2,1.6-.2.1-.5.4-.8.7-.5.5-.9.9-1.3,1.1,0,0-3.8,1.8-4,1.8-1.1.3-2.5.8-3,1,0,0-1.1.1-1.4,0-1.2-.2-6.4-1.2-6.9-1.2,0,0-.2,0-.3,0-2.2-.3-4.4-1.7-6.1-3.6-1.4-1.7-2.4-3.9-3-6.5-.2-.7-.3-1.4-.4-2-.3-1.5-.6-3-1.2-4.4-1.6-3.5-5.3-6.2-9.9-7.1-1-.2-1.8-.3-2.6-.3s-1.2,0-1.8.2c-1.2.2-2.4.8-3.3,1.2-1.9.8-3.7,1.7-5.2,2.8-1.2.9-2.8,2.5-3.4,4.6,0,.3.1,1.5.3,2,.7-2.1,1.1-2.9,1.3-3.4,1.4-2.9,5.3-6,11-6.2,0,0,.2,0,.3,0,1.3,0,2.7.3,4,.6h0c.2,0,.4,0,.5.1.8.2,1.6.4,2.4.7,3,1.2,5.3,4.2,6.8,8.6.2.5.4,1.1.4,1.8,0,.5,0,1,0,1.5,0,.5-.1.9,0,1.4,0,1,.5,2,1.3,3.2.8,1.1,1.7,2,2.7,2.8,2.4,1.8,5.4,2.8,8,3.6,0,0,0,0,0,0,.4,0,.9,0,1.9,0,.6,0,4.3.3,5.2.3h0c.4,0,3-1.3,3-1.3,0,0,2.7-1.2,3.1-1.5,1-.9,2.4-1.7,2.9-2.4,0-.1.7-1,1.1-1.6.5-.7,1-1.5,1.2-1.7.1-.1.7-1.4.8-1.5,0-.1,0-.5,0-.8,0-.6,0-.8,0-.9.3-1,.2-2-.5-2.9Z"/>
    <path class="st0" d="M257.5,417.8c-.2-.1-.5-.2-.7-.4-.4-.2-.9-.4-1.2-.7-.2-.2-.3-.5-.5-.8,0-.1-.2-.3-.2-.4-.8-1.3-2.8-2.3-4.5-2.3s-.6,0-.9.1c-.3,0-.5.1-.7.2-.4.1-.7.3-1.1.3s-.1,0-.2,0c-.5,0-1.2-.2-1.8-.3-.2,0-.5,0-.7,0-1.9,0-3.5,1.4-5,4.2-.3.5-.8.5-1.1.5s-.1,0-.2,0c0,0-.1,0-.2,0-.4,0-.7,0-.9.4-.2.2-.3.4-.4.6-.4.4-.5.7-.8,1.4-.2.6-.4,2-.3,2.4,0,.1,0,.2,0,.4,0,.6.2,1.4,1.1,1.5h.2s0,.2,0,.2c-.8,2.6-.5,4.4.7,5.1.2.1.4.2.6.3.2.1.5.2.7.4.2.1.5.5.7.9.1.2.3.4.4.5l.2.3c1.1,1.1,1.5,1.5,3.1,1.9.3,0,.7.1,1,.1.7,0,1.2-.2,1.7-.4.4-.2.7-.3,1.1-.3s.3,0,.5,0h0s0,0,0,0c.5.4,1.5.7,2.8.7h0c2.1,0,4.6-.7,5.1-1.9,0-.2.1-.3.2-.5.1-.4.3-.9.7-1.1.2-.2.5-.2.7-.3.1,0,.3,0,.4-.1.6-.3,1-.9,1.2-1.3.5-1.1.6-2.3.3-3.5,0-.1,0-.3-.1-.5-.1-.4-.2-.7-.3-1.1,0-.7.1-1.3.3-1.8.6-2.1,0-3.7-1.7-4.8ZM249.1,414.4c.3-.2.7-.4,1.2-.4.9,0,2,.4,2.5.9.7.6,1.3,1.4,1.4,2.3,0,.2,0,.6,0,.9-.1.3-.4.5-.6.7l-1.7,1.3c0,0-.2.1-.3.1s0,0,0,0c-.1,0-.2-.2-.2-.2-.3-.6-1.2-.8-1.7-.8-.1,0-.3,0-.5-.1-.3-.2-.3-.5-.3-.7l-.2-1.9c0-.8-.1-1.7.5-2.2ZM251.9,421.5c0,0,.2,0,.3,0,.3.1.4.3.6.5.1.2.3.4.3.7,0,.2,0,.3-.1.4l-.2.4c0,0,0,.2-.2.3-.2.1-.4.1-.5.1h-1.6c-.2,0-.5,0-.8-.1-.2-.1-.4-.3-.4-.5,0-.5.7-.9,1.6-1.4.1,0,.2-.1.3-.2.3-.2.6-.3.9-.3ZM248,422.1c0,0,0-.1,0-.2,0-.5,0-1,.1-1.4,0-.2,0-.5.3-.6.1,0,.3-.1.4-.1s0,0,.1,0c.4,0,.9,0,1.3.3.2.1.3.3.4.5.1.1.3.3.3.6,0,.4-.3.6-.5.8-.4.4-.9.7-1.3,1.1,0,0-.2,0-.3,0-.2,0-.6-.1-.8-.3-.2-.2-.2-.5-.1-.7ZM241.5,416.7c0-.1.2-.2.3-.3.2-.3.5-.6.8-.9,1-.9,2.4-1,3.9-1,0,0,0,0,.1,0,.2,0,.4,0,.5.1.3.2.4.5.4.9,0,1.1.1,1.6.1,2.7,0,0,0,.2,0,.3,0,.3-.3.6-.6.6,0,0-.1,0-.2,0-.3,0-.4,0-.6-.1-.1,0-.3,0-.5,0s0,0,0,0c-.6,0-1,.4-1.5.8h0c-.2.2-.3.3-.5.4,0,0-.2,0-.2,0-.3,0-.6-.1-.8-.3-.7-.4-1.2-.9-1.6-1.5-.5-.7,0-1.2.4-1.7ZM246.1,424.1h-.7c-.3,0-.6,0-.8,0s-.5,0-.7,0c-.2,0-.4,0-.5-.2-.3-.2-.3-.6-.3-.9,0-.5.1-.9.4-1.1.2-.3.6-.5,1-.5s.1,0,.2,0c.4,0,.6.3.9.6.1.1.3.3.4.4,0,0,.9.5,1,1.1,0,.2,0,.4-.2.5-.2.2-.4.2-.6.2ZM246.1,425.5c-.1,0-.2.2-.4.4,0,0-.1.2-.2.3-.1.1-.2.2-.3.3l-.4.4c-.1.1-.3.3-.5.3,0,0-.1,0-.2,0-.2,0-.4,0-.6-.2-.2-.2-.4-.4-.5-.6-.1-.2-.2-.4-.3-.7,0-.3,0-.6.2-.8.2-.3.6-.3.9-.4.1,0,.5,0,.9,0,1.6,0,1.7.3,1.8.5,0,.3-.2.5-.4.6ZM245.5,421.4c-.4-.4-.4-.5-.2-1,.1-.3.4-.6.7-.8.2,0,.4-.1.6-.1s.4,0,.6,0c0,0,.2,0,.3.1.1.1.1.3.1.4v2.5c0,.3,0,.4-.3.5h0c-.2,0-.3-.1-.3-.2l-1.4-1.5ZM236.9,422.1c0-.9,0-1.7.5-2.4.2-.3.4-.5.7-.7.3-.1.5-.2.8-.2.8,0,1.5.5,2.1,1l1.2.9c.3.2.3.6.2.9-.2.3-.4.8-.4.8-.1.4,0,.8,0,1.2,0,0,0,.2,0,.3,0,.3,0,.5-.1.7-.1.1-.3.2-.5.2s-.2,0-.3,0c-.5,0-.9,0-1.4-.1-.2,0-.4,0-.7,0-.4,0-1,0-1.4-.4-.6-.5-.7-1.3-.7-2.1ZM239.9,430.1c-.2,0-.3.2-.5.2s-.4,0-.5-.2c-1-.7-1.6-1.8-1.5-3.1,0-1,.4-1.7,1-2,.3-.1.6-.1.9-.1s0,0,.1,0h2.2c.1,0,.4,0,.5.2,0,0,0,.2,0,.3,0,.1,0,.3,0,.4,0,.3,0,.6,0,.8,0,.3.1.5.3.7.2.3.2.7,0,.9-.8.7-1.7,1.3-2.6,1.8ZM247.1,432.9c-.1.3-.4.4-.7.6-.3.1-.7.3-1.1.3,0,0,0,0-.1,0-.2,0-.4,0-.6,0-.2,0-.5,0-.7,0-.8,0-1.7-.2-2.3-.8-.4-.4-.6-.8-.9-1.2,0-.1-.2-.3-.2-.4,0-.3.2-.5.5-.7l1.8-1.3c.3-.3.8-.5,1.2-.5s.2,0,.3,0c.2,0,.4.2.5.3,0,0,0,0,.2.1.4.3,1,.4,1.4.5.4,0,.7.4.6.7,0,.6,0,1.3.1,1.9h0c0,.2,0,.5,0,.7ZM247.8,426.4c0,.7-.2,1.4-.4,2,0,.1,0,.3-.2.4,0,0-.2,0-.3,0s-.1,0-.2,0c-.4,0-.8-.2-1.1-.3-.2,0-.7-.2-.8-.7,0-.4.3-.8.4-.9.3-.3.5-.6.7-.8.2-.3.4-.6.7-.9,0,0,.1-.1.2-.2,0,0,0,0,.1,0,0,0,.2,0,.2,0,.4.2.6.7.6,1.3ZM247.1,424.3c0-.4.1-.7.4-.9,0,0,.2-.2.3-.2h0s0,0,0,0c0,0,.1,0,.2,0,.4,0,.8.2.9.6,0,.2,0,.4,0,.7,0-.1.2-.2.3-.3,0,0,.2,0,.4,0s.4,0,.6,0c.2,0,.4,0,.7,0,.6,0,1.3.1,1.7.6,0,0,.1.2.1.4,0,.4-.3,1.2-.5,1.4-.1.1-.3.2-.4.2s-.3,0-.5-.1h0c-.4-.2-.7-.4-1-.6-.2-.2-.5-.3-.8-.4,0,0,0,0-.1,0-.2,0-.4-.2-.5-.5,0-.2,0-.4,0-.5-.1.2-.3.3-.4.4-.1,0-.2,0-.3,0s-.1,0-.2,0c-.3,0-.7-.2-.8-.6ZM248.1,425.6c.1-.1.2-.2.4-.2.5,0,1.2.5,1.7.8.1,0,.2.1.3.2.3.2.7.4.7.8,0,.3-.1.5-.2.7-.5.7-1.3,1.1-2.2,1.1h0c-.1,0-.3,0-.5-.1-.2-.1-.2-.4-.2-.5l-.2-2.1c0-.3,0-.5.1-.6ZM254,433.4c-.7.4-1.4.5-2.2.6-.4,0-.9,0-1.3,0s-1.2,0-1.6-.3c-.2,0-.4-.2-.5-.4-.1-.2-.1-.4,0-.6,0-.3,0-.6,0-.9,0-.6,0-1.2,0-1.8,0-.3.3-.6.6-.6s.1,0,.2,0c.3,0,.7.2,1,.2.6,0,1-.2,1.4-.7h0c0,0,.1-.2.3-.2,0,0,.1,0,.2,0,.2,0,.4.1.5.2.6.6,1.4,1,2.2,1.4h0c.1,0,.3.1.4.3.2.2.3.5.3.8,0,.9-.7,1.6-1.3,1.9ZM257.7,429.7c0,0,0,.1-.1.2,0,0-.1.2-.3.3-.2.1-.4.2-.7.2s-.7-.1-1.2-.3c-.6-.3-1.2-.7-1.8-1.1-.3-.2-.5-.4-.7-.6-.2-.3-.2-.7,0-1,0-.1.2-.2.3-.3,0,0,0,0,.1-.1.4-.4.3-1,.3-1.4,0-.1,0-.3,0-.5.1-.3.4-.3.7-.4.2,0,.5,0,.7-.1.5,0,.9-.2,1.4-.2s.4,0,.6,0c.6.1,1,.4,1.3.8.1.2.2.5.3.7.4,1.8.1,2.8-.9,3.7ZM258.9,421c-.1.8-.3,1.8-.9,2.6,0,.1-.2.3-.4.4-.1,0-.3,0-.4,0h-3.2c-.2.1-.4,0-.5-.1-.1-.1-.1-.3,0-.5.1-.4.1-.9,0-1.3,0-.3-.2-.4-.3-.6-.1-.1-.3-.2-.6-.3-.1,0-.2,0-.3-.1-.2,0-.3-.3-.3-.5,0-.2,0-.4.2-.5l2.1-1.7c.2-.2.5-.4.8-.4,0,0,.1,0,.2,0,.2,0,.4,0,.6,0,0,0,0,0,0,0,1.2,0,1.5.4,2.1,1.1v.2c.3.2.6.9.7,1,0,0,0,.1,0,.2,0,.2.1.3.1.5Z"/>
    <path class="st0" d="M233.1,416.7h0s0,0,.1,0c.4,0,.7-.6.9-1.1.1-.3.2-.5.3-.7,1.3-1.8,2.7-2.9,4.6-3.9.3-.2,1.1-.9,1.5-1.2,0,0,.1-.1.2-.1.2-.2.7-.3,1-.4,0,0,.2,0,.3,0,1.9-.6,3.4-1.1,5.2-1.1s.8,0,1.2,0c1.4.1,2.9.3,4.2.6,2.1.6,4.3,1.6,6.9,3.4,2.2,1.5,3.9,3.8,4.9,6.3.4,1,.6,2.1.8,3.1,0,.3.1.6.2.9.5,2.1,1.3,4.5,2.9,6.2.5.5,1.1,1,1.7,1.4,1,.8,2.6,1.3,3.6,1.6s1.9.3,2.5.3c.3,0,1.3.2,2.2.4s2.1,0,2.8-.1c1.2-.2,3.2-1.3,3.4-1.6.5-.7,1.2-1.1,1.9-1.4.4-.2.7-.3.9-.5.2-.2.7-.9.7-1,.2-.3.3-.6.3-.9,0-.2,0-.3,0-.5.3-1,.2-2-.5-2.9-.7-.9-1.5-2-2.7-2.7-.7-.4-1.5-.7-2.3-1-.4-.2-.9-.3-1.3-.5-1.4-.6-2.5-1.4-3.1-2.2-.3-.4-.5-.8-.7-1.2-.4-.9-.8-1.8-.9-2.7,0-1.1-.2-1.7.3-2.7s.4-1.9.6-2.1c0,0,.3-.5.6-.9.5-.8.9-1.3,1-1.4.2-.2,2.2-2,2.4-2.1.1,0,2.3-1.3,3-1.3s1.1,0,1.8-.2c.6,0,1.1-.1,1.3-.1s.7-.2.9-.4c.1-.2.2-.4.1-.6,0,0,0,0-.2,0-.5,0-1.4.3-1.5.3,0,0,0,0,0,0-.5,0-2,0-2.1,0-1.2,0-3.2,1.5-3.5,1.9-.6.6-1.5,1.1-2.2,1.5-.3.2-.5.2-.7.5-.2.2-.3.5-.5.8h0c-1.1,2.2-2,3.9-2,6.7,0,.4,0,.9.1,1.3,0,.5.3,1,.4,1.5.2.6.4,1.2.8,1.8.5.6,3.4,2.5,4.1,2.8.3.1.7.2,1,.3.3,0,2.7,1.2,3.5,2,.5.5.8,1,1,1.6h0s0,0,0,0c.4.6.7,1.3.6,2s-1,1.5-1.1,1.6c-.1.1-3.3,2.5-3.6,2.8-.5.4-1.4.8-2.2.9s-2.2,0-2.8-.1c-.3,0-2.1-.4-2.4-.4-1-.1-1.4-.4-2.1-.6-.1,0-1.1-.5-1.5-.6-.6-.2-1.3-.5-1.9-.8-1.3-.8-2.3-2.2-3-4.3-.3-.9-.5-1.9-.7-2.8-.2-.8-.3-1.6-.6-2.3-.9-3.1-2.8-6-5.2-8.1-.9-.8-1.8-1.3-2.6-1.7-.3-.2-.7-.3-1-.5-.6-.3-1.2-.7-1.8-.8-1-.3-2.1-.4-3.1-.6-.8-.1-1.7-.2-2.6-.4-.4,0-.9-.2-1.4-.2s0,0-.1,0c-.4,0-.8.1-1.2.2-.2,0-.3,0-.5.1-.5,0-.9.1-1.4.2-.3,0-.7,0-1,.1-2.1.3-4.1,1.3-6.2,3-2,1.6-3.5,3.1-4.5,4.5-.3.4-.5.9-.4,1.1,0,0,.2.1.3.1Z"/>
    <path class="st0" d="M223,411.8c.2,0,.4.1.5.2,3.4,1.3,5.8,3,7.2,5.2,1,1.5,2.2,3.8,2.6,6.2.1.7.2,1.4.2,2.1.1,1.5.3,2.9,1,4.2.5,1,1.5,2.5,2.8,3.7,1.1,1,2.2,1.7,3.2,2.1,1.1.4,2.2.6,3.3.8,1.3.2,2.4.3,3.7.3,1.8,0,3.7-.2,5.7-.5,2.4-.3,4.3-2.6,5.9-4.5h0c.2-.2.3-.4.5-.6.4-.5.8-1.1.7-1.6-.4,0-.7.6-1,1.1h0c-.4.9-1.1,1.5-1.7,2.1-.8.8-1.5,1.5-2.5,2.1-1.4.8-3.1,1-4.6,1.1-1.2,0-2.2.1-3.2.1-2.6,0-4.7-.4-6.5-1.2-1.9-.9-3.7-2.4-5.6-4.8-.3-.4-.7-.9-.8-1.4-.2-.5-.2-1.1-.2-1.7h0c0-3.7-.8-6.7-2.4-9-.5-.7-1.1-1.4-1.7-2-1.1-1.1-2.4-2.4-3.9-3.5h0c-.9-.6-2.6-1.8-3.7-1.8s-.2,0-.2,0c-.2,0-.5.2-.6.4,0,0,0,.1,0,.2,0,.1,1,.4,1.4.5Z"/>
    <path class="st0" d="M223.1,413.7c4.7,1.5,8.3,6.2,8.9,11.3,0,.4,0,.8,0,1.2,0,1.1.2,2.3.6,3.4.1.3.3.5.4.8.2.3.4.6.5,1,0,.1,0,.3.1.4,0,.3.2.6.4.8.2.3.6.6.9.8,2.5,1.9,5.3,4,8.5,4.7.8.2,1.8.3,2.8.3h0c1.1,0,2.2,0,3.5-.2,1.4-.1,2.9-.3,4.4-.7l5.5-3.3c1-.9,2-1.8,2.1-3.1,0,0-.2,0-.3,0-.4,0-.9.4-1.5,1.2-1.7,2.4-4.4,4.2-7.2,4.9-1.2.3-2.5.4-4.3.4s-1.3,0-2,0c-1.2,0-2.5,0-3.7-.4-1-.3-2-.7-2.9-1.1-1.6-.7-3.5-1.6-4.7-3.1-1.1-1.3-1.5-3-1.8-4.3-.2-1-.4-2-.5-3-.4-2.7-.9-5.4-2.4-7.6-1.7-2.5-4.6-4-7.3-5.3h0c-.3-.2-.8-.4-1.1-.4s-.2,0-.2,0c0,0,0,.2,0,.3,0,.5,1.1.8,1.5,1Z"/>
    <path class="st0" d="M262.9,432.5s0,0,0,0c0,0-.1,0-.2.1-.5.5-1,1.1-1.4,1.6-.5.7-1,1.5-1.8,2-.7.5-1.5.7-2.2,1-.4.1-.7.2-1.1.4-.4.2-.8.4-1.2.6-.5.3-1.1.5-1.7.7-1,.3-2,.4-3,.5-1.2,0-2.5.2-3.8.2s-2.6-.1-3.7-.4c-2.1-.5-4-1.6-5.7-2.7-.9-.5-1.7-1-2.4-1.7-1.5-1.4-2.6-3.7-3.2-6.4-.2-.8-.3-1.6-.4-2.4-.2-1.5-.4-2.9-.9-4.2-.8-2.2-2.3-4.1-4.2-5.6-1-.7-2-1.3-3.1-1.7,0,0-.1,0-.2,0-.3-.1-.7-.3-.9-.3s-.2,0-.2,0c0,0,0,0,0,.1.1.2.6.5,1,.7,4,1.5,7.1,5.3,7.7,9.6,0,.5.1,1,.1,1.5,0,.6,0,1.2.2,1.8.3,1.5.8,2.8,1.5,4.3.5,1.1,1.2,2.6,2.2,3.6.9.9,2.2,1.5,3.4,2,1,.5,2,.9,3,1.3.8.3,1.7.5,2.7.7,1.3.2,2.6.4,3.9.4h0c5.3,0,10.6-2,14.6-5.4.6-.5,1.3-1.2,1.2-2,0-.2-.1-.4-.2-.4Z"/>
  </g>
</svg>