<?xml version="1.0" encoding="UTF-8"?>
<svg xmlns="http://www.w3.org/2000/svg" version="1.1" viewBox="0 0 595.28 841.89">
  <defs>
    <style>
      .cls-1 {
        fill: #646464;
        opacity: .13;
      }

      .cls-2 {
        stroke: #656564;
        stroke-width: .25px;
      }

      .cls-2, .cls-3, .cls-4 {
        stroke-miterlimit: 10;
      }

      .cls-2, .cls-4 {
        fill: none;
      }

      .cls-5 {
        fill: #727272;
      }

      .cls-6 {
        fill: #87a491;
        opacity: .2;
      }

      .cls-7, .cls-3 {
        fill: #b57171;
      }

      .cls-8 {
        fill: #717171;
      }

      .cls-3 {
        stroke: #717171;
      }

      .cls-4 {
        stroke: #727272;
      }

      .cls-9 {
        fill: #9c6e6e;
      }
    </style>
  </defs>
  <!-- Generator: Adobe Illustrator 28.7.0, SVG Export Plug-In . SVG Version: 1.2.0 Build 136)  -->
  <g>
    <g id="alberi_chiari">
      <path class="cls-8" d="M383.96,160.43c2.33,1.45,4.98,1.25,6.65-1.06,2.14-2.96,1.3-7.19-.63-10.03-1.4-2.06-3.3-3.85-5.03-5.61-8.44-8.59-17.71-16.41-27.38-23.58-26.12-19.38-60.29-37.74-93.79-29.78-17.27,4.1-32.45,14.35-45.02,26.61-3.64,3.55-6.55,7.74-9.4,11.93-4.25,6.25-8.28,12.65-12.36,19.02-9.18,14.31-18.44,28.53-29.39,41.57-12.29,14.64-24.19,29.67-35.03,45.42-13.4,19.46-25.43,40.34-31.84,63.23-4.44,15.85-5.64,32.24-8.03,48.46-.67,4.57-1.51,9.1-2.37,13.64-2.01,10.58-2.9,21.34-3.48,32.08-.61,11.26-.9,22.53-1.89,33.76s-2.24,22.03-3.16,33.06c-2.89,34.84-4.52,70.43,1.28,105.08,4.85,28.94,16.04,56.95,32.44,81.28,14.31,21.22,32.81,39.35,54.25,53.34,19.4,12.65,40.95,21.84,63.25,28,19.73,5.45,40.11,8.57,60.54,9.68,15.39.83,30.92.6,46.23-1.28,4.76-.58,9.53-1.28,14.19-2.43,9.24-2.28,18.15-6.83,26.76-10.8,24.92-11.48,48.77-26.06,68.2-45.62,16.99-17.11,29.8-37.67,38.78-59.99,10.24-25.43,15.79-52.54,19.83-79.57,2.49-16.71,5.02-33.67,5.63-50.56.75-20.52-1.36-41.02-4.13-61.33-2.26-16.58-4.46-33.17-6.69-49.74-1.87-13.91-5.16-27.63-9.04-41.1-4.52-15.71-9.97-31.17-16.42-46.19-6.02-14-12.9-27.83-21.74-40.28-3.54-4.99-7.46-10.45-12.3-14.25-3.99-3.14-10.34-3.77-10.67,2.74-.1,1.93,2.9,1.92,3,0,.27-5.39,6.83.41,8.34,1.98,2.04,2.12,3.96,4.36,5.78,6.68,4.28,5.45,8.03,11.32,11.49,17.32,7.74,13.45,14.03,27.73,19.5,42.25,5.49,14.58,10.17,29.5,13.89,44.63,3.18,12.93,5.01,25.83,6.63,39.02,4.63,37.6,12.4,74.98,8.27,113.05-3.1,28.56-7.02,57.23-14.5,85.01-6.24,23.18-15.25,45.72-28.94,65.55-13.92,20.17-32.33,36.68-52.96,49.77-12.2,7.75-25.09,14.37-38.3,20.22-7.22,3.2-14.55,6.8-22.29,8.57-11.21,2.57-22.92,3.33-34.38,3.66-17.72.51-35.53-.59-53.05-3.3-20.95-3.24-41.63-8.77-61.14-17.11-21.58-9.23-41.69-21.91-58.79-38.04-19.49-18.39-34.61-40.92-45.13-65.52-11.9-27.82-16.56-57.37-17.24-87.49-.41-18.06.39-36.13,1.71-54.13,1.54-21.03,4.18-41.95,5.14-63.02.49-10.63.91-21.28,2.13-31.85.82-7.09,2.3-14.03,3.47-21.06,1.29-7.82,2.19-15.69,3.19-23.55,2.13-16.79,5.61-33.12,12.3-48.74,11.35-26.5,28.72-50.31,46.59-72.74,10.79-13.54,21.97-26.5,31.63-40.9,8.41-12.54,16.15-25.53,24.77-37.93s20.24-21.58,33.14-28.34c15.87-8.31,33.54-10.7,51.01-6.66,29.65,6.86,56.48,25.44,78.57,45.82,2.99,2.76,5.93,5.59,8.71,8.56.78.83,1.59,1.66,2.29,2.56.23.29.18.2.39.5.96,1.45,1.6,3.22,1.37,4.97s-1.61,3.04-3.31,1.98-3.15,1.57-1.51,2.59h0Z"/>
      <polygon class="cls-1" points="509.41 461.63 499.21 461.63 495.01 465.58 427.33 461.63 415.64 448.13 415.64 442.34 415.64 420.63 391.65 417.15 272.56 416.66 272.7 416.63 274.22 349.63 269.22 349.63 268.22 362.63 237.65 362.63 236.22 403.63 266.22 405.63 266.22 419.63 360.22 423.63 360.22 426.63 404.21 429.01 393.22 548.63 408.22 549.63 412.51 493.13 418.72 486.63 429.56 480.63 492.56 481.77 496.72 481.77 498.96 486.63 511.68 486.63 509.41 461.63"/>
      <g>
        <line class="cls-4" x1="387.22" y1="160.63" x2="433.22" y2="235.63"/>
        <path class="cls-4" d="M426.72,233.13"/>
        <line class="cls-4" x1="387.36" y1="167.86" x2="425.84" y2="231.67"/>
        <path class="cls-4" d="M419.94,229.83"/>
        <line class="cls-4" x1="386.12" y1="173.47" x2="419.94" y2="229.83"/>
        <path class="cls-4" d="M386.12,173.47"/>
        <path class="cls-4" d="M384.72,171.13"/>
        <path class="cls-4" d="M415.72,230.13"/>
        <path class="cls-4" d="M414.61,228.31"/>
        <line class="cls-4" x1="384.5" y1="178.43" x2="414.61" y2="228.31"/>
        <path class="cls-4" d="M383.72,177.13"/>
        <line class="cls-4" x1="382.72" y1="182.75" x2="410.72" y2="228.13"/>
        <path class="cls-4" d="M382.42,182.26"/>
        <path class="cls-4" d="M382.42,182.26"/>
        <path class="cls-4" d="M381.72,181.13"/>
        <path class="cls-4" d="M405.38,227.58"/>
        <line class="cls-4" x1="380.4" y1="186.26" x2="405.38" y2="227.58"/>
        <path class="cls-4" d="M380.4,186.26"/>
        <path class="cls-4" d="M379.72,185.13"/>
        <line class="cls-4" x1="377.72" y1="191.13" x2="400.72" y2="228.13"/>
        <path class="cls-4" d="M396.4,228.63"/>
        <line class="cls-4" x1="374.72" y1="194.13" x2="396.4" y2="228.63"/>
        <line class="cls-4" x1="372.72" y1="197.13" x2="392.72" y2="229.13"/>
        <line class="cls-4" x1="369.72" y1="199.13" x2="388.72" y2="230.13"/>
        <line class="cls-4" x1="366.72" y1="201.13" x2="384.72" y2="231.13"/>
        <path class="cls-4" d="M381.51,232.13s29.21-12,51.71,3.82"/>
        <path class="cls-4" d="M387.72,158.93c0,31.21-23,44.21-23,44.21"/>
      </g>
      <polyline class="cls-4" points="158.01 406.63 156.22 425.63 156.22 528.27 172.22 603.63 205.22 675.4 226.72 696.13"/>
      <line class="cls-4" x1="207.72" y1="244.13" x2="189.72" y2="284.13"/>
      <line class="cls-4" x1="330.72" y1="133.13" x2="291.72" y2="122.13"/>
      <g>
        <line class="cls-2" x1="375.22" y1="420.63" x2="375.22" y2="428.63"/>
        <line class="cls-2" x1="377.22" y1="420.63" x2="377.22" y2="428.63"/>
        <line class="cls-2" x1="379.22" y1="420.63" x2="379.22" y2="428.63"/>
        <line class="cls-2" x1="381.22" y1="420.63" x2="381.22" y2="428.63"/>
        <line class="cls-2" x1="383.22" y1="420.63" x2="383.22" y2="428.63"/>
        <line class="cls-2" x1="385.22" y1="420.63" x2="385.22" y2="428.63"/>
        <line class="cls-2" x1="387.22" y1="421.63" x2="387.22" y2="428.63"/>
        <line class="cls-2" x1="389.22" y1="421.63" x2="389.22" y2="428.63"/>
        <line class="cls-2" x1="391.22" y1="421.63" x2="391.22" y2="428.63"/>
      </g>
      <circle class="cls-5" cx="356.72" cy="198.13" r="4.5"/>
      <polyline class="cls-2" points="272.5 377.54 263.77 377.54 263.22 390.63 271.92 391.03"/>
      <line class="cls-2" x1="265.94" y1="377.54" x2="265.31" y2="390.73"/>
      <line class="cls-2" x1="267.94" y1="377.54" x2="267.31" y2="390.73"/>
      <line class="cls-2" x1="269.94" y1="377.54" x2="269.31" y2="390.73"/>
      <rect class="cls-5" x="323.43" y="211.56" width="20" height="2.87" transform="translate(-39.05 79.57) rotate(-12.86)"/>
      <rect class="cls-5" x="292.43" y="222.56" width="20" height="2.87" transform="translate(-62.48 131.93) rotate(-22.37)"/>
      <rect class="cls-5" x="269.22" y="237.63" width="7" height="5" transform="translate(-79.35 150.2) rotate(-27.03)"/>
      <rect class="cls-5" x="259.22" y="520.63" width="7" height="5" transform="translate(296.76 -61.27) rotate(30)"/>
      <rect class="cls-5" x="221.22" y="541.63" width="11" height="7" transform="translate(-149.62 90.22) rotate(-17.02)"/>
      <rect class="cls-5" x="235.22" y="563.63" width="11" height="7" transform="translate(-155.44 95.29) rotate(-17.02)"/>
      <polygon class="cls-1" points="509.41 461.63 499.21 461.63 495.01 465.58 427.33 461.63 415.64 448.13 415.64 442.34 415.64 420.63 391.65 417.15 272.56 416.66 272.7 416.63 274.22 349.63 269.22 349.63 268.22 362.63 237.65 362.63 236.22 403.63 266.22 405.63 266.22 419.63 360.22 423.63 360.22 426.63 404.21 429.01 393.22 548.63 408.22 549.63 412.51 493.13 418.72 486.63 429.56 480.63 492.56 481.77 496.72 481.77 498.96 486.63 511.68 486.63 509.41 461.63"/>
      <polygon class="cls-7" points="401.63 486.72 379.22 483.63 381.57 427.75 404.08 428.8 401.63 486.72"/>
      <rect class="cls-9" x="270.54" y="384.66" width="122.03" height="35" transform="translate(16.72 -13.22) rotate(2.34)"/>
      <g>
        <circle class="cls-3" cx="390.16" cy="364.65" r="10"/>
        <circle class="cls-3" cx="388.28" cy="410.61" r="10"/>
        <circle class="cls-3" cx="389.22" cy="387.63" r="13"/>
      </g>
      <g>
        <line class="cls-2" x1="375.22" y1="420.63" x2="375.22" y2="428.63"/>
        <line class="cls-2" x1="377.22" y1="420.63" x2="377.22" y2="428.63"/>
        <line class="cls-2" x1="379.22" y1="420.63" x2="379.22" y2="428.63"/>
        <line class="cls-2" x1="381.22" y1="420.63" x2="381.22" y2="428.63"/>
        <line class="cls-2" x1="383.22" y1="420.63" x2="383.22" y2="428.63"/>
        <line class="cls-2" x1="385.22" y1="420.63" x2="385.22" y2="428.63"/>
        <line class="cls-2" x1="387.22" y1="421.63" x2="387.22" y2="428.63"/>
        <line class="cls-2" x1="389.22" y1="421.63" x2="389.22" y2="428.63"/>
        <line class="cls-2" x1="391.22" y1="421.63" x2="391.22" y2="428.63"/>
      </g>
      <polyline class="cls-2" points="272.5 377.54 263.77 377.54 263.22 390.63 271.92 391.03"/>
      <line class="cls-2" x1="265.94" y1="377.54" x2="265.31" y2="390.73"/>
      <line class="cls-2" x1="267.94" y1="377.54" x2="267.31" y2="390.73"/>
      <line class="cls-2" x1="269.94" y1="377.54" x2="269.31" y2="390.73"/>
      <rect class="cls-3" x="271.22" y="351.67" width="122.03" height="68" transform="translate(16.05 -13.26) rotate(2.34)"/>
      <polygon class="cls-3" points="401.22 486.63 357.11 481.46 359.66 426.66 403.43 428.71 401.22 486.63"/>
      <polygon class="cls-3" points="359.78 481.77 399.78 486.46 397.22 548.63 355.22 542.63 359.78 481.77"/>
      <rect class="cls-3" x="233.22" y="416.63" width="31" height="31"/>
      <path class="cls-3" d="M233.22,416.63c30.93,30.93,28.8,28.79,30.5,30.5"/>
      <line class="cls-3" x1="263.72" y1="417.23" x2="233.69" y2="447.13"/>
      <line class="cls-3" x1="381.57" y1="427.75" x2="379.22" y2="483.63"/>
      <line class="cls-3" x1="357.22" y1="511.63" x2="398.28" y2="515.71"/>
      <line class="cls-3" x1="271.31" y1="382.18" x2="393.24" y2="387.17"/>
      <line class="cls-3" x1="271.72" y1="365.13" x2="394.24" y2="370.71"/>
      <line class="cls-3" x1="270.87" y1="398.41" x2="392.24" y2="403.71"/>
      <circle class="cls-6" cx="306.72" cy="176.13" r="25"/>
      <circle class="cls-6" cx="320.22" cy="213.63" r="25"/>
      <circle class="cls-6" cx="367.22" cy="194.63" r="25"/>
      <circle class="cls-6" cx="376.22" cy="155.63" r="25"/>
      <circle class="cls-6" cx="392.22" cy="244.63" r="25"/>
      <circle class="cls-6" cx="221.22" cy="330.63" r="25"/>
      <circle class="cls-6" cx="180.22" cy="340.63" r="25"/>
      <circle class="cls-6" cx="147.22" cy="346.63" r="25"/>
      <circle class="cls-6" cx="114.22" cy="376.63" r="25"/>
      <circle class="cls-6" cx="112.22" cy="290.63" r="25"/>
      <circle class="cls-6" cx="143.22" cy="269.63" r="25"/>
      <circle class="cls-6" cx="196.22" cy="405.63" r="25"/>
      <circle class="cls-6" cx="143.22" cy="420.63" r="25"/>
      <circle class="cls-6" cx="141.22" cy="483.63" r="25"/>
      <circle class="cls-6" cx="193.22" cy="463.63" r="25"/>
      <circle class="cls-6" cx="258.22" cy="566.63" r="25"/>
      <circle class="cls-6" cx="208.22" cy="560.63" r="25"/>
      <circle class="cls-6" cx="196.22" cy="610.63" r="25"/>
      <circle class="cls-6" cx="246.22" cy="623.63" r="25"/>
      <circle class="cls-6" cx="301.22" cy="616.63" r="25"/>
      <circle class="cls-6" cx="288.22" cy="660.63" r="25"/>
      <circle class="cls-6" cx="330.22" cy="705.63" r="25"/>
      <circle class="cls-6" cx="406.22" cy="690.63" r="25"/>
      <circle class="cls-6" cx="447.22" cy="641.63" r="25"/>
      <circle class="cls-6" cx="433.22" cy="574.63" r="25"/>
      <circle class="cls-6" cx="491.22" cy="598.63" r="25"/>
      <circle class="cls-6" cx="285.72" cy="441.13" r="15.5"/>
      <circle class="cls-6" cx="331.72" cy="441.13" r="15.5"/>
      <circle class="cls-6" cx="419.72" cy="448.13" r="15.5"/>
      <circle class="cls-6" cx="462.72" cy="446.13" r="15.5"/>
      <circle class="cls-6" cx="291.72" cy="709.13" r="15.5"/>
      <circle class="cls-6" cx="179.72" cy="670.13" r="15.5"/>
      <circle class="cls-6" cx="438.72" cy="493.13" r="15.5"/>
      <circle class="cls-6" cx="486.72" cy="496.13" r="15.5"/>
      <circle class="cls-6" cx="502.72" cy="452.13" r="15.5"/>
      <circle class="cls-6" cx="501.72" cy="413.13" r="15.5"/>
      <circle class="cls-6" cx="450.72" cy="397.13" r="15.5"/>
      <circle class="cls-6" cx="434.72" cy="356.13" r="15.5"/>
      <circle class="cls-6" cx="418.72" cy="305.13" r="15.5"/>
      <circle class="cls-6" cx="364.72" cy="310.13" r="15.5"/>
      <circle class="cls-6" cx="341.72" cy="281.13" r="15.5"/>
      <circle class="cls-6" cx="303.72" cy="313.13" r="15.5"/>
      <circle class="cls-6" cx="306.72" cy="247.13" r="15.5"/>
      <circle class="cls-6" cx="223.72" cy="260.13" r="15.5"/>
      <circle class="cls-6" cx="241.72" cy="216.13" r="15.5"/>
      <circle class="cls-6" cx="257.72" cy="188.13" r="15.5"/>
      <circle class="cls-6" cx="345.72" cy="133.13" r="15.5"/>
      <circle class="cls-6" cx="454.72" cy="263.13" r="15.5"/>
      <circle class="cls-6" cx="470.72" cy="295.13" r="15.5"/>
      <circle class="cls-6" cx="486.72" cy="337.13" r="15.5"/>
      <circle class="cls-6" cx="496.72" cy="377.13" r="15.5"/>
    </g>
  </g>
</svg>