<?xml version="1.0" encoding="UTF-8"?>
<svg xmlns="http://www.w3.org/2000/svg" version="1.1" viewBox="0 0 1785.83 3968.5">
  <defs>
    <style>
      .cls-1, .cls-2 {
        fill: none;
        stroke: #717171;
        stroke-miterlimit: 10;
      }

      .cls-3 {
        fill: #b57171;
      }

      .cls-4, .cls-5 {
        fill: #f2f2f2;
      }

      .cls-4, .cls-6 {
        display: none;
      }

      .cls-7 {
        fill: #a0a0a0;
      }

      .cls-2 {
        stroke-width: 3px;
      }

      .cls-8, .cls-9 {
        fill: #717171;
      }

      .cls-10 {
        fill: #9b6d6d;
      }

      .cls-9 {
        opacity: .17;
      }
    </style>
  </defs>
  <!-- Generator: Adobe Illustrator 28.7.0, SVG Export Plug-In . SVG Version: 1.2.0 Build 136)  -->
  <g>
    <g id="Livello_1">
      <rect class="cls-4" x="580.63" y="1434.5" width="626" height="1099"/>
      <g>
        <polygon class="cls-7" points="890.34 1507.02 929.02 1529.32 914.73 1555.8 902.95 1549.58 900 1553.85 899.72 1555.8 892.87 1555.8 894.55 1552.44 896.29 1553.85 900.02 1547.81 890.34 1542.73 884.46 1553.85 883.19 1548.65 889.08 1538.56 901.7 1543.61 904.22 1540.24 907.16 1541.51 905.48 1544.87 914.31 1549.5 919.36 1541.09 906.11 1534.46 908.27 1531.41 921.04 1538.56 926.09 1530.15 916 1525.11 914.73 1528.89 911.79 1527.63 913.41 1523.3 904.22 1518.38 902.95 1520.19 902.12 1519.64 902.95 1517.06 888.24 1509.97 890.34 1507.02"/>
        <polygon class="cls-7" points="909.69 1560.85 912.44 1560.85 893.71 1597.01 890.74 1597.01 904.64 1570.1 898.75 1567.58 899.6 1566.74 889.13 1560.85 896.85 1560.85 895.81 1562.11 906.11 1567.4 909.69 1560.85"/>
        <polygon class="cls-7" points="881.93 1576.83 879.41 1581.03 881.93 1582.13 884.46 1578.93 881.93 1576.83"/>
        <polygon class="cls-7" points="855.86 1567.58 857.68 1567.58 856.89 1569.43 860.91 1570.94 860.07 1573.47 854.21 1570.52 855.86 1567.58"/>
        <polygon class="cls-7" points="885.3 1607.95 886.98 1608.79 884.46 1616.78 881.93 1615.62 885.3 1607.95"/>
        <polygon class="cls-7" points="878.57 1621.4 881.09 1622.25 875.2 1634.02 872.68 1633.18 878.57 1621.4"/>
        <polygon class="cls-7" points="869.32 1637.38 871.84 1638.23 866.79 1648.32 864.27 1646.64 869.32 1637.38"/>
        <polygon class="cls-7" points="863.62 1648.32 866.79 1650 849.13 1684.48 846.61 1682.8 863.62 1648.32"/>
        <polygon class="cls-7" points="839.88 1656.73 842.4 1659.25 850.58 1642.85 848.29 1641.59 839.88 1656.73"/>
        <path class="cls-7" d="M822.64,1727.8l-1.68,3.36-10.93-5.89,6.73-14.3,2.52.84.84-2.36-1.68-1,1.68-4.21-1.68-1.16-2.52,4.52-10.51-6.07,7.15-14.12,5.05,2.52.84-2.52-7.57-3.36,5.05-10.09-1.68-.84-5.05,9.25-12.62-6.73,6.73-12.62,3.36,1.68.84-2.52-15.14-8.41-7.57,15.14-2.52-.84-.84,2.52,4.21,2.52-20.19,36.16,2.52.84,1.68-2.52,52.99,26.91,2.52-5.05-2.52-1.68ZM793.2,1657.15l7.57,4.21-6.73,13.46-7.57-4.21,6.73-13.46ZM771.34,1705.09l16.67-30.28,22.02,11.77-15.98,30.28-22.71-11.77ZM796.57,1717.7l7.57-13.46,10.09,5.89-6.73,13.46-10.93-5.89Z"/>
        <polygon class="cls-7" points="847.45 1500.29 849.13 1501.01 855.02 1490.2 853.34 1489.36 847.45 1500.29"/>
        <polygon class="cls-7" points="870.15 1543.11 871.84 1544.03 871.84 1546.87 868.82 1545.31 870.15 1543.11"/>
        <path class="cls-7" d="M842.91,1501.64s-2.18-.21-1.73-1.18"/>
        <path class="cls-7" d="M870.33,1506.09l-8.7,16.61v2.81l27.03,13.78.42-.72s11.55,4.94,12.62,5.05c1.07.11,10.74-19.23,10.74-19.23l-42.1-18.3ZM900.13,1542c.5.5-37-18-37-18l8-16,14.9,6.6-.78,1.37,22.88,10.03s-8.5,15.5-8,16Z"/>
        <g>
          <polygon class="cls-7" points="890.34 1507.02 839.88 1478.24 837.63 1481.5 845.23 1485.14 839.88 1495.5 841.63 1497.63 846.61 1489.36 849.13 1486.86 886.63 1508.5 884.46 1511.42 853.63 1565.5 841.63 1560.85 841.63 1563.98 854.21 1570.52 866.13 1549.57 871.84 1552.84 871.84 1550.66 867.2 1547.69 890.34 1507.02"/>
          <polygon class="cls-7" points="889.13 1560.85 883.19 1560.07 889.13 1563.11 882.32 1576.83 883.81 1578.39 891.63 1564.5 896.7 1567.58 895.63 1570.5 897.63 1571.5 899.6 1566.74 889.13 1560.85"/>
        </g>
        <polygon class="cls-7" points="841.12 1498.04 844.63 1499.5 843.43 1501.64 840.74 1500.46 841.12 1498.04"/>
        <polygon class="cls-7" points="845.3 1499.84 847.63 1500.5 845.63 1503.5 843.63 1502.5 845.3 1499.84"/>
        <path class="cls-7" d="M848,1501.01c-.36.49,1.54.62,1.54.62l-.9,2.86-2-1,1.36-2.49Z"/>
        <path class="cls-7" d="M850.63,1501.5l2.15,2-1.07,2.07s-2.93-.07-2.5-1.07,1.43-3,1.43-3Z"/>
        <polygon class="cls-7" points="853.63 1503.5 855.02 1504.5 853.63 1507.02 852.63 1506.5 853.63 1503.5"/>
        <path class="cls-7" d="M855.8,1505.26c-.17.24,2.83,1.24,2.83,1.24l-1.42,2.15s-2.77-1.15-2.67-.65,1.26-2.74,1.26-2.74Z"/>
        <polygon class="cls-7" points="860.63 1507.5 859.1 1506.96 857.63 1508.5 861.63 1510.5 862.63 1508.5 860.63 1507.5"/>
        <path class="cls-7" d="M863.86,1508.73c-.23-.23.77.77.77.77l-1.5,3.83s-1.5,1.17-1.5.17v-1c0-1,1.82-3.81,1.82-3.81"/>
        <path class="cls-7" d="M865.63,1509.5s2,0,2,1-1,2-1,2h-2l1-3Z"/>
        <path class="cls-7" d="M859.63,1526.5l.5,1.4-.5,1.6-2,.21-.51-1.61s-.49-1.61.51-1.61h2"/>
        <path class="cls-7" d="M855.97,1529.71l2.6,1.48-.94,1.3-1.66-.64s-.54-1.14-.44-.75.44-1.39.44-1.39Z"/>
        <path class="cls-7" d="M855.02,1532.5c-.39,0,2.61,1,2.61,1l-1.05.67-1.82-.83.26-.83Z"/>
        <path class="cls-7" d="M853.9,1533.84c1.12-.37,3.29.96,3.29.96l-.94,1.63s-2.62.33-2.62-.77.57-1.46.57-1.46"/>
        <polygon class="cls-7" points="852.78 1536.24 855.02 1537.25 854.54 1538.95 851.52 1537.6 852.78 1536.24"/>
        <path class="cls-7" d="M850.97,1538.46l.26.13,2.59,1.3-.56,1.15s-3.07-1.04-2.85-1.29"/>
        <polygon class="cls-7" points="849.37 1541.04 852.63 1541.5 851.52 1543.61 848.77 1542.01 849.37 1541.04"/>
        <polygon class="cls-7" points="848.77 1543.61 850.7 1544.78 849.63 1546.5 847.78 1544.99 848.77 1543.61"/>
        <path class="cls-7" d="M846.63,1545.5c1,0,2.61,1.37,2.61,1.37v1.81l-2.61-1.04v-2.14Z"/>
        <polygon class="cls-7" points="845.63 1548.5 848.63 1549.5 847.63 1551.5 845.03 1550 845.63 1548.5"/>
        <polygon class="cls-7" points="845.03 1551.05 846.83 1551.82 845.93 1553.58 844.63 1552.5 844.31 1551.5 845.03 1551.05"/>
        <polygon class="cls-7" points="844.31 1553.58 845.63 1554.5 844.63 1557.5 842.63 1556.5 843.16 1555.18 844.31 1553.58"/>
        <path class="cls-7" d="M842.28,1557.5h1.35l-.68,2.07-.68.93-1.65-1.01,1.65-2Z"/>
        <path class="cls-7" d="M860.61,1571.83l-2.04,1.64-7.99-4.83-6.95,13.5v4.34l33.26,22.55,8.74-21.16-25.02-16.03ZM875.2,1605.47s-29.87-20.3-29.97-20.39c-.1-.08,6.28-13.59,6.28-13.59l20.32,12.36v-1.72l10.48,6.7-7.11,16.64Z"/>
        <path class="cls-7" d="M874.13,1598v-2l-1.45-.34-.84,1.35-.71-1.01-1.39,2.28,2.1.68-5.05,8.14-2.52-1.32-1.15,2.17,2.01,1.05-3,5-2.53-1.19-3.47,7.19-4-2-1.55,3.4,3.55,1.6-2,5,2,1-5,9.23,2.11,3.36,15.55-30.97,2.93,1.74,1.41-2.36-3-2,5-7,1.21.53.86-2.83-1.07-.7ZM856.63,1627.5l-2-1,1-3,2,1-1,3ZM858.63,1622.5l-2-1,3-6c1,0,2,1,2,1l-3,6Z"/>
      </g>
      <g>
        <path class="cls-8" d="M881.28,1880.18c-.13.89-.04,2.05.42,3.12.69,1.6,1.93,2.17,3.15,1.64,1.12-.48,1.5-1.42,1.4-3.32-.15-2.27.36-3.94,2.05-4.67,1.88-.81,3.95.15,4.96,2.5.53,1.23.64,2.26.57,2.92l-1.47.12c.06-.48.06-1.44-.41-2.53-.72-1.66-1.97-1.86-2.79-1.5-1.12.48-1.36,1.46-1.28,3.4.08,2.4-.46,3.85-2.23,4.62-1.85.8-4.07.14-5.31-2.72-.5-1.17-.7-2.59-.54-3.42l1.48-.15Z"/>
        <path class="cls-8" d="M895.21,1884.88c.46.69.99,1.63,1.54,2.9.66,1.53.8,2.82.46,3.82-.3.9-1,1.69-2.07,2.15-1.09.47-2.1.52-2.99.18-1.24-.45-2.26-1.59-2.92-3.12-.2-.47-.37-.91-.43-1.31l-4.84,2.09-.67-1.56,11.93-5.15ZM890.07,1888.95c.05.39.2.84.42,1.35.82,1.89,2.24,2.63,3.89,1.92,1.6-.69,1.89-2.17,1.15-3.88-.3-.69-.58-1.17-.76-1.42l-4.7,2.03Z"/>
        <path class="cls-8" d="M900.47,1901.84l-.02-.04-1.96-1.55,1.07-.82,2.46,1.96.58,1.34-11.65,5.03-.66-1.52,10.18-4.4Z"/>
        <path class="cls-8" d="M894.88,1916.88l3.18-1.37-2.34-5.41,1.03-.44,9.68,1.97.74,1.71-7.25,3.13.71,1.63-1.22.53-.71-1.63-3.18,1.37-.64-1.49ZM899.28,1914.98l3.9-1.68c.61-.26,1.22-.5,1.85-.73l-.02-.06c-.85-.06-1.47-.13-2.15-.22l-5.19-1.13h-.04s1.65,3.82,1.65,3.82Z"/>
        <path class="cls-8" d="M906.04,1926.38c-3.95,1.71-6.78,1.17-7.89-1.4-.98-2.27.48-4.74,4.31-6.44,3.91-1.69,6.79-.93,7.81,1.43,1.06,2.45-.53,4.8-4.24,6.4ZM903.14,1920.13c-3.04,1.31-4.35,2.98-3.73,4.42.69,1.61,2.91,1.56,5.87.28,2.87-1.24,4.43-2.78,3.72-4.41-.59-1.37-2.71-1.65-5.87-.28Z"/>
      </g>
      <g>
        <path class="cls-8" d="M730.26,2003.23c.14.88.58,1.97,1.34,2.85,1.14,1.31,2.49,1.49,3.5.62.92-.8,1-1.81.34-3.58-.83-2.12-.85-3.87.54-5.07,1.55-1.34,3.81-1.05,5.49.89.88,1.01,1.29,1.96,1.42,2.61l-1.36.55c-.09-.48-.38-1.39-1.15-2.29-1.18-1.37-2.44-1.18-3.12-.59-.92.8-.85,1.8-.2,3.63.8,2.26.73,3.81-.73,5.07-1.52,1.32-3.84,1.36-5.88-1-.83-.96-1.45-2.26-1.55-3.1l1.36-.59Z"/>
        <path class="cls-8" d="M744.96,2003.51c.65.52,1.44,1.26,2.34,2.3,1.09,1.26,1.61,2.45,1.59,3.5,0,.95-.44,1.91-1.32,2.68-.9.78-1.84,1.13-2.8,1.07-1.32-.05-2.63-.84-3.72-2.09-.34-.39-.63-.75-.81-1.12l-3.99,3.46-1.11-1.28,9.82-8.51ZM741.28,2008.95c.16.36.45.74.81,1.16,1.35,1.56,2.93,1.84,4.29.66,1.32-1.14,1.15-2.64-.07-4.05-.49-.57-.91-.94-1.15-1.13l-3.87,3.35Z"/>
        <path class="cls-8" d="M755.08,2018.1l-.03-.03-2.34-.89.77-1.1,2.93,1.13.95,1.1-9.59,8.31-1.08-1.25,8.38-7.26Z"/>
        <path class="cls-8" d="M754.28,2034.12l2.62-2.27-3.86-4.45.85-.73,9.82-1.04,1.22,1.41-5.97,5.17,1.17,1.35-1,.87-1.17-1.34-2.62,2.27-1.06-1.23ZM757.91,2030.99l3.21-2.78c.5-.43,1.01-.85,1.55-1.25l-.04-.06c-.83.2-1.44.32-2.12.44l-5.29.49-.03.02,2.72,3.14Z"/>
        <path class="cls-8" d="M767.78,2039.82c-3.25,2.82-6.11,3.16-7.94,1.04-1.62-1.87-.97-4.66,2.17-7.44,3.22-2.79,6.2-2.93,7.88-.99,1.75,2.02.94,4.74-2.11,7.38ZM763.14,2034.73c-2.5,2.16-3.25,4.15-2.23,5.33,1.15,1.32,3.24.62,5.68-1.5,2.37-2.05,3.39-3.98,2.22-5.33-.98-1.13-3.08-.75-5.68,1.5Z"/>
      </g>
      <g>
        <path class="cls-7" d="M930.62,1581.13h2.12v14.52h6.97v1.78h-9.09v-16.3Z"/>
        <path class="cls-7" d="M948.46,1597.43l-.19-1.48h-.06c-.64.91-1.9,1.74-3.58,1.74-2.36,0-3.57-1.68-3.57-3.36,0-2.83,2.51-4.39,7.03-4.36v-.25c0-.95-.27-2.71-2.66-2.7-1.09,0-2.23.32-3.05.87l-.48-1.41c.97-.62,2.38-1.03,3.86-1.03,3.58,0,4.45,2.44,4.45,4.79v4.38c0,1,.04,2,.18,2.8h-1.92ZM948.13,1591.46c-2.3-.05-4.94.37-4.94,2.63,0,1.4.92,2.04,1.99,2.04,1.54,0,2.51-.97,2.85-1.96.07-.23.1-.47.1-.67v-2.04Z"/>
        <path class="cls-7" d="M961.55,1597.43l-5.34-16.3h2.29l2.53,8.04c.7,2.2,1.3,4.18,1.74,6.08h.06c.46-1.88,1.12-3.94,1.86-6.06l2.76-8.06h2.25l-5.82,16.3h-2.32Z"/>
        <path class="cls-7" d="M973.38,1582.43c0,.72-.51,1.32-1.35,1.32-.77,0-1.29-.6-1.28-1.32,0-.73.54-1.32,1.32-1.32s1.31.58,1.31,1.32ZM971,1597.43v-11.7h2.12v11.7h-2.12Z"/>
        <path class="cls-7" d="M976.66,1580.26h2.12v17.17h-2.12v-17.17Z"/>
        <path class="cls-7" d="M982.37,1580.26h2.12v17.17h-2.12v-17.17Z"/>
        <path class="cls-7" d="M994.56,1597.43l-.19-1.48h-.06c-.64.91-1.9,1.74-3.58,1.74-2.36,0-3.57-1.68-3.57-3.36,0-2.83,2.51-4.39,7.03-4.36v-.25c0-.95-.27-2.71-2.66-2.7-1.09,0-2.23.32-3.05.87l-.48-1.41c.97-.62,2.38-1.03,3.86-1.03,3.58,0,4.45,2.44,4.45,4.79v4.38c0,1,.04,2,.18,2.8h-1.92ZM994.23,1591.46c-2.3-.05-4.94.37-4.94,2.63,0,1.4.92,2.04,1.99,2.04,1.54,0,2.51-.97,2.85-1.96.07-.23.1-.47.1-.67v-2.04Z"/>
        <path class="cls-7" d="M1004.92,1581.35c1.07-.21,2.6-.35,4.05-.35,2.24,0,3.71.42,4.72,1.34.8.71,1.28,1.82,1.28,3.1,0,2.14-1.37,3.57-3.07,4.15v.06c1.24.44,1.99,1.61,2.39,3.3.54,2.28.92,3.84,1.25,4.47h-2.18c-.26-.47-.62-1.86-1.07-3.9-.48-2.23-1.37-3.1-3.27-3.16h-1.99v7.06h-2.1v-16.08ZM1007.02,1588.77h2.15c2.25,0,3.68-1.23,3.68-3.09,0-2.12-1.53-3.04-3.75-3.04-1.02,0-1.73.09-2.08.19v5.95Z"/>
        <path class="cls-7" d="M1028.55,1591.47c0,4.33-3,6.23-5.82,6.23-3.17,0-5.62-2.31-5.62-6.02,0-3.92,2.57-6.2,5.81-6.2s5.63,2.44,5.63,6ZM1019.28,1591.61c0,2.57,1.47,4.5,3.54,4.5s3.56-1.91,3.56-4.56c0-1.98-1-4.48-3.53-4.48s-3.58,2.33-3.58,4.54Z"/>
        <path class="cls-7" d="M1031.25,1588.89c0-1.22-.04-2.19-.1-3.16h1.85l.11,1.88h.06c.65-1.11,1.74-2.15,3.69-2.15,1.58,0,2.8.96,3.3,2.34h.05c.38-.67.84-1.17,1.32-1.52.71-.53,1.47-.82,2.57-.82,1.56,0,3.86,1.01,3.86,5.07v6.89h-2.08v-6.62c0-2.27-.83-3.61-2.54-3.61-1.22,0-2.16.89-2.53,1.91-.1.31-.17.69-.17,1.07v7.24h-2.08v-7.02c0-1.86-.82-3.2-2.43-3.2-1.33,0-2.3,1.06-2.65,2.12-.11.31-.16.68-.16,1.05v7.05h-2.08v-8.54Z"/>
        <path class="cls-7" d="M1057.9,1597.43l-.19-1.48h-.06c-.64.91-1.9,1.74-3.58,1.74-2.36,0-3.57-1.68-3.57-3.36,0-2.83,2.51-4.39,7.03-4.36v-.25c0-.95-.27-2.71-2.66-2.7-1.09,0-2.23.32-3.05.87l-.48-1.41c.97-.62,2.38-1.03,3.86-1.03,3.58,0,4.45,2.44,4.45,4.79v4.38c0,1,.04,2,.18,2.8h-1.92ZM1057.57,1591.46c-2.3-.05-4.94.37-4.94,2.63,0,1.4.92,2.04,1.99,2.04,1.54,0,2.51-.97,2.85-1.96.07-.23.1-.47.1-.67v-2.04Z"/>
        <path class="cls-7" d="M1063.07,1588.89c0-1.22-.04-2.19-.1-3.16h1.88l.12,1.92h.06c.58-1.1,1.94-2.19,3.87-2.19,1.61,0,4.12.97,4.12,4.98v6.98h-2.12v-6.74c0-1.89-.71-3.47-2.7-3.47-1.4,0-2.49.99-2.87,2.18-.09.26-.15.64-.15.99v7.05h-2.12v-8.54Z"/>
        <path class="cls-7" d="M1082.98,1597.43l-.19-1.48h-.06c-.64.91-1.9,1.74-3.58,1.74-2.36,0-3.57-1.68-3.57-3.36,0-2.83,2.51-4.39,7.03-4.36v-.25c0-.95-.27-2.71-2.66-2.7-1.09,0-2.23.32-3.05.87l-.48-1.41c.97-.62,2.38-1.03,3.86-1.03,3.58,0,4.45,2.44,4.45,4.79v4.38c0,1,.05,2,.18,2.8h-1.92ZM1082.65,1591.46c-2.3-.05-4.94.37-4.94,2.63,0,1.4.92,2.04,1.99,2.04,1.54,0,2.51-.97,2.85-1.96.07-.23.1-.47.1-.67v-2.04Z"/>
        <path class="cls-7" d="M940.65,1609.28v14.16c0,1.04.04,2.21.1,3.02h-1.89l-.11-2.02h-.06c-.65,1.31-2.06,2.29-3.97,2.29-2.83,0-5.02-2.4-5.02-5.94-.02-3.91,2.41-6.29,5.26-6.29,1.8,0,3,.84,3.53,1.77h.05v-6.98h2.12ZM938.54,1619.52c0-.28-.03-.63-.09-.91-.33-1.34-1.48-2.45-3.08-2.45-2.2,0-3.52,1.93-3.52,4.5,0,2.38,1.18,4.35,3.48,4.35,1.42,0,2.72-.96,3.11-2.55.08-.28.1-.58.1-.91v-2.03Z"/>
        <path class="cls-7" d="M946.58,1611.45c0,.72-.51,1.32-1.35,1.32-.77,0-1.29-.6-1.28-1.32,0-.73.54-1.32,1.32-1.32s1.31.58,1.31,1.32ZM944.2,1626.45v-11.7h2.12v11.7h-2.12Z"/>
        <path class="cls-7" d="M968.8,1619.29c-.13-2.26-.27-5.02-.26-7.03h-.07c-.56,1.89-1.24,3.95-2.05,6.18l-2.88,7.91h-1.59l-2.66-7.76c-.78-2.3-1.41-4.39-1.87-6.32h-.06c-.06,2.03-.16,4.75-.32,7.19l-.43,7h-2l1.13-16.3h2.69l2.78,7.89c.67,2,1.22,3.79,1.64,5.49h.06c.43-1.65,1-3.45,1.72-5.49l2.91-7.89h2.69l1.01,16.3h-2.07l-.39-7.16Z"/>
        <path class="cls-7" d="M981.06,1626.45l-.19-1.48h-.06c-.64.91-1.9,1.74-3.58,1.74-2.36,0-3.57-1.68-3.57-3.36,0-2.83,2.51-4.39,7.03-4.36v-.25c0-.95-.27-2.71-2.66-2.7-1.09,0-2.23.32-3.05.87l-.48-1.41c.97-.62,2.38-1.03,3.86-1.03,3.58,0,4.45,2.44,4.45,4.79v4.38c0,1,.05,2,.18,2.8h-1.92ZM980.73,1620.48c-2.3-.05-4.94.37-4.94,2.63,0,1.4.92,2.04,1.99,2.04,1.54,0,2.51-.97,2.85-1.96.07-.23.1-.47.1-.67v-2.04Z"/>
        <path class="cls-7" d="M988.69,1611.39v3.37h3.06v1.61h-3.06v6.3c0,1.46.42,2.28,1.61,2.28.55,0,.95-.07,1.23-.15l.1,1.62c-.41.16-1.07.29-1.9.29-.98,0-1.79-.32-2.3-.9-.59-.65-.83-1.68-.83-3.05v-6.39h-1.81v-1.61h1.81v-2.82l2.08-.55Z"/>
        <path class="cls-7" d="M994.14,1618.4c0-1.38-.03-2.56-.1-3.64h1.86l.08,2.29h.08c.55-1.57,1.84-2.56,3.26-2.56.23,0,.4.01.59.06v2c-.22-.05-.43-.06-.72-.06-1.5,0-2.56,1.13-2.85,2.72-.05.3-.08.65-.08.99v6.25h-2.12v-8.05Z"/>
        <path class="cls-7" d="M1004.53,1611.45c0,.72-.51,1.32-1.35,1.32-.77,0-1.29-.6-1.28-1.32,0-.73.54-1.32,1.32-1.32s1.31.58,1.31,1.32ZM1002.15,1626.45v-11.7h2.12v11.7h-2.12Z"/>
        <path class="cls-7" d="M1016.15,1626.03c-.56.27-1.78.68-3.36.68-3.53,0-5.84-2.4-5.84-5.98s2.46-6.24,6.28-6.24c1.25,0,2.38.32,2.96.62l-.47,1.63c-.52-.28-1.32-.56-2.49-.56-2.67,0-4.13,2-4.13,4.43,0,2.71,1.74,4.38,4.07,4.38,1.19,0,2-.3,2.6-.56l.36,1.6Z"/>
        <path class="cls-7" d="M1019.69,1620.99c.04,2.88,1.87,4.06,4,4.06,1.52,0,2.45-.27,3.24-.6l.37,1.51c-.74.34-2.04.75-3.9.75-3.59,0-5.75-2.39-5.75-5.9s2.09-6.31,5.5-6.31c3.82,0,4.81,3.35,4.81,5.5,0,.45-.03.77-.07,1h-8.2ZM1025.92,1619.46c.02-1.34-.55-3.44-2.93-3.44-2.17,0-3.1,1.96-3.27,3.44h6.2Z"/>
      </g>
      <path class="cls-8" d="M988.46,1982.5c1.18-.2,2.84-.36,5.17-.36s4.05.46,5.18,1.37c1.08.84,1.8,2.25,1.8,3.92s-.54,3.07-1.55,4.01c-1.31,1.23-3.26,1.8-5.5,1.8-.51,0-.96-.03-1.31-.09v6.06h-3.79v-16.71ZM992.25,1990.19c.32.07.71.1,1.27.1,2.03,0,3.29-1.03,3.29-2.75,0-1.56-1.07-2.49-3-2.49-.76,0-1.29.06-1.56.13v5Z"/>
      <rect class="cls-1" x="980.13" y="1977" width="27" height="27" rx="5.67" ry="5.67"/>
      <path class="cls-9" d="M1072.63,2103.5c-21.82,20.07-51.83,38.45-53.82,38.45-5.5,0-6.87-4.12-5.96-8.25.77-3.47,4.81-34.13,4.81-34.13,0,0,23.77-82.39,7.97-116.07-24.84-52.96-85-218-98-245-5.9-12.25-51.54,8.47-55.77,18.98-5.23,13.02,104.77,270.17,104.77,272.02v15.09l-13.94-10.7s-80.06-191.39-103.06-261.39c-30.07-91.5-31-339-31-339l-18,1c.64,2.4-11.78,174.97,21,307,47.08,189.61,144.52,359.44,145.02,361.32,1.61,6.09,2.6,9.88,5.58,21.04,1.7,6.36,3.13,13.96-1.26,18.86-3.75,2.04-8.41,1.81-12.42.36-4.02-1.45-7.53-3.98-10.99-6.49-9.79-7.1-34.1-24.58-36.78-25.61-43.53-16.68-60.97,7.68-62.87,9.45-2.01,1.87-10.69,16.07-13.58,20.81-1.15,1.88-2.35,3.81-4.16,5.06-3.18,2.19-7.67,1.72-10.95-.33-3.28-2.05-5.53-5.39-7.29-8.84-3.7-7.27-3.61-15.66-5.42-23.61-5.77-25.3-40.33-79.92-49.87-91.02-17.13-19.96-88.78-66.86-117-85-28-18-67-23-67-23,0,0-4.76,16.45-2,20,24,1,45.55,9.03,58,17,25.51,16.33,66.57,44.09,91,62,15,11,29,30,46,55,9.57,14.07,21.82,39.29,25.11,53.75,1.46,6.44,1.93,26.34,1.93,26.34,0,0-7.88,128.5-6.05,188.98.87,28.71,29.32,54.98,47.65,71.01,46.73,27.95,114.99,12.37,130.11-8.7,23.59-23.59,30.69-46.73,37.18-63.01,11.38-30.9,2.01-76.03,2.01-76.03l-6.89-49.48-5.73-25.43s-4.41-15.34-2.75-19.24c4.58-10.77,14.66-2.15,17.77.7,9.26,8.47,18.42,41.91,18.42,41.91,0,0,5.5,27.39,5.5,36.65,0,27.49-5.04,62.31-14.78,103.77-4.1,17.45-18.85,55.91-35.32,83.52-1.39,2.32-47.75,98.12-49.15,100.27h12l40.45-83.23,13.59-28.84,18.66-39.43,9.55-35.96,7.75-43.75,4.85-29.09v-46.73l-8.09-29.78s-7.13-22.42-9.13-30.01c-2.29-8.7,0-15.12,4.58-19.24.5-.45,37.54-23.58,56.79-40.95,49.95-45.05,115-114,115-114l1-26s-79.53,85.98-135,137ZM999.82,2248.03c1.31,13.52,6.21,34.39,4.12,53.63-5.85,53.97-16.64,83.2-68.81,103.44-9.85,3.82-93.84,12.08-119.18-60.27-6.71-19.15-6.41-42.19-2.99-74.55,1.12-10.63.6-21.42,2.69-31.9,4.45-22.3-1.49-33.42,35.39-77.04,8-9.47,17.59-27.05,21.59-31.03,9.34-9.32,20.76-15.03,33.73-12.59,21.59,4.05,41.47,24.65,42.73,26.54,1.8,2.7,20.56,34.25,24.74,38.68,12.66,13.43,24.31,47.62,26.01,65.1Z"/>
      <g id="Livello_2" class="cls-6">
        <path class="cls-5" d="M949.07,2144.25c-1.26-1.88-21.14-22.49-42.73-26.54-12.97-2.43-24.39,3.27-33.73,12.59-4,3.99-13.59,21.57-21.59,31.03-36.88,43.63-30.94,54.74-35.39,77.04-2.09,10.48-1.56,21.28-2.69,31.9-3.42,32.36-3.72,55.4,2.99,74.55,25.34,72.35,109.33,64.09,119.18,60.27,52.17-20.24,62.97-49.47,68.81-103.44,2.09-19.25-2.81-40.11-4.12-53.63-1.7-17.48-13.35-51.67-26.01-65.1-4.18-4.43-22.94-35.98-24.74-38.68Z"/>
      </g>
      <rect class="cls-10" x="896.03" y="2249.6" width="54.93" height="15.75" transform="translate(93.07 -35.87) rotate(2.34)"/>
      <path class="cls-1" d="M716.05,2284.92"/>
      <rect class="cls-3" x="896.33" y="2234.75" width="54.93" height="30.61" transform="translate(92.77 -35.89) rotate(2.34)"/>
      <rect class="cls-3" x="879.23" y="2263.99" width="13.95" height="13.95"/>
      <polygon class="cls-3" points="955.35 2296.03 935.09 2293.66 936.27 2268.5 956.36 2269.44 955.35 2296.03"/>
      <polygon class="cls-3" points="936.32 2292.8 954.68 2294.96 953.51 2323.5 934.23 2320.75 936.32 2292.8"/>
      <rect class="cls-2" x="580.63" y="1434.5" width="626" height="1099"/>
      <rect class="cls-8" x="947.63" y="1787.5" width="32" height="57" transform="translate(-641.25 531.17) rotate(-23.37)"/>
      <rect class="cls-8" x="944.63" y="2453.5" width="19" height="37" transform="translate(1363.83 -145.88) rotate(30)"/>
      <g>
        <circle class="cls-1" cx="1144.63" cy="1480.5" r="11"/>
        <line class="cls-1" x1="1144.63" y1="1480.5" x2="1144.63" y2="1469.5"/>
      </g>
      <rect class="cls-8" x="893.63" y="2036.5" width="39" height="26" transform="translate(-738.01 530.29) rotate(-23.37)"/>
      <g>
        <path class="cls-7" d="M670.3,2308.33c.94.59,2.32,1.06,3.76,1.06,2.15,0,3.42-1.12,3.42-2.78,0-1.51-.88-2.4-3.08-3.22-2.66-.94-4.31-2.34-4.31-4.62,0-2.54,2.11-4.42,5.28-4.42,1.66,0,2.88.38,3.6.79l-.59,1.73c-.52-.31-1.61-.77-3.08-.77-2.24,0-3.08,1.33-3.08,2.44,0,1.51.99,2.26,3.24,3.13,2.77,1.08,4.16,2.41,4.16,4.8s-1.84,4.7-5.71,4.7c-1.58,0-3.29-.48-4.16-1.06l.55-1.76Z"/>
        <path class="cls-7" d="M689,2310.9l-.19-1.48h-.06c-.64.91-1.9,1.74-3.58,1.74-2.36,0-3.57-1.68-3.57-3.36,0-2.83,2.51-4.39,7.03-4.36v-.25c0-.95-.27-2.71-2.66-2.7-1.09,0-2.23.32-3.05.87l-.48-1.41c.97-.62,2.38-1.03,3.86-1.03,3.58,0,4.45,2.44,4.45,4.79v4.38c0,1,.04,2,.18,2.8h-1.92ZM688.67,2304.93c-2.3-.05-4.94.37-4.94,2.63,0,1.4.92,2.04,1.99,2.04,1.54,0,2.51-.97,2.85-1.96.07-.23.1-.47.1-.67v-2.04Z"/>
        <path class="cls-7" d="M694.17,2302.36c0-1.22-.04-2.19-.1-3.16h1.88l.12,1.92h.06c.58-1.1,1.94-2.19,3.87-2.19,1.61,0,4.12.97,4.12,4.98v6.98h-2.12v-6.74c0-1.89-.71-3.47-2.7-3.47-1.4,0-2.49.99-2.87,2.18-.09.26-.15.64-.15.99v7.05h-2.12v-8.54Z"/>
        <path class="cls-7" d="M710.05,2295.83v3.37h3.06v1.61h-3.06v6.3c0,1.46.42,2.28,1.61,2.28.55,0,.95-.07,1.23-.15l.1,1.62c-.41.16-1.07.29-1.9.29-.98,0-1.79-.32-2.3-.9-.59-.65-.83-1.68-.83-3.05v-6.39h-1.81v-1.61h1.81v-2.82l2.08-.55Z"/>
        <path class="cls-7" d="M721.99,2310.9l-.19-1.48h-.06c-.64.91-1.9,1.74-3.58,1.74-2.36,0-3.57-1.68-3.57-3.36,0-2.83,2.51-4.39,7.03-4.36v-.25c0-.95-.27-2.71-2.66-2.7-1.09,0-2.23.32-3.05.87l-.48-1.41c.97-.62,2.38-1.03,3.86-1.03,3.58,0,4.45,2.44,4.45,4.79v4.38c0,1,.05,2,.18,2.8h-1.92ZM721.66,2304.93c-2.3-.05-4.94.37-4.94,2.63,0,1.4.92,2.04,1.99,2.04,1.54,0,2.51-.97,2.85-1.96.07-.23.1-.47.1-.67v-2.04Z"/>
        <path class="cls-7" d="M746.1,2303.74c-.13-2.26-.27-5.02-.26-7.03h-.07c-.56,1.89-1.24,3.95-2.05,6.18l-2.88,7.91h-1.59l-2.66-7.76c-.78-2.3-1.41-4.39-1.87-6.32h-.06c-.06,2.03-.16,4.75-.32,7.19l-.43,7h-2l1.13-16.3h2.69l2.78,7.89c.67,2,1.22,3.79,1.64,5.49h.06c.43-1.65,1-3.45,1.72-5.49l2.91-7.89h2.69l1.01,16.3h-2.07l-.39-7.16Z"/>
        <path class="cls-7" d="M758.36,2310.9l-.19-1.48h-.06c-.64.91-1.9,1.74-3.58,1.74-2.36,0-3.57-1.68-3.57-3.36,0-2.83,2.51-4.39,7.03-4.36v-.25c0-.95-.27-2.71-2.66-2.7-1.09,0-2.23.32-3.05.87l-.48-1.41c.97-.62,2.38-1.03,3.86-1.03,3.58,0,4.45,2.44,4.45,4.79v4.38c0,1,.04,2,.18,2.8h-1.92ZM758.03,2304.93c-2.3-.05-4.94.37-4.94,2.63,0,1.4.92,2.04,1.99,2.04,1.54,0,2.51-.97,2.85-1.96.07-.23.1-.47.1-.67v-2.04Z"/>
        <path class="cls-7" d="M763.53,2302.84c0-1.38-.03-2.56-.1-3.64h1.86l.08,2.29h.08c.55-1.57,1.84-2.56,3.26-2.56.23,0,.4.01.59.06v2c-.22-.05-.43-.06-.72-.06-1.5,0-2.56,1.13-2.85,2.72-.05.3-.08.65-.08.99v6.25h-2.12v-8.05Z"/>
        <path class="cls-7" d="M773.92,2295.9c0,.72-.51,1.32-1.35,1.32-.77,0-1.29-.6-1.28-1.32,0-.73.54-1.32,1.32-1.32s1.31.58,1.31,1.32ZM771.54,2310.9v-11.7h2.12v11.7h-2.12Z"/>
        <path class="cls-7" d="M783.68,2310.9l-.19-1.48h-.06c-.64.91-1.9,1.74-3.58,1.74-2.36,0-3.57-1.68-3.57-3.36,0-2.83,2.51-4.39,7.03-4.36v-.25c0-.95-.27-2.71-2.66-2.7-1.09,0-2.23.32-3.05.87l-.48-1.41c.97-.62,2.38-1.03,3.86-1.03,3.58,0,4.45,2.44,4.45,4.79v4.38c0,1,.04,2,.18,2.8h-1.92ZM783.35,2304.93c-2.3-.05-4.94.37-4.94,2.63,0,1.4.92,2.04,1.99,2.04,1.54,0,2.51-.97,2.85-1.96.07-.23.1-.47.1-.67v-2.04Z"/>
        <path class="cls-7" d="M804.08,2293.73v14.16c0,1.04.04,2.21.1,3.02h-1.89l-.11-2.02h-.06c-.65,1.31-2.06,2.29-3.97,2.29-2.83,0-5.02-2.4-5.02-5.94-.02-3.91,2.41-6.29,5.26-6.29,1.8,0,3,.84,3.53,1.77h.05v-6.98h2.12ZM801.96,2303.96c0-.28-.03-.63-.09-.91-.33-1.34-1.48-2.45-3.08-2.45-2.2,0-3.52,1.93-3.52,4.5,0,2.38,1.18,4.35,3.48,4.35,1.42,0,2.72-.96,3.11-2.55.08-.28.1-.58.1-.91v-2.03Z"/>
        <path class="cls-7" d="M808.82,2305.43c.04,2.88,1.87,4.06,4,4.06,1.52,0,2.45-.27,3.24-.6l.37,1.51c-.74.34-2.04.75-3.9.75-3.59,0-5.75-2.39-5.75-5.9s2.09-6.31,5.5-6.31c3.82,0,4.81,3.35,4.81,5.5,0,.45-.03.77-.07,1h-8.2ZM815.04,2303.9c.02-1.34-.55-3.44-2.93-3.44-2.17,0-3.1,1.96-3.27,3.44h6.2Z"/>
        <path class="cls-7" d="M819.74,2293.73h2.12v17.17h-2.12v-17.17Z"/>
        <path class="cls-7" d="M825.45,2293.73h2.12v17.17h-2.12v-17.17Z"/>
        <path class="cls-7" d="M837.64,2310.9l-.19-1.48h-.06c-.64.91-1.9,1.74-3.58,1.74-2.36,0-3.57-1.68-3.57-3.36,0-2.83,2.51-4.39,7.03-4.36v-.25c0-.95-.27-2.71-2.66-2.7-1.09,0-2.23.32-3.05.87l-.48-1.41c.97-.62,2.38-1.03,3.86-1.03,3.58,0,4.45,2.44,4.45,4.79v4.38c0,1,.04,2,.18,2.8h-1.92ZM837.31,2304.93c-2.3-.05-4.94.37-4.94,2.63,0,1.4.92,2.04,1.99,2.04,1.54,0,2.51-.97,2.85-1.96.07-.23.1-.47.1-.67v-2.04Z"/>
        <path class="cls-7" d="M847.73,2308.33c.94.59,2.32,1.06,3.76,1.06,2.15,0,3.42-1.12,3.42-2.78,0-1.51-.88-2.4-3.08-3.22-2.66-.94-4.31-2.34-4.31-4.62,0-2.54,2.11-4.42,5.28-4.42,1.66,0,2.88.38,3.6.79l-.59,1.73c-.52-.31-1.61-.77-3.08-.77-2.24,0-3.08,1.33-3.08,2.44,0,1.51.99,2.26,3.24,3.13,2.77,1.08,4.16,2.41,4.16,4.8s-1.84,4.7-5.71,4.7c-1.58,0-3.29-.48-4.16-1.06l.55-1.76Z"/>
        <path class="cls-7" d="M862.35,2295.83v3.37h3.06v1.61h-3.06v6.3c0,1.46.42,2.28,1.61,2.28.55,0,.95-.07,1.23-.15l.1,1.62c-.41.16-1.07.29-1.9.29-.98,0-1.79-.32-2.3-.9-.59-.65-.83-1.68-.83-3.05v-6.39h-1.81v-1.61h1.81v-2.82l2.08-.55Z"/>
        <path class="cls-7" d="M867.79,2302.84c0-1.38-.03-2.56-.1-3.64h1.86l.08,2.29h.08c.55-1.57,1.84-2.56,3.26-2.56.23,0,.4.01.59.06v2c-.22-.05-.43-.06-.72-.06-1.5,0-2.56,1.13-2.85,2.72-.05.3-.08.65-.08.99v6.25h-2.12v-8.05Z"/>
        <path class="cls-7" d="M882.07,2310.9l-.19-1.48h-.06c-.64.91-1.9,1.74-3.58,1.74-2.36,0-3.57-1.68-3.57-3.36,0-2.83,2.51-4.39,7.03-4.36v-.25c0-.95-.27-2.71-2.66-2.7-1.09,0-2.23.32-3.05.87l-.48-1.41c.97-.62,2.38-1.03,3.86-1.03,3.58,0,4.45,2.44,4.45,4.79v4.38c0,1,.04,2,.18,2.8h-1.92ZM881.74,2304.93c-2.3-.05-4.94.37-4.94,2.63,0,1.4.92,2.04,1.99,2.04,1.54,0,2.51-.97,2.85-1.96.07-.23.1-.47.1-.67v-2.04Z"/>
        <path class="cls-7" d="M897.34,2293.73v14.16c0,1.04.04,2.21.1,3.02h-1.89l-.11-2.02h-.06c-.65,1.31-2.06,2.29-3.97,2.29-2.83,0-5.02-2.4-5.02-5.94-.02-3.91,2.41-6.29,5.26-6.29,1.8,0,3,.84,3.53,1.77h.05v-6.98h2.12ZM895.23,2303.96c0-.28-.03-.63-.09-.91-.33-1.34-1.48-2.45-3.08-2.45-2.2,0-3.52,1.93-3.52,4.5,0,2.38,1.18,4.35,3.48,4.35,1.42,0,2.72-.96,3.11-2.55.08-.28.1-.58.1-.91v-2.03Z"/>
        <path class="cls-7" d="M907.37,2310.9l-.19-1.48h-.06c-.64.91-1.9,1.74-3.58,1.74-2.36,0-3.57-1.68-3.57-3.36,0-2.83,2.51-4.39,7.03-4.36v-.25c0-.95-.27-2.71-2.66-2.7-1.09,0-2.23.32-3.05.87l-.48-1.41c.97-.62,2.38-1.03,3.86-1.03,3.58,0,4.45,2.44,4.45,4.79v4.38c0,1,.04,2,.18,2.8h-1.92ZM907.04,2304.93c-2.3-.05-4.94.37-4.94,2.63,0,1.4.92,2.04,1.99,2.04,1.54,0,2.51-.97,2.85-1.96.07-.23.1-.47.1-.67v-2.04Z"/>
      </g>
    </g>
  </g>
</svg>