<?xml version="1.0" encoding="UTF-8" standalone="no" ?>
<!DOCTYPE svg PUBLIC "-//W3C//DTD SVG 1.1//EN" "http://www.w3.org/Graphics/SVG/1.1/DTD/svg11.dtd">
<svg xmlns="http://www.w3.org/2000/svg" xmlns:xlink="http://www.w3.org/1999/xlink" version="1.1" width="1080" height="1080" viewBox="0 0 1080 1080" xml:space="preserve">
<desc>Created with Fabric.js 5.2.4</desc>
<defs>
</defs>
<rect x="0" y="0" width="100%" height="100%" fill="transparent"></rect>
<g transform="matrix(1 0 0 1 540 540)" id="7539c5d8-1465-46cc-bfb7-e161ff3bc124"  >
</g>
<g transform="matrix(1 0 0 1 540 540)" id="1655f1bf-a45b-400c-84ce-d35e006dde7a"  >
<rect style="stroke: none; stroke-width: 1; stroke-dasharray: none; stroke-linecap: butt; stroke-dashoffset: 0; stroke-linejoin: miter; stroke-miterlimit: 4; fill: rgb(255,255,255); fill-rule: nonzero; opacity: 1; visibility: hidden;" vector-effect="non-scaling-stroke"  x="-540" y="-540" rx="0" ry="0" width="1080" height="1080" />
</g>
<g transform="matrix(11.91 0 0 11.91 540 373.97)"  >
<g style="opacity: 0.07;"   >
		<g transform="matrix(1 0 0 1 5.09 -1.95)"  >
<path style="stroke: none; stroke-width: 1; stroke-dasharray: none; stroke-linecap: butt; stroke-dashoffset: 0; stroke-linejoin: miter; stroke-miterlimit: 4; fill: rgb(202,113,114); fill-rule: nonzero; opacity: 1;" vector-effect="non-scaling-stroke"  transform=" translate(-50.43, -29.45)" d="M 75.5 14.4 C 74.9 14.4 71.3 15.4 71.1 15.5 C 68.3 17 66.8 19.3 66.8 22.5 L 66.8 23.8 C 66.8 24.3 67.1 24.8 67.2 25.3 C 67.4 25.900000000000002 67.60000000000001 26.5 68 27.1 C 68.5 27.700000000000003 69.2 28.200000000000003 69.8 28.6 C 70.6 29.1 71.3 29.6 72.1 29.900000000000002 C 72.3 29.900000000000002 72.8 30.200000000000003 73.3 30.3 C 73.6 30.3 73.8 30.5 73.89999999999999 30.5 C 74.89999999999999 30.9 77.3 33.2 77.6 33.8 C 78.1 34.4 78.1 35.699999999999996 78.1 36 C 78.1 36.8 77.6 37.2 77.5 37.4 C 77.3 37.699999999999996 77.2 38.1 77.1 38.5 C 77.1 39 76.89999999999999 39.6 76.39999999999999 39.8 C 76.19999999999999 39.8 75.6 40.3 74.89999999999999 40.9 C 73.39999999999999 42 71.19999999999999 43.1 70.39999999999999 43.5 C 66.69999999999999 45.3 63.29999999999999 43.5 62.79999999999999 43.5 C 62.59999999999999 43.3 62.29999999999999 43.2 61.79999999999999 43.1 C 57.99999999999999 42.4 54.79999999999999 39.6 53.499999999999986 36 C 53.09999999999999 34.9 52.899999999999984 33.8 52.69999999999999 32.7 C 52.499999999999986 31.700000000000003 52.29999999999999 30.700000000000003 51.999999999999986 29.700000000000003 C 50.899999999999984 26.500000000000004 48.399999999999984 23.700000000000003 44.899999999999984 21.900000000000002 C 41.999999999999986 20.400000000000002 38.499999999999986 19.700000000000003 34.399999999999984 19.6 L 33.19999999999998 19.6 C 32.69999999999998 19.700000000000003 32.29999999999998 20 31.89999999999998 20.200000000000003 L 26.59999999999998 23.300000000000004 C 25.39999999999998 24.000000000000004 24.59999999999998 24.800000000000004 23.69999999999998 25.800000000000004 C 23.69999999999998 25.800000000000004 23.69999999999998 25.900000000000006 23.499999999999982 26.000000000000004 C 22.999999999999982 26.500000000000004 21.299999999999983 28.100000000000005 21.799999999999983 28.700000000000003 L 21.999999999999982 28.700000000000003 C 22.39999999999998 28.700000000000003 23.099999999999984 27.500000000000004 23.39999999999998 26.900000000000002 C 23.59999999999998 26.6 23.69999999999998 26.400000000000002 23.79999999999998 26.3 C 24.699999999999978 25.2 25.79999999999998 24.2 27.199999999999978 23.400000000000002 C 29.099999999999977 22.200000000000003 31.199999999999978 21.500000000000004 33.299999999999976 20.700000000000003 C 33.89999999999998 20.500000000000004 34.59999999999997 20.200000000000003 35.299999999999976 20.1 L 35.89999999999998 20.1 C 36.699999999999974 20.1 37.59999999999998 20.3 38.39999999999998 20.5 C 39.09999999999998 20.7 39.799999999999976 20.8 40.49999999999998 21 C 44.799999999999976 22.1 48.09999999999998 24.4 49.99999999999998 27.6 C 51.09999999999998 29.5 51.49999999999998 31.5 51.89999999999998 33.7 C 51.89999999999998 34.2 52.09999999999998 34.7 52.199999999999974 35.1 C 52.799999999999976 37.800000000000004 54.299999999999976 40.300000000000004 56.299999999999976 41.7 C 56.89999999999998 42.1 57.699999999999974 42.5 58.39999999999998 42.800000000000004 L 61.199999999999974 44.1 C 61.49999999999997 44.1 63.99999999999997 44.6 64.09999999999998 44.7 C 64.49999999999999 45 65.99999999999999 45.300000000000004 66.69999999999997 45.300000000000004 C 68.39999999999998 45.300000000000004 69.19999999999997 44.6 70.09999999999998 44.50000000000001 C 70.59999999999998 44.50000000000001 72.19999999999997 43.70000000000001 72.29999999999998 43.50000000000001 C 72.39999999999999 43.300000000000004 75.39999999999998 41.800000000000004 75.59999999999998 41.60000000000001 C 76.09999999999998 41.20000000000001 76.69999999999997 41.00000000000001 77.29999999999998 40.400000000000006 C 77.29999999999998 40.400000000000006 77.29999999999998 40.10000000000001 77.49999999999999 39.900000000000006 C 77.49999999999999 39.50000000000001 78.19999999999999 38.300000000000004 78.19999999999999 38.2 C 78.19999999999999 38 78.19999999999999 37.900000000000006 78.39999999999999 37.7 C 78.39999999999999 37.7 78.89999999999999 36.300000000000004 78.99999999999999 36.1 C 79.29999999999998 35.1 79.19999999999999 34.1 78.49999999999999 33.2 C 77.79999999999998 32.300000000000004 76.99999999999999 31.200000000000003 75.79999999999998 30.500000000000004 C 75.09999999999998 30.100000000000005 74.29999999999998 29.800000000000004 73.49999999999999 29.500000000000004 C 73.09999999999998 29.300000000000004 72.59999999999998 29.200000000000003 72.19999999999999 29.000000000000004 C 70.79999999999998 28.400000000000002 69.69999999999999 27.600000000000005 69.1 26.800000000000004 C 68.8 26.400000000000006 68.6 26.000000000000004 68.39999999999999 25.600000000000005 C 67.99999999999999 24.700000000000006 67.6 23.800000000000004 67.49999999999999 22.900000000000006 C 67.49999999999999 21.800000000000004 67.79999999999998 20.800000000000004 68.19999999999999 19.800000000000004 C 68.39999999999999 19.400000000000006 70.49999999999999 16.700000000000003 70.79999999999998 16.500000000000004 C 70.99999999999999 16.400000000000002 72.99999999999999 15.300000000000004 73.69999999999999 15.300000000000004 L 74.79999999999998 15.300000000000004 C 75.39999999999998 15.300000000000004 76.19999999999999 15.000000000000004 76.39999999999998 14.900000000000004 C 76.39999999999998 14.900000000000004 76.89999999999998 14.600000000000003 77.29999999999998 14.600000000000003 C 77.69999999999999 14.600000000000003 78.79999999999998 14.200000000000003 78.79999999999998 14.200000000000003 C 78.99999999999999 13.900000000000002 78.79999999999998 13.600000000000003 78.39999999999998 13.600000000000003 C 77.89999999999998 13.700000000000003 77.39999999999998 13.900000000000004 76.89999999999998 14.000000000000004 C 76.29999999999998 14.200000000000003 75.69999999999997 14.400000000000004 75.39999999999998 14.400000000000004 Z" stroke-linecap="round" />
</g>
		<g transform="matrix(1 0 0 1 6.63 -0.15)"  >
<path style="stroke: none; stroke-width: 1; stroke-dasharray: none; stroke-linecap: butt; stroke-dashoffset: 0; stroke-linejoin: miter; stroke-miterlimit: 4; fill: rgb(202,113,114); fill-rule: nonzero; opacity: 1;" vector-effect="non-scaling-stroke"  transform=" translate(-51.98, -31.25)" d="M 80.9 32.3 C 80.2 31.4 79.4 30.299999999999997 78.2 29.599999999999998 C 77.7 29.299999999999997 76.10000000000001 28.7 75.3 28.299999999999997 Q 74.85 28.15 74.7 27.999999999999996 C 73.3 27.399999999999995 71.2 25.099999999999998 71 24.599999999999998 C 70.6 23.599999999999998 70.2 22.7 70.2 21.9 C 70.2 21.099999999999998 70.2 20.799999999999997 70.5 20.599999999999998 C 71.2 19.9 71.9 18.599999999999998 72.1 18.4 C 72.1 18.4 72.5 18.2 73.1 18 C 73.5 17.9 74 17.7 74.19999999999999 17.6 C 74.49999999999999 17.5 75.39999999999999 16.900000000000002 76.6 16.900000000000002 L 76.89999999999999 16.900000000000002 L 77.49999999999999 16.700000000000003 C 79.09999999999998 16.700000000000003 79.19999999999999 16.500000000000004 79.29999999999998 16.300000000000004 L 79.29999999999998 16 C 78.79999999999998 15.5 75.39999999999998 16 73.89999999999998 16.7 C 73.69999999999997 16.7 72.39999999999998 17.2 71.89999999999998 17.5 C 71.09999999999998 18 70.29999999999998 19.2 69.09999999999998 21.7 L 69.09999999999998 22.8 C 69.09999999999998 23.3 69.39999999999998 23.900000000000002 69.49999999999999 24.400000000000002 C 69.69999999999999 25.000000000000004 69.89999999999999 25.700000000000003 70.29999999999998 26.200000000000003 C 70.79999999999998 26.800000000000004 71.49999999999999 27.300000000000004 72.09999999999998 27.700000000000003 C 72.89999999999998 28.200000000000003 73.59999999999998 28.700000000000003 74.39999999999998 29.000000000000004 C 74.69999999999997 29.100000000000005 75.09999999999998 29.200000000000003 75.39999999999998 29.300000000000004 C 75.69999999999997 29.300000000000004 78.09999999999998 30.500000000000004 78.89999999999998 31.300000000000004 C 79.39999999999998 31.800000000000004 80.39999999999998 34.400000000000006 80.39999999999998 34.800000000000004 C 80.39999999999998 36.00000000000001 79.99999999999997 36.900000000000006 79.89999999999998 37.2 C 79.89999999999998 37.800000000000004 79.69999999999997 38.400000000000006 79.29999999999998 38.800000000000004 C 79.09999999999998 39.00000000000001 78.89999999999998 39.400000000000006 78.59999999999998 39.800000000000004 C 78.19999999999997 40.50000000000001 77.79999999999998 41.1 77.39999999999998 41.400000000000006 C 77.19999999999997 41.400000000000006 76.89999999999998 41.800000000000004 76.59999999999998 42.10000000000001 C 76.09999999999998 42.60000000000001 75.69999999999997 43.00000000000001 75.29999999999998 43.20000000000001 C 75.29999999999998 43.20000000000001 71.49999999999999 45.00000000000001 71.29999999999998 45.00000000000001 C 70.19999999999999 45.300000000000004 68.79999999999998 45.800000000000004 68.29999999999998 46.00000000000001 L 66.89999999999998 46.00000000000001 C 65.69999999999997 45.800000000000004 60.49999999999998 44.800000000000004 59.99999999999998 44.800000000000004 L 59.69999999999998 44.800000000000004 C 57.49999999999998 44.50000000000001 55.29999999999998 43.1 53.59999999999998 41.2 C 52.19999999999998 39.5 51.19999999999998 37.300000000000004 50.59999999999998 34.7 C 50.39999999999998 34 50.29999999999998 33.300000000000004 50.19999999999998 32.7 C 49.899999999999984 31.200000000000003 49.59999999999998 29.700000000000003 48.99999999999998 28.300000000000004 C 47.39999999999998 24.800000000000004 43.69999999999998 22.100000000000005 39.09999999999998 21.200000000000003 C 38.09999999999998 21.000000000000004 37.29999999999998 20.900000000000002 36.49999999999998 20.900000000000002 C 35.699999999999974 20.900000000000002 35.299999999999976 20.900000000000002 34.69999999999998 21.1 C 33.49999999999998 21.3 32.29999999999998 21.900000000000002 31.39999999999998 22.3 C 29.499999999999982 23.1 27.69999999999998 24 26.19999999999998 25.1 C 24.999999999999982 26 23.39999999999998 27.6 22.799999999999983 29.700000000000003 C 22.799999999999983 30.000000000000004 22.799999999999983 31.200000000000003 23.099999999999984 31.700000000000003 C 23.799999999999983 29.6 24.199999999999985 28.800000000000004 24.399999999999984 28.300000000000004 C 25.799999999999983 25.400000000000006 29.699999999999985 22.300000000000004 35.399999999999984 22.100000000000005 L 35.69999999999998 22.100000000000005 C 36.99999999999998 22.100000000000005 38.399999999999984 22.400000000000006 39.69999999999998 22.700000000000006 C 39.899999999999984 22.700000000000006 40.09999999999998 22.700000000000006 40.19999999999998 22.800000000000008 C 40.99999999999998 23.000000000000007 41.79999999999998 23.200000000000006 42.59999999999998 23.500000000000007 C 45.59999999999998 24.700000000000006 47.89999999999998 27.700000000000006 49.39999999999998 32.10000000000001 C 49.59999999999998 32.60000000000001 49.799999999999976 33.20000000000001 49.799999999999976 33.900000000000006 L 49.799999999999976 36.800000000000004 C 49.799999999999976 37.800000000000004 50.299999999999976 38.800000000000004 51.09999999999997 40.00000000000001 C 51.89999999999997 41.10000000000001 52.799999999999976 42.00000000000001 53.799999999999976 42.800000000000004 C 56.199999999999974 44.6 59.199999999999974 45.6 61.799999999999976 46.400000000000006 L 63.699999999999974 46.400000000000006 C 64.29999999999997 46.400000000000006 67.99999999999997 46.7 68.89999999999998 46.7 C 69.29999999999998 46.7 71.89999999999998 45.400000000000006 71.89999999999998 45.400000000000006 C 71.89999999999998 45.400000000000006 74.59999999999998 44.2 74.99999999999997 43.900000000000006 C 75.99999999999997 43.00000000000001 77.39999999999998 42.2 77.89999999999998 41.50000000000001 C 77.89999999999998 41.50000000000001 78.59999999999998 40.50000000000001 78.99999999999997 39.900000000000006 C 79.49999999999997 39.2 79.99999999999997 38.400000000000006 80.19999999999997 38.2 C 80.19999999999997 38.2 80.89999999999998 36.800000000000004 80.99999999999997 36.7 L 80.99999999999997 35 C 81.29999999999997 34 81.19999999999997 33 80.49999999999997 32.1 z" stroke-linecap="round" />
</g>
		<g transform="matrix(1 0 0 1 -9.05 2.95)"  >
<path style="stroke: none; stroke-width: 1; stroke-dasharray: none; stroke-linecap: butt; stroke-dashoffset: 0; stroke-linejoin: miter; stroke-miterlimit: 4; fill: rgb(202,113,114); fill-rule: nonzero; opacity: 1;" vector-effect="non-scaling-stroke"  transform=" translate(-36.3, -34.35)" d="M 45.9 28.3 C 45.699999999999996 28.2 45.4 28.1 45.199999999999996 27.900000000000002 C 44.8 27.700000000000003 44.3 27.500000000000004 43.99999999999999 27.200000000000003 C 43.69999999999999 26.900000000000002 43.699999999999996 26.700000000000003 43.49999999999999 26.400000000000002 C 43.49999999999999 26.3 43.29999999999999 26.1 43.29999999999999 26.000000000000004 C 42.49999999999999 24.700000000000003 40.49999999999999 23.700000000000003 38.79999999999999 23.700000000000003 C 37.09999999999999 23.700000000000003 38.19999999999999 23.700000000000003 37.89999999999999 23.800000000000004 C 37.599999999999994 23.800000000000004 37.39999999999999 23.900000000000006 37.19999999999999 24.000000000000004 C 36.79999999999999 24.100000000000005 36.499999999999986 24.300000000000004 36.09999999999999 24.300000000000004 L 35.899999999999984 24.300000000000004 C 35.399999999999984 24.300000000000004 34.69999999999998 24.100000000000005 34.09999999999999 24.000000000000004 L 33.399999999999984 24.000000000000004 C 31.499999999999986 24.000000000000004 29.899999999999984 25.400000000000002 28.399999999999984 28.200000000000003 C 28.099999999999984 28.700000000000003 27.599999999999984 28.700000000000003 27.299999999999983 28.700000000000003 L 26.899999999999984 28.700000000000003 C 26.499999999999986 28.700000000000003 26.199999999999985 28.700000000000003 25.999999999999986 29.1 C 25.799999999999986 29.3 25.699999999999985 29.5 25.599999999999987 29.700000000000003 C 25.19999999999999 30.1 25.099999999999987 30.400000000000002 24.799999999999986 31.1 C 24.599999999999987 31.700000000000003 24.399999999999988 33.1 24.499999999999986 33.5 L 24.499999999999986 33.9 C 24.499999999999986 34.5 24.699999999999985 35.3 25.599999999999987 35.4 L 25.799999999999986 35.4 L 25.799999999999986 35.6 C 24.999999999999986 38.2 25.299999999999986 40 26.499999999999986 40.7 L 27.099999999999987 41 C 27.299999999999986 41 27.599999999999987 41.2 27.799999999999986 41.4 C 27.999999999999986 41.4 28.299999999999986 41.9 28.499999999999986 42.3 C 28.699999999999985 42.699999999999996 28.799999999999986 42.699999999999996 28.899999999999984 42.8 L 29.099999999999984 43.099999999999994 C 30.199999999999985 44.199999999999996 30.599999999999984 44.599999999999994 32.19999999999998 44.99999999999999 L 33.19999999999998 44.99999999999999 C 33.899999999999984 44.99999999999999 34.399999999999984 44.79999999999999 34.899999999999984 44.599999999999994 C 35.29999999999998 44.39999999999999 35.59999999999999 44.3 35.999999999999986 44.3 L 36.499999999999986 44.3 C 36.999999999999986 44.699999999999996 37.999999999999986 45 39.29999999999998 45 C 41.399999999999984 45 43.899999999999984 44.3 44.399999999999984 43.1 C 44.399999999999984 42.9 44.399999999999984 42.800000000000004 44.59999999999999 42.6 C 44.59999999999999 42.2 44.899999999999984 41.7 45.29999999999999 41.5 C 45.49999999999999 41.3 45.79999999999999 41.3 45.99999999999999 41.2 L 46.39999999999999 41.2 C 46.99999999999999 40.900000000000006 47.39999999999999 40.300000000000004 47.599999999999994 39.900000000000006 C 48.099999999999994 38.800000000000004 48.199999999999996 37.60000000000001 47.89999999999999 36.400000000000006 L 47.89999999999999 35.900000000000006 C 47.89999999999999 35.50000000000001 47.69999999999999 35.2 47.599999999999994 34.800000000000004 C 47.599999999999994 34.1 47.599999999999994 33.50000000000001 47.89999999999999 33.00000000000001 C 48.49999999999999 30.900000000000006 47.89999999999999 29.300000000000008 46.19999999999999 28.200000000000006 L 46 28.200000000000006 Z M 37.4 25 C 37.699999999999996 24.8 38.1 24.6 38.6 24.6 C 39.5 24.6 40.6 25 41.1 25.5 C 41.800000000000004 26.1 42.4 26.9 42.5 27.8 L 42.5 28.7 C 42.5 29 42.1 29.2 41.9 29.4 L 40.199999999999996 30.7 C 40.199999999999996 30.7 39.99999999999999 30.8 39.9 30.8 L 39.699999999999996 30.6 C 39.4 30 38.49999999999999 29.8 37.99999999999999 29.8 C 37.49999999999999 29.8 37.699999999999996 29.8 37.49999999999999 29.7 C 37.199999999999996 29.5 37.199999999999996 29.2 37.199999999999996 29 L 36.99999999999999 27.1 C 36.99999999999999 26.3 36.99999999999999 25.400000000000002 37.49999999999999 24.900000000000002 L 37.39999999999999 24.900000000000002 Z M 40.199999999999996 32.1 L 40.49999999999999 32.1 C 40.79999999999999 32.1 40.89999999999999 32.4 41.099999999999994 32.6 C 41.099999999999994 32.800000000000004 41.39999999999999 33 41.39999999999999 33.300000000000004 L 41.39999999999999 33.7 L 41.19999999999999 34.1 C 41.19999999999999 34.1 41.19999999999999 34.300000000000004 40.999999999999986 34.4 C 40.79999999999998 34.49999999999999 40.59999999999999 34.4 40.499999999999986 34.4 L 38.09999999999999 34.4 C 37.899999999999984 34.4 37.69999999999999 34.1 37.69999999999999 33.9 C 37.69999999999999 33.4 38.39999999999999 33 39.29999999999999 32.5 C 39.29999999999999 32.5 39.49999999999999 32.5 39.59999999999999 32.3 Q 40.04999999999999 31.999999999999996 40.499999999999986 31.999999999999996 L 40.29999999999998 31.999999999999996 Z M 36.3 32.7 L 36.3 31.1 C 36.3 30.900000000000002 36.3 30.6 36.599999999999994 30.5 C 36.599999999999994 30.5 36.89999999999999 30.4 36.99999999999999 30.4 C 37.39999999999999 30.4 37.89999999999999 30.4 38.29999999999999 30.7 C 38.49999999999999 30.8 38.59999999999999 31 38.69999999999999 31.2 C 38.69999999999999 31.3 38.999999999999986 31.5 38.999999999999986 31.8 C 38.999999999999986 32.1 38.69999999999999 32.4 38.499999999999986 32.6 C 38.09999999999999 33 37.59999999999999 33.300000000000004 37.19999999999999 33.7 L 36.89999999999999 33.7 C 36.69999999999999 33.7 36.29999999999999 33.7 36.099999999999994 33.400000000000006 C 35.89999999999999 33.2 35.89999999999999 32.900000000000006 36.099999999999994 32.7 Z M 29.9 27.300000000000004 C 29.9 27.200000000000003 30.099999999999998 27.100000000000005 30.2 27.000000000000004 C 30.4 26.700000000000003 30.7 26.400000000000002 31 26.100000000000005 C 32 25.200000000000006 33.4 25.100000000000005 34.9 25.100000000000005 C 35.1 25.100000000000005 35.3 25.100000000000005 35.4 25.200000000000006 C 35.699999999999996 25.400000000000006 35.8 25.700000000000006 35.8 26.100000000000005 L 35.8 29.100000000000005 C 35.8 29.400000000000006 35.5 29.700000000000006 35.199999999999996 29.700000000000006 L 35 29.700000000000006 C 34.7 29.700000000000006 34.6 29.700000000000006 34.4 29.600000000000005 L 33.9 29.600000000000005 C 33.699999999999996 29.600000000000005 33.9 29.600000000000005 33.9 29.600000000000005 C 33.3 29.600000000000005 32.9 30.000000000000004 32.4 30.400000000000006 C 32.199999999999996 30.600000000000005 32.1 30.700000000000006 31.9 30.800000000000004 L 31.7 30.800000000000004 C 31.4 30.800000000000004 31.099999999999998 30.700000000000003 30.9 30.500000000000004 C 30.2 30.100000000000005 29.7 29.600000000000005 29.299999999999997 29.000000000000004 C 28.799999999999997 28.300000000000004 29.299999999999997 27.800000000000004 29.699999999999996 27.300000000000004 Z M 34.4 34.6 L 32.199999999999996 34.6 C 31.999999999999996 34.6 31.799999999999997 34.6 31.699999999999996 34.4 C 31.399999999999995 34.199999999999996 31.399999999999995 33.8 31.399999999999995 33.5 C 31.399999999999995 33 31.399999999999995 32.6 31.799999999999994 32.4 C 31.999999999999993 32.1 32.39999999999999 31.9 32.8 31.9 L 33 31.9 C 33.4 31.9 33.6 32.199999999999996 33.9 32.5 L 34.3 32.9 C 34.3 32.9 35.199999999999996 33.4 35.3 34 C 35.3 34.2 35.3 34.4 35.099999999999994 34.5 C 34.89999999999999 34.7 34.699999999999996 34.7 34.49999999999999 34.7 L 34.39999999999999 34.7 Z M 34.4 36.1 L 34 36.5 C 34 36.5 34 36.7 33.8 36.8 C 33.599999999999994 36.89999999999999 33.599999999999994 37 33.5 37.099999999999994 L 33.1 37.49999999999999 C 33.1 37.49999999999999 32.800000000000004 37.79999999999999 32.6 37.79999999999999 L 32.4 37.79999999999999 C 32.199999999999996 37.79999999999999 32 37.79999999999999 31.799999999999997 37.59999999999999 C 31.599999999999994 37.399999999999984 31.4 37.19999999999999 31.299999999999997 36.999999999999986 C 31.299999999999997 36.79999999999998 31.099999999999998 36.59999999999999 30.999999999999996 36.29999999999998 C 30.999999999999996 35.999999999999986 30.999999999999996 35.69999999999998 31.199999999999996 35.499999999999986 C 31.399999999999995 35.19999999999999 31.799999999999997 35.19999999999999 32.099999999999994 35.09999999999999 L 32.99999999999999 35.09999999999999 C 34.599999999999994 35.09999999999999 34.699999999999996 35.399999999999984 34.79999999999999 35.59999999999999 C 34.79999999999999 35.899999999999984 34.59999999999999 36.09999999999999 34.39999999999999 36.19999999999999 Z M 33.8 32 C 33.4 31.6 33.4 31.5 33.599999999999994 31 C 33.599999999999994 30.7 33.99999999999999 30.4 34.3 30.2 C 34.5 30.2 34.699999999999996 30.099999999999998 34.9 30.099999999999998 L 35.5 30.099999999999998 C 35.5 30.099999999999998 35.7 30.099999999999998 35.8 30.2 L 35.8 33.1 C 35.8 33.4 35.8 33.5 35.5 33.6 C 35.3 33.6 35.2 33.6 35.2 33.4 L 33.800000000000004 31.9 Z M 25.299999999999997 32.7 C 25.299999999999997 31.800000000000004 25.299999999999997 31.000000000000004 25.799999999999997 30.300000000000004 C 25.999999999999996 30.000000000000004 26.199999999999996 29.800000000000004 26.499999999999996 29.600000000000005 C 26.799999999999997 29.500000000000004 26.999999999999996 29.400000000000006 27.299999999999997 29.400000000000006 C 28.099999999999998 29.400000000000006 28.799999999999997 29.900000000000006 29.4 30.400000000000006 L 30.599999999999998 31.300000000000004 C 30.9 31.500000000000004 30.9 31.900000000000006 30.799999999999997 32.2 C 30.599999999999998 32.5 30.4 33 30.4 33 L 30.4 35.2 C 30.4 35.2 30.099999999999998 35.400000000000006 29.9 35.400000000000006 L 27.5 35.400000000000006 C 27.1 35.400000000000006 26.5 35.400000000000006 26.1 35.00000000000001 C 25.5 34.50000000000001 25.400000000000002 33.70000000000001 25.400000000000002 32.900000000000006 Z M 28.199999999999996 40.7 C 27.999999999999996 40.7 27.899999999999995 40.900000000000006 27.699999999999996 40.900000000000006 C 27.499999999999996 40.900000000000006 27.299999999999997 40.900000000000006 27.199999999999996 40.7 C 26.199999999999996 40 25.599999999999994 38.900000000000006 25.699999999999996 37.6 C 25.699999999999996 36.6 26.099999999999994 35.9 26.699999999999996 35.6 L 27.599999999999994 35.6 C 27.899999999999995 35.6 27.599999999999994 35.6 27.599999999999994 35.6 L 29.799999999999994 35.6 C 29.799999999999994 35.6 30.199999999999992 35.6 30.299999999999994 35.800000000000004 L 30.299999999999994 37.300000000000004 C 30.299999999999994 37.6 30.299999999999994 37.800000000000004 30.599999999999994 38.00000000000001 C 30.799999999999994 38.300000000000004 30.799999999999994 38.70000000000001 30.599999999999994 38.900000000000006 C 29.799999999999994 39.60000000000001 28.899999999999995 40.2 27.999999999999993 40.7 Z M 35.49999999999999 43.5 C 35.49999999999999 43.8 35.099999999999994 43.9 34.79999999999999 44.1 C 34.49999999999999 44.1 34.09999999999999 44.4 33.69999999999999 44.4 L 32.29999999999999 44.4 C 31.49999999999999 44.4 30.59999999999999 44.199999999999996 29.99999999999999 43.6 C 29.59999999999999 43.2 29.399999999999988 42.800000000000004 29.09999999999999 42.4 C 29.09999999999999 42.4 28.89999999999999 42.1 28.89999999999999 42 C 28.89999999999999 41.7 29.09999999999999 41.5 29.39999999999999 41.3 L 31.199999999999992 40 C 31.499999999999993 39.7 31.999999999999993 39.5 32.39999999999999 39.5 L 32.69999999999999 39.5 C 32.89999999999999 39.5 33.09999999999999 39.7 33.19999999999999 39.8 L 33.39999999999999 39.8 C 33.79999999999999 40.199999999999996 34.39999999999999 40.3 34.79999999999999 40.4 C 35.19999999999999 40.4 35.49999999999999 40.8 35.39999999999999 41.1 L 35.39999999999999 43.7 L 35.39999999999999 43.5 Z M 36.199999999999996 37 C 36.199999999999996 37.7 35.99999999999999 38.4 35.8 39 C 35.8 39 35.8 39.3 35.599999999999994 39.4 L 35.099999999999994 39.4 C 34.699999999999996 39.4 34.3 39.199999999999996 33.99999999999999 39.1 C 33.79999999999999 39.1 33.29999999999999 38.9 33.199999999999996 38.4 C 33.199999999999996 38 33.49999999999999 37.6 33.599999999999994 37.5 C 33.89999999999999 37.2 34.099999999999994 36.9 34.3 36.7 C 34.5 36.400000000000006 34.699999999999996 36.1 35 35.800000000000004 L 35.2 35.6 L 35.5 35.6 C 35.9 35.800000000000004 36.1 36.300000000000004 36.1 36.9 L 36.2 36.9 Z M 35.49999999999999 34.9 C 35.49999999999999 34.5 35.49999999999999 34.199999999999996 35.89999999999999 34 C 35.89999999999999 34 36.099999999999994 33.8 36.19999999999999 33.8 L 36.39999999999999 33.8 C 36.79999999999999 33.8 37.19999999999999 34 37.29999999999999 34.4 L 37.29999999999999 35.1 L 37.59999999999999 34.800000000000004 L 39.29999999999999 34.800000000000004 C 39.89999999999999 34.800000000000004 40.59999999999999 34.800000000000004 40.99999999999999 35.400000000000006 L 40.99999999999999 35.800000000000004 C 40.99999999999999 36.2 40.699999999999996 37.00000000000001 40.49999999999999 37.2 C 40.49999999999999 37.2 40.199999999999996 37.400000000000006 40.099999999999994 37.400000000000006 L 39.599999999999994 37.400000000000006 C 39.199999999999996 37.2 38.89999999999999 37.00000000000001 38.599999999999994 36.800000000000004 C 38.39999999999999 36.6 38.099999999999994 36.50000000000001 37.8 36.400000000000006 C 37.599999999999994 36.400000000000006 37.4 36.2 37.3 35.900000000000006 L 37.3 35.400000000000006 C 37.3 35.60000000000001 37 35.7 36.9 35.800000000000004 L 36.4 35.800000000000004 C 36.1 35.800000000000004 35.699999999999996 35.6 35.6 35.2 L 35.6 35 Z M 36.49999999999999 36.199999999999996 C 36.49999999999999 36.199999999999996 36.699999999999996 35.99999999999999 36.89999999999999 35.99999999999999 C 37.39999999999999 35.99999999999999 38.099999999999994 36.49999999999999 38.599999999999994 36.79999999999999 C 38.599999999999994 36.79999999999999 38.8 36.79999999999999 38.89999999999999 36.99999999999999 C 39.19999999999999 37.199999999999996 39.599999999999994 37.39999999999999 39.599999999999994 37.79999999999999 C 39.599999999999994 38.19999999999999 39.599999999999994 38.29999999999999 39.39999999999999 38.49999999999999 C 38.89999999999999 39.199999999999996 38.099999999999994 39.599999999999994 37.19999999999999 39.599999999999994 L 36.69999999999999 39.599999999999994 C 36.499999999999986 39.599999999999994 36.499999999999986 39.199999999999996 36.499999999999986 39.099999999999994 L 36.29999999999998 36.99999999999999 L 36.29999999999998 36.39999999999999 Z M 42.29999999999999 43.9 C 41.59999999999999 44.3 40.89999999999999 44.4 40.09999999999999 44.5 L 38.79999999999999 44.5 C 38.39999999999999 44.5 37.59999999999999 44.5 37.19999999999999 44.2 C 36.999999999999986 44.2 36.79999999999999 44 36.69999999999999 43.800000000000004 C 36.59999999999999 43.60000000000001 36.69999999999999 43.400000000000006 36.69999999999999 43.2 L 36.69999999999999 40.5 C 36.69999999999999 40.2 36.999999999999986 39.9 37.29999999999999 39.9 L 37.49999999999999 39.9 C 37.79999999999999 39.9 38.199999999999996 40.1 38.49999999999999 40.1 C 39.099999999999994 40.1 39.49999999999999 39.9 39.89999999999999 39.4 C 40.29999999999999 38.9 39.89999999999999 39.199999999999996 40.19999999999999 39.199999999999996 L 40.39999999999999 39.199999999999996 C 40.599999999999994 39.199999999999996 40.79999999999999 39.199999999999996 40.89999999999999 39.4 C 41.49999999999999 40 42.29999999999999 40.4 43.099999999999994 40.8 C 43.099999999999994 40.8 43.39999999999999 40.8 43.49999999999999 41.099999999999994 C 43.699999999999996 41.3 43.79999999999999 41.599999999999994 43.79999999999999 41.89999999999999 C 43.79999999999999 42.79999999999999 43.09999999999999 43.49999999999999 42.49999999999999 43.79999999999999 L 42.29999999999999 43.79999999999999 Z M 45.99999999999999 40.3 L 45.99999999999999 40.5 C 45.99999999999999 40.5 45.99999999999999 40.7 45.699999999999996 40.8 C 45.49999999999999 40.8 45.3 41 44.99999999999999 41 C 44.69999999999999 41 44.29999999999999 41 43.79999999999999 40.7 C 43.19999999999999 40.400000000000006 42.59999999999999 40 41.99999999999999 39.6 C 41.699999999999996 39.4 41.49999999999999 39.2 41.29999999999999 39 C 41.09999999999999 38.7 41.09999999999999 38.3 41.29999999999999 38 L 41.59999999999999 37.7 C 41.999999999999986 37.2 41.899999999999984 36.6 41.899999999999984 36.2 L 41.899999999999984 35.7 C 41.899999999999984 35.400000000000006 42.29999999999998 35.400000000000006 42.59999999999999 35.300000000000004 L 43.29999999999999 35.300000000000004 C 43.79999999999999 35.300000000000004 44.19999999999999 35.1 44.69999999999999 35.1 L 45.29999999999999 35.1 C 45.89999999999999 35.1 46.29999999999999 35.5 46.59999999999999 35.9 C 46.59999999999999 36.1 46.79999999999999 36.4 46.899999999999984 36.6 C 47.29999999999998 38.4 46.899999999999984 39.4 45.999999999999986 40.300000000000004 M 47.19999999999999 31.600000000000005 C 47.19999999999999 32.400000000000006 46.89999999999999 33.400000000000006 46.29999999999999 34.2 C 46.29999999999999 34.2 46.09999999999999 34.5 45.89999999999999 34.6 L 41.79999999999999 34.6 C 41.69999999999999 34.6 41.79999999999999 34.300000000000004 41.79999999999999 34.1 L 41.79999999999999 32.800000000000004 C 41.79999999999999 32.50000000000001 41.59999999999999 32.400000000000006 41.49999999999999 32.2 C 41.49999999999999 32.2 41.199999999999996 32 40.89999999999999 31.900000000000002 C 40.89999999999999 31.900000000000002 40.69999999999999 31.900000000000002 40.599999999999994 31.8 C 40.39999999999999 31.8 40.3 31.5 40.3 31.3 C 40.3 31.1 40.3 30.900000000000002 40.5 30.8 L 42.6 29.1 C 42.800000000000004 28.900000000000002 43.1 28.700000000000003 43.4 28.700000000000003 L 44.199999999999996 28.700000000000003 C 45.4 28.700000000000003 45.699999999999996 29.1 46.3 29.800000000000004 L 46.3 30.000000000000004 C 46.599999999999994 30.200000000000003 46.9 30.900000000000002 47 31.000000000000004 L 47 31.700000000000003 L 47.1 31.700000000000003 Z" stroke-linecap="round" />
</g>
		<g transform="matrix(1 0 0 1 3.53 -3.81)"  >
<path style="stroke: none; stroke-width: 1; stroke-dasharray: none; stroke-linecap: butt; stroke-dashoffset: 0; stroke-linejoin: miter; stroke-miterlimit: 4; fill: rgb(202,113,114); fill-rule: nonzero; opacity: 1;" vector-effect="non-scaling-stroke"  transform=" translate(-48.88, -27.59)" d="M 21.4 27.3 C 21.799999999999997 27.3 22.099999999999998 26.7 22.299999999999997 26.2 C 22.299999999999997 25.9 22.499999999999996 25.7 22.599999999999998 25.5 C 23.9 23.7 25.299999999999997 22.6 27.199999999999996 21.6 C 27.499999999999996 21.400000000000002 28.299999999999997 20.700000000000003 28.699999999999996 20.400000000000002 C 28.699999999999996 20.400000000000002 28.699999999999996 20.3 28.899999999999995 20.3 C 29.099999999999994 20.1 29.599999999999994 20 29.899999999999995 19.900000000000002 L 30.199999999999996 19.900000000000002 C 32.099999999999994 19.3 33.599999999999994 18.8 35.4 18.8 L 36.6 18.8 C 38 18.900000000000002 39.5 19.1 40.800000000000004 19.400000000000002 C 42.900000000000006 20.000000000000004 45.1 21.000000000000004 47.7 22.8 C 49.900000000000006 24.3 51.6 26.6 52.6 29.1 C 53 30.1 53.2 31.200000000000003 53.4 32.2 C 53.4 32.5 53.4 32.800000000000004 53.6 33.1 C 54.1 35.2 54.9 37.6 56.5 39.300000000000004 C 57 39.800000000000004 57.6 40.300000000000004 58.2 40.7 C 59.2 41.5 60.800000000000004 42 61.800000000000004 42.300000000000004 C 62.800000000000004 42.60000000000001 63.7 42.6 64.30000000000001 42.6 C 64.90000000000002 42.6 65.60000000000001 42.800000000000004 66.50000000000001 43 C 67.40000000000002 43.199999999999996 68.60000000000001 43 69.30000000000001 43 C 70.50000000000001 42.8 72.50000000000001 41.7 72.70000000000002 41.4 C 73.20000000000002 40.699999999999996 73.90000000000002 40.3 74.60000000000002 40 C 75.00000000000003 39.8 75.30000000000003 39.7 75.50000000000003 39.5 C 75.70000000000003 39.3 76.20000000000003 38.6 76.20000000000003 38.5 Q 76.50000000000003 38.05 76.50000000000003 37.6 L 76.50000000000003 37.1 C 76.80000000000003 36.1 76.70000000000003 35.1 76.00000000000003 34.2 C 75.30000000000003 33.300000000000004 74.50000000000003 32.2 73.30000000000003 31.500000000000004 C 72.60000000000002 31.100000000000005 71.80000000000003 30.800000000000004 71.00000000000003 30.500000000000004 C 70.60000000000002 30.300000000000004 70.10000000000002 30.200000000000003 69.70000000000003 30.000000000000004 C 68.30000000000003 29.400000000000002 67.20000000000003 28.600000000000005 66.60000000000004 27.800000000000004 C 66.30000000000004 27.400000000000006 66.10000000000004 27.000000000000004 65.90000000000003 26.600000000000005 C 65.50000000000003 25.700000000000006 65.10000000000004 24.800000000000004 65.00000000000003 23.900000000000006 C 65.00000000000003 22.800000000000004 64.80000000000003 22.200000000000006 65.30000000000003 21.200000000000006 C 65.80000000000003 20.200000000000006 65.70000000000003 19.300000000000008 65.90000000000002 19.100000000000005 C 65.90000000000002 19.100000000000005 66.20000000000002 18.600000000000005 66.50000000000001 18.200000000000006 C 67.00000000000001 17.400000000000006 67.40000000000002 16.900000000000006 67.50000000000001 16.800000000000008 C 67.70000000000002 16.60000000000001 69.70000000000002 14.800000000000008 69.90000000000002 14.700000000000008 C 69.90000000000002 14.700000000000008 72.20000000000002 13.400000000000007 72.90000000000002 13.400000000000007 C 73.60000000000002 13.400000000000007 74.00000000000001 13.400000000000007 74.70000000000002 13.200000000000008 C 75.30000000000001 13.200000000000008 75.80000000000001 13.100000000000009 76.00000000000001 13.100000000000009 C 76.20000000000002 13.100000000000009 76.70000000000002 12.90000000000001 76.90000000000002 12.700000000000008 C 76.90000000000002 12.500000000000009 77.10000000000002 12.300000000000008 76.90000000000002 12.100000000000009 L 76.70000000000002 12.100000000000009 C 76.20000000000002 12.100000000000009 75.30000000000001 12.40000000000001 75.20000000000002 12.40000000000001 L 73.10000000000002 12.40000000000001 C 71.90000000000002 12.40000000000001 69.90000000000002 13.90000000000001 69.60000000000002 14.30000000000001 C 69.00000000000003 14.90000000000001 68.10000000000002 15.40000000000001 67.40000000000002 15.80000000000001 C 67.10000000000002 16.00000000000001 66.90000000000002 16.00000000000001 66.70000000000002 16.30000000000001 C 66.50000000000001 16.50000000000001 66.40000000000002 16.80000000000001 66.20000000000002 17.100000000000012 C 65.10000000000002 19.30000000000001 64.20000000000002 21.00000000000001 64.20000000000002 23.80000000000001 L 64.20000000000002 25.100000000000012 C 64.20000000000002 25.600000000000012 64.50000000000001 26.100000000000012 64.60000000000002 26.600000000000012 C 64.80000000000003 27.200000000000014 65.00000000000003 27.80000000000001 65.40000000000002 28.400000000000013 C 65.90000000000002 29.000000000000014 68.80000000000003 30.900000000000013 69.50000000000001 31.200000000000014 C 69.80000000000001 31.300000000000015 70.20000000000002 31.400000000000013 70.50000000000001 31.500000000000014 C 70.80000000000001 31.500000000000014 73.20000000000002 32.70000000000002 74.00000000000001 33.500000000000014 C 74.50000000000001 34.000000000000014 74.80000000000001 34.500000000000014 75.00000000000001 35.100000000000016 C 75.40000000000002 35.70000000000002 75.70000000000002 36.40000000000001 75.60000000000001 37.100000000000016 C 75.5 37.80000000000002 74.60000000000001 38.600000000000016 74.50000000000001 38.70000000000002 C 74.40000000000002 38.80000000000002 71.20000000000002 41.20000000000002 70.90000000000002 41.500000000000014 C 70.40000000000002 41.90000000000001 69.50000000000001 42.30000000000001 68.70000000000002 42.40000000000001 C 67.90000000000002 42.500000000000014 66.50000000000001 42.40000000000001 65.90000000000002 42.40000000000001 C 65.60000000000002 42.40000000000001 63.80000000000002 42.000000000000014 63.50000000000002 42.000000000000014 C 62.50000000000002 42.000000000000014 62.10000000000002 41.600000000000016 61.40000000000002 41.40000000000001 C 61.40000000000002 41.40000000000001 60.30000000000002 40.90000000000001 59.90000000000002 40.80000000000001 C 59.30000000000002 40.60000000000001 58.60000000000002 40.30000000000001 58.00000000000002 40.000000000000014 C 56.700000000000024 39.20000000000002 55.700000000000024 37.80000000000001 55.00000000000002 35.70000000000002 C 54.700000000000024 34.80000000000002 54.50000000000002 33.80000000000002 54.30000000000002 32.90000000000002 C 54.100000000000016 32.10000000000002 54.00000000000002 31.30000000000002 53.70000000000002 30.60000000000002 C 52.80000000000002 27.500000000000018 50.90000000000002 24.60000000000002 48.500000000000014 22.50000000000002 C 47.600000000000016 21.70000000000002 46.70000000000002 21.20000000000002 45.90000000000001 20.800000000000022 C 45.600000000000016 20.600000000000023 45.20000000000001 20.50000000000002 44.90000000000001 20.300000000000022 C 44.30000000000001 20.00000000000002 43.70000000000001 19.600000000000023 43.100000000000016 19.50000000000002 C 42.100000000000016 19.20000000000002 41.000000000000014 19.100000000000023 40.000000000000014 18.90000000000002 C 39.20000000000002 18.80000000000002 38.30000000000001 18.70000000000002 37.40000000000001 18.50000000000002 C 37.000000000000014 18.50000000000002 36.500000000000014 18.300000000000022 36.000000000000014 18.300000000000022 C 35.600000000000016 18.300000000000022 35.20000000000002 18.400000000000023 34.80000000000001 18.50000000000002 C 34.60000000000001 18.50000000000002 34.500000000000014 18.50000000000002 34.30000000000001 18.600000000000023 C 33.80000000000001 18.600000000000023 33.40000000000001 18.700000000000024 32.90000000000001 18.800000000000022 C 32.600000000000016 18.800000000000022 32.20000000000001 18.800000000000022 31.900000000000013 18.900000000000023 C 29.80000000000001 19.200000000000024 27.80000000000001 20.200000000000024 25.700000000000014 21.900000000000023 Q 22.700000000000014 24.300000000000022 21.200000000000014 26.400000000000023 C 20.900000000000013 26.800000000000022 20.700000000000014 27.300000000000022 20.800000000000015 27.500000000000025 C 20.800000000000015 27.500000000000025 21.000000000000014 27.600000000000026 21.100000000000016 27.600000000000026 Z" stroke-linecap="round" />
</g>
		<g transform="matrix(1 0 0 1 -15.94 2.6)"  >
<path style="stroke: none; stroke-width: 1; stroke-dasharray: none; stroke-linecap: butt; stroke-dashoffset: 0; stroke-linejoin: miter; stroke-miterlimit: 4; fill: rgb(202,113,114); fill-rule: nonzero; opacity: 1;" vector-effect="non-scaling-stroke"  transform=" translate(-29.41, -34)" d="M 11.4 22.3 C 11.6 22.3 11.8 22.400000000000002 11.9 22.5 C 15.3 23.8 17.7 25.5 19.1 27.7 C 20.1 29.2 21.3 31.5 21.700000000000003 33.9 C 21.700000000000003 34.6 21.900000000000002 35.3 21.900000000000002 36 C 21.900000000000002 37.5 22.200000000000003 38.9 22.900000000000002 40.2 C 23.400000000000002 41.2 24.400000000000002 42.7 25.700000000000003 43.900000000000006 C 26.800000000000004 44.900000000000006 27.900000000000002 45.60000000000001 28.900000000000002 46.00000000000001 C 30.000000000000004 46.400000000000006 31.1 46.60000000000001 32.2 46.800000000000004 C 33.5 47.00000000000001 34.6 47.1 35.900000000000006 47.1 C 37.20000000000001 47.1 39.60000000000001 46.9 41.60000000000001 46.6 C 44.00000000000001 46.300000000000004 45.900000000000006 44 47.50000000000001 42.1 C 47.70000000000001 41.9 47.800000000000004 41.7 48.00000000000001 41.5 C 48.400000000000006 41 48.800000000000004 40.4 48.70000000000001 39.9 C 48.30000000000001 39.9 48.00000000000001 40.5 47.70000000000001 41 C 47.30000000000001 41.9 46.60000000000001 42.5 46.00000000000001 43.1 C 45.20000000000001 43.9 44.50000000000001 44.6 43.50000000000001 45.2 C 42.10000000000001 46 40.400000000000006 46.2 38.900000000000006 46.300000000000004 L 35.7 46.300000000000004 C 33.1 46.300000000000004 31.000000000000004 45.900000000000006 29.200000000000003 45.1 C 27.300000000000004 44.2 25.500000000000004 42.7 23.6 40.300000000000004 C 23.3 39.900000000000006 22.900000000000002 39.400000000000006 22.8 38.900000000000006 C 22.6 38.400000000000006 22.6 37.800000000000004 22.6 37.2 Q 22.6 31.650000000000002 20.200000000000003 28.200000000000003 C 19.700000000000003 27.500000000000004 19.1 26.800000000000004 18.500000000000004 26.200000000000003 C 17.400000000000002 25.1 16.100000000000005 23.800000000000004 14.600000000000003 22.700000000000003 C 13.700000000000003 22.1 12.000000000000004 20.900000000000002 10.900000000000002 20.900000000000002 L 10.700000000000003 20.900000000000002 C 10.500000000000004 20.900000000000002 10.200000000000003 21.1 10.100000000000003 21.3 L 10.100000000000003 21.5 C 10.100000000000003 21.6 11.100000000000003 21.9 11.500000000000004 22 L 11.500000000000004 22.2 Z" stroke-linecap="round" />
</g>
		<g transform="matrix(1 0 0 1 -15.4 4.6)"  >
<path style="stroke: none; stroke-width: 1; stroke-dasharray: none; stroke-linecap: butt; stroke-dashoffset: 0; stroke-linejoin: miter; stroke-miterlimit: 4; fill: rgb(202,113,114); fill-rule: nonzero; opacity: 1;" vector-effect="non-scaling-stroke"  transform=" translate(-29.95, -36)" d="M 11.4 24.3 C 16.1 25.8 19.700000000000003 30.5 20.3 35.6 L 20.3 36.800000000000004 C 20.3 37.900000000000006 20.5 39.1 20.900000000000002 40.2 C 20.900000000000002 40.5 21.200000000000003 40.7 21.3 41 C 21.5 41.3 21.7 41.6 21.8 42 L 21.8 42.4 C 21.8 42.699999999999996 22 43 22.2 43.199999999999996 C 22.4 43.49999999999999 22.8 43.8 23.099999999999998 43.99999999999999 C 25.599999999999998 45.89999999999999 28.4 47.99999999999999 31.599999999999998 48.699999999999996 C 32.4 48.9 33.4 48.99999999999999 34.4 48.99999999999999 C 35.5 48.99999999999999 36.6 48.99999999999999 37.9 48.79999999999999 C 39.3 48.79999999999999 40.8 48.49999999999999 42.3 48.09999999999999 L 47.8 44.79999999999999 C 48.8 43.89999999999999 49.8 42.99999999999999 49.9 41.69999999999999 L 49.6 41.69999999999999 Q 49 41.69999999999999 48.1 42.89999999999999 C 46.4 45.29999999999999 43.7 47.099999999999994 40.9 47.79999999999999 C 39.699999999999996 48.09999999999999 38.4 48.19999999999999 36.6 48.19999999999999 L 34.6 48.19999999999999 C 33.4 48.19999999999999 32.1 48.19999999999999 30.900000000000002 47.79999999999999 C 29.900000000000002 47.49999999999999 28.900000000000002 47.09999999999999 28.000000000000004 46.69999999999999 C 26.400000000000002 45.999999999999986 24.500000000000004 45.09999999999999 23.300000000000004 43.59999999999999 C 22.200000000000003 42.29999999999999 21.800000000000004 40.59999999999999 21.500000000000004 39.29999999999999 C 21.300000000000004 38.29999999999999 21.100000000000005 37.29999999999999 21.000000000000004 36.29999999999999 C 20.600000000000005 33.59999999999999 20.100000000000005 30.89999999999999 18.600000000000005 28.69999999999999 C 16.900000000000006 26.19999999999999 14.000000000000005 24.69999999999999 11.300000000000004 23.399999999999988 C 11.000000000000004 23.19999999999999 10.500000000000004 22.99999999999999 10.200000000000005 22.99999999999999 L 10 22.99999999999999 L 10 23.29999999999999 C 10 23.79999999999999 11.1 24.09999999999999 11.5 24.29999999999999 L 11.3 24.29999999999999 Z" stroke-linecap="round" />
</g>
		<g transform="matrix(1 0 0 1 -14.75 6.3)"  >
<path style="stroke: none; stroke-width: 1; stroke-dasharray: none; stroke-linecap: butt; stroke-dashoffset: 0; stroke-linejoin: miter; stroke-miterlimit: 4; fill: rgb(202,113,114); fill-rule: nonzero; opacity: 1;" vector-effect="non-scaling-stroke"  transform=" translate(-30.6, -37.7)" d="M 51.2 43.1 L 51 43.1 C 50.5 43.6 50 44.2 49.6 44.7 C 49.1 45.400000000000006 48.6 46.2 47.800000000000004 46.7 C 47.1 47.2 46.300000000000004 47.400000000000006 45.6 47.7 C 45.2 47.7 44.9 47.900000000000006 44.5 48.1 L 43.3 48.7 C 42.8 49 42.199999999999996 49.2 41.599999999999994 49.400000000000006 C 40.599999999999994 49.7 39.599999999999994 49.800000000000004 38.599999999999994 49.900000000000006 C 37.39999999999999 49.900000000000006 36.099999999999994 50.10000000000001 34.8 50.10000000000001 C 33.5 50.10000000000001 32.199999999999996 50.10000000000001 31.099999999999998 49.70000000000001 C 28.999999999999996 49.20000000000001 27.099999999999998 48.10000000000001 25.4 47.00000000000001 C 24.5 46.50000000000001 23.7 46.00000000000001 23 45.300000000000004 C 21.5 43.900000000000006 20.4 41.6 19.8 38.900000000000006 C 19.6 38.10000000000001 19.5 37.300000000000004 19.400000000000002 36.50000000000001 C 19.200000000000003 35.00000000000001 19.000000000000004 33.60000000000001 18.500000000000004 32.300000000000004 C 17.700000000000003 30.100000000000005 16.200000000000003 28.200000000000003 14.300000000000004 26.700000000000003 C 13.300000000000004 26.000000000000004 12.300000000000004 25.400000000000002 11.200000000000005 25.000000000000004 L 11 25.000000000000004 C 10.7 24.900000000000002 10.3 24.700000000000003 10.1 24.700000000000003 L 9.9 24.700000000000003 C 9.9 25.000000000000004 10.5 25.300000000000004 10.9 25.500000000000004 C 14.9 27.000000000000004 18 30.800000000000004 18.6 35.1 L 18.6 36.6 C 18.6 37.1 18.6 37.800000000000004 18.8 38.4 C 19.1 39.9 19.6 41.199999999999996 20.3 42.699999999999996 C 20.8 43.8 21.5 45.3 22.5 46.3 C 23.5 47.3 24.7 47.8 25.9 48.3 C 26.9 48.8 27.9 49.199999999999996 28.9 49.599999999999994 C 29.7 49.89999999999999 30.599999999999998 50.099999999999994 31.599999999999998 50.3 C 32.9 50.5 34.199999999999996 50.699999999999996 35.5 50.699999999999996 C 40.8 50.699999999999996 46.1 48.699999999999996 50.1 45.3 C 50.7 44.8 51.4 44.099999999999994 51.300000000000004 43.3 C 51.300000000000004 43.099999999999994 51.300000000000004 42.9 51.1 42.9 Z" stroke-linecap="round" />
</g>
</g>
</g>
</svg>